<?xml version="1.0" encoding="utf-8"?>
<!-- Generator: Adobe Illustrator 16.0.0, SVG Export Plug-In . SVG Version: 6.00 Build 0)  -->
<!DOCTYPE svg PUBLIC "-//W3C//DTD SVG 1.1//EN" "http://www.w3.org/Graphics/SVG/1.1/DTD/svg11.dtd">
<svg version="1.1"
	 id="svg3336" xmlns:dc="http://purl.org/dc/elements/1.1/" xmlns:cc="http://creativecommons.org/ns#" xmlns:rdf="http://www.w3.org/1999/02/22-rdf-syntax-ns#" xmlns:svg="http://www.w3.org/2000/svg" xmlns:sodipodi="http://sodipodi.sourceforge.net/DTD/sodipodi-0.dtd" xmlns:inkscape="http://www.inkscape.org/namespaces/inkscape" inkscape:version="0.91 r13725" sodipodi:docname="bigicon_collections.svg"
	 xmlns="http://www.w3.org/2000/svg" xmlns:xlink="http://www.w3.org/1999/xlink" x="0px" y="0px" width="326.875px"
	 height="430.508px" viewBox="0 0 326.875 430.508" enable-background="new 0 0 326.875 430.508" xml:space="preserve">
<sodipodi:namedview  id="namedview3338" fit-margin-left="0" fit-margin-top="0" inkscape:cy="203.50093" inkscape:cx="684.83554" inkscape:zoom="1.2" showgrid="false" guidetolerance="10" gridtolerance="10" objecttolerance="10" bordercolor="#666666" pagecolor="#ffffff" borderopacity="1" fit-margin-right="0" inkscape:window-height="852" inkscape:window-width="1439" inkscape:pageshadow="2" inkscape:current-layer="g3344" fit-margin-bottom="0" inkscape:window-x="0" inkscape:window-maximized="0" inkscape:window-y="0" inkscape:pageopacity="0">
	</sodipodi:namedview>
<g id="g3356" transform="translate(135.9736,287.1738)">
	<path id="path3358" inkscape:connector-curvature="0" fill="#F6AF2F" d="M-130.349,92.397c0-8.461,6.85-15.313,15.313-15.313
		h285.625c8.463,0,15.313,6.852,15.313,15.313v35.625c0,8.463-6.85,15.313-15.313,15.313h-285.625
		c-8.462,0-15.313-6.85-15.313-15.313V92.397z"/>
</g>
<g id="g3360" transform="translate(167.498,460.001)">
	<path id="path3362" inkscape:connector-curvature="0" fill="#F6AF2F" d="M-122.468-296.463c0-65.571,53.149-118.72,118.72-118.72
		c65.572,0,118.718,53.149,118.718,118.72S61.824-177.744-3.747-177.744C-69.319-177.744-122.468-230.892-122.468-296.463"/>
</g>
<path id="path3364" inkscape:connector-curvature="0" fill="#6C6D70" d="M220.646,199.554H106.844v-79.639h113.801V199.554z
	 M224.957,110.789h-4.312h-18.151h-7.461h-9.075h-83.413c-2.212,0-4.014,1.839-4.014,4.126v89.639c0,2.272,1.801,4.123,4.014,4.123
	h41.25v4.45h-12.087v3.161h64.087v-3.161h-12.088v-4.45h41.25c2.212,0,4.011-1.85,4.011-4.123v-89.639
	C228.968,112.627,227.17,110.789,224.957,110.789"/>
<g id="g3366" transform="translate(223.8604,474.9199)">
	<path id="path3368" inkscape:connector-curvature="0" fill="#6C6D70" d="M-108.377-330.031h26.064v-13.88h0.083v-3.476h-12.605
		c-1.459,0-2.63,1.3-2.63,2.896v0.34h-10.911V-330.031z"/>
</g>
<g id="g3370" transform="translate(223.8604,455.5322)">
	<path id="path3372" inkscape:connector-curvature="0" fill="#6C6D70" d="M-108.377-286.409h26.064v-13.88h0.083v-3.491h-12.605
		c-1.459,0-2.63,1.3-2.63,2.911v0.326h-10.911V-286.409z"/>
</g>
<g id="g3374" transform="translate(223.8604,436.1504)">
	<path id="path3376" inkscape:connector-curvature="0" fill="#6C6D70" d="M-108.377-242.8h26.064v-13.88h0.083v-3.487h-12.605
		c-1.459,0-2.63,1.3-2.63,2.907v0.326h-10.911V-242.8z"/>
</g>
<g id="g3378" transform="translate(252.0156,474.9199)">
	<path id="path3380" inkscape:connector-curvature="0" fill="#6C6D70" d="M-101.338-330.031h26.063v-13.88h0.082v-3.476h-12.605
		c-1.457,0-2.628,1.3-2.628,2.896v0.34h-10.911V-330.031z"/>
</g>
<g id="g3382" transform="translate(252.0156,455.5322)">
	<path id="path3384" inkscape:connector-curvature="0" fill="#6C6D70" d="M-101.338-286.409h26.063v-13.88h0.082v-3.491h-12.605
		c-1.457,0-2.628,1.3-2.628,2.911v0.326h-10.911V-286.409z"/>
</g>
<g id="g3386" transform="translate(252.0156,436.1504)">
	<path id="path3388" inkscape:connector-curvature="0" fill="#6C6D70" d="M-101.338-242.8h26.063v-13.88h0.082v-3.487h-12.605
		c-1.457,0-2.628,1.3-2.628,2.907v0.326h-10.911V-242.8z"/>
</g>
<g id="g3390" transform="translate(280.1699,474.9199)">
	<path id="path3392" inkscape:connector-curvature="0" fill="#6C6D70" d="M-94.3-330.031h26.063v-13.88h0.083v-3.476h-12.604
		c-1.459,0-2.631,1.3-2.631,2.896v0.34H-94.3V-330.031z"/>
</g>
<g id="g3394" transform="translate(280.1699,455.5322)">
	<path id="path3396" inkscape:connector-curvature="0" fill="#6C6D70" d="M-94.3-286.409h26.063v-13.88h0.083v-3.491h-12.604
		c-1.459,0-2.631,1.3-2.631,2.911v0.326H-94.3V-286.409z"/>
</g>
<g id="g3398" transform="translate(280.1699,436.1504)">
	<path id="path3400" inkscape:connector-curvature="0" fill="#6C6D70" d="M-94.3-242.8h26.063v-13.88h0.083v-3.487h-12.604
		c-1.459,0-2.631,1.3-2.631,2.907v0.326H-94.3V-242.8z"/>
</g>
<g id="g3468" transform="translate(132.4736,457.5869)">
	
		<path id="path3470" inkscape:connector-curvature="0" fill="none" stroke="#BCBEC0" stroke-linecap="round" stroke-linejoin="round" stroke-dasharray="6.006,6.006" d="
		M-131.224-291.032c0-89.749,72.75-162.5,162.5-162.5s162.5,72.751,162.5,162.5c0,89.752-72.75,162.5-162.5,162.5
		S-131.224-201.28-131.224-291.032z"/>
</g>
<g id="g3472" transform="translate(262.4736,327.5869)">
	
		<path id="path3474" inkscape:connector-curvature="0" fill="none" stroke="#F6AF2F" stroke-width="2" stroke-linecap="round" stroke-linejoin="round" stroke-miterlimit="10" d="
		M-98.724,1.468c-89.75,0-162.5-72.748-162.5-162.5c0-89.749,72.75-162.5,162.5-162.5"/>
</g>
<g id="g3476" transform="translate(266.1943,587.332)">
	<path id="path3478" inkscape:connector-curvature="0" fill="#F6AF2F" d="M-97.794-582.958c0,2.417-1.958,4.376-4.375,4.376
		c-2.416,0-4.375-1.959-4.375-4.376c0-2.417,1.958-4.374,4.375-4.374C-99.752-587.332-97.794-585.374-97.794-582.958"/>
</g>
<g>
	<path fill="#6C6D70" d="M94.612,405.167l-1.366-3.353h-6.319l-1.366,3.353h-3.353l6.406-15.055h3.032l6.405,15.055H94.612z
		 M90.089,394.062l-1.989,4.849h3.975L90.089,394.062z"/>
	<path fill="#6C6D70" d="M103.248,405.362c-1.986,0-3.332-0.793-3.332-3.439v-5.426H98.55v-2.775h1.366v-2.924h3.248v2.924h2.688
		v2.775h-2.688v4.89c0,0.748,0.32,1.113,1.047,1.113c0.599,0,1.131-0.149,1.6-0.407v2.604
		C105.129,405.104,104.336,405.362,103.248,405.362z"/>
	<path fill="#6C6D70" d="M112.116,405.362c-1.986,0-3.332-0.793-3.332-3.439v-5.426h-1.366v-2.775h1.366v-2.924h3.245v2.924h2.691
		v2.775h-2.691v4.89c0,0.748,0.319,1.113,1.046,1.113c0.599,0,1.134-0.149,1.604-0.407v2.604
		C113.994,405.104,113.204,405.362,112.116,405.362z"/>
	<path fill="#6C6D70" d="M117.18,392.462v-2.883h3.418v2.883H117.18z M117.267,405.167v-11.445h3.244v11.445H117.267z"/>
	<path fill="#6C6D70" d="M129.998,405.253h-2.949l-4.504-11.532h3.437l2.563,7.665l2.584-7.665h3.373L129.998,405.253z"/>
	<path fill="#6C6D70" d="M136.452,392.462v-2.883h3.419v2.883H136.452z M136.539,405.167v-11.445h3.245v11.445H136.539z"/>
	<path fill="#6C6D70" d="M146.708,405.362c-1.985,0-3.332-0.793-3.332-3.439v-5.426h-1.366v-2.775h1.366v-2.924h3.245v2.924h2.691
		v2.775h-2.691v4.89c0,0.748,0.32,1.113,1.047,1.113c0.598,0,1.134-0.149,1.604-0.407v2.604
		C148.586,405.104,147.797,405.362,146.708,405.362z"/>
	<path fill="#6C6D70" d="M158.414,405.167v-1.238c-0.79,0.877-1.878,1.454-3.461,1.454c-2.155,0-3.93-1.241-3.93-3.502v-0.045
		c0-2.497,1.902-3.652,4.615-3.652c1.151,0,1.985,0.195,2.796,0.47v-0.191c0-1.346-0.831-2.094-2.455-2.094
		c-1.238,0-2.114,0.237-3.161,0.619l-0.811-2.476c1.259-0.557,2.497-0.918,4.441-0.918c3.543,0,5.104,1.836,5.104,4.935v6.639
		H158.414z M155.681,392.462l-2.733-2.563l2.796-1.218l2.413,3.78H155.681z M158.477,400.555c-0.553-0.257-1.28-0.428-2.069-0.428
		c-1.388,0-2.243,0.557-2.243,1.579v0.045c0,0.876,0.727,1.388,1.773,1.388c1.517,0,2.539-0.835,2.539-2.007V400.555z"/>
	<path fill="#6C6D70" d="M177.472,405.167v-1.238c-0.79,0.877-1.878,1.454-3.461,1.454c-2.156,0-3.93-1.241-3.93-3.502v-0.045
		c0-2.497,1.902-3.652,4.615-3.652c1.151,0,1.985,0.195,2.796,0.47v-0.191c0-1.346-0.831-2.094-2.455-2.094
		c-1.238,0-2.114,0.237-3.161,0.619l-0.811-2.476c1.259-0.557,2.497-0.918,4.441-0.918c3.543,0,5.104,1.836,5.104,4.935v6.639
		H177.472z M177.534,400.555c-0.553-0.257-1.28-0.428-2.069-0.428c-1.388,0-2.243,0.557-2.243,1.579v0.045
		c0,0.876,0.727,1.388,1.773,1.388c1.517,0,2.539-0.835,2.539-2.007V400.555z"/>
	<path fill="#6C6D70" d="M196.936,393.252v11.914h-3.29v-11.914h-4.549v-3.033h12.388v3.033H196.936z"/>
	<path fill="#6C6D70" d="M212.06,400.576h-7.963c0.319,1.475,1.346,2.243,2.796,2.243c1.088,0,1.881-0.341,2.778-1.175l1.857,1.645
		c-1.068,1.325-2.605,2.136-4.678,2.136c-3.439,0-5.979-2.414-5.979-5.916v-0.042c0-3.269,2.327-5.96,5.658-5.96
		c3.822,0,5.575,2.97,5.575,6.214v0.046C212.105,400.085,212.081,400.277,212.06,400.576z M206.53,396.114
		c-1.346,0-2.222,0.96-2.476,2.435h4.89C208.753,397.095,207.897,396.114,206.53,396.114z"/>
	<path fill="#6C6D70" d="M228.746,405.167v-6.385c0-1.537-0.686-2.326-1.902-2.326c-1.218,0-1.962,0.789-1.962,2.326v6.385h-3.248
		v-6.385c0-1.537-0.682-2.326-1.898-2.326c-1.218,0-1.965,0.789-1.965,2.326v6.385h-3.248v-11.445h3.248v1.625
		c0.747-0.964,1.729-1.84,3.373-1.84c1.495,0,2.626,0.664,3.224,1.815c1.005-1.173,2.201-1.815,3.76-1.815
		c2.413,0,3.863,1.453,3.863,4.208v7.452H228.746z"/>
	<path fill="#6C6D70" d="M241.526,405.167v-1.238c-0.79,0.877-1.878,1.454-3.457,1.454c-2.159,0-3.93-1.241-3.93-3.502v-0.045
		c0-2.497,1.898-3.652,4.611-3.652c1.154,0,1.985,0.195,2.8,0.47v-0.191c0-1.346-0.835-2.094-2.459-2.094
		c-1.238,0-2.111,0.237-3.157,0.619l-0.814-2.476c1.263-0.557,2.501-0.918,4.444-0.918c3.544,0,5.103,1.836,5.103,4.935v6.639
		H241.526z M241.592,400.555c-0.556-0.257-1.283-0.428-2.072-0.428c-1.388,0-2.243,0.557-2.243,1.579v0.045
		c0,0.876,0.727,1.388,1.773,1.388c1.517,0,2.542-0.835,2.542-2.007V400.555z"/>
</g>
</svg>
