<?xml version="1.0" encoding="UTF-8" standalone="no"?>
<!-- Created with Inkscape (http://www.inkscape.org/) -->

<svg
   xmlns:dc="http://purl.org/dc/elements/1.1/"
   xmlns:cc="http://creativecommons.org/ns#"
   xmlns:rdf="http://www.w3.org/1999/02/22-rdf-syntax-ns#"
   xmlns:svg="http://www.w3.org/2000/svg"
   xmlns="http://www.w3.org/2000/svg"
   xmlns:sodipodi="http://sodipodi.sourceforge.net/DTD/sodipodi-0.dtd"
   xmlns:inkscape="http://www.inkscape.org/namespaces/inkscape"
   id="svg3336"
   version="1.1"
   inkscape:version="0.91 r13725"
   xml:space="preserve"
   width="326.25"
   height="430.509"
   viewBox="0 0 326.24999 430.50898"
   sodipodi:docname="bigicon_submit.svg"><metadata
     id="metadata3342"><rdf:RDF><cc:Work
         rdf:about=""><dc:format>image/svg+xml</dc:format><dc:type
           rdf:resource="http://purl.org/dc/dcmitype/StillImage" /><dc:title></dc:title></cc:Work></rdf:RDF></metadata><defs
     id="defs3340"><clipPath
       clipPathUnits="userSpaceOnUse"
       id="clipPath3352"><path
         d="m 0,841.89 1262.016,0 0,-841.89 L 0,0 0,841.89 Z"
         id="path3354"
         inkscape:connector-curvature="0" /></clipPath></defs><sodipodi:namedview
     pagecolor="#ffffff"
     bordercolor="#666666"
     borderopacity="1"
     objecttolerance="10"
     gridtolerance="10"
     guidetolerance="10"
     inkscape:pageopacity="0"
     inkscape:pageshadow="2"
     inkscape:window-width="1439"
     inkscape:window-height="852"
     id="namedview3338"
     showgrid="false"
     inkscape:zoom="1.2"
     inkscape:cx="-374.91828"
     inkscape:cy="203.50093"
     inkscape:window-x="0"
     inkscape:window-y="0"
     inkscape:window-maximized="0"
     inkscape:current-layer="g3344"
     fit-margin-top="0"
     fit-margin-left="0"
     fit-margin-right="0"
     fit-margin-bottom="0" /><g
     id="g3344"
     inkscape:groupmode="layer"
     inkscape:label="novos_icons_astroedu"
     transform="matrix(1.25,0,0,-1.25,-1015.3894,738.53875)"><g
       id="g3550"
       transform="translate(847.752,459.8379)"><path
         d="m 0,0 c 0,52.457 42.52,94.976 94.977,94.976 52.457,0 94.974,-42.519 94.974,-94.976 0,-52.457 -42.517,-94.976 -94.974,-94.976 C 42.52,-94.976 0,-52.457 0,0"
         style="fill:#f6af2f;fill-opacity:1;fill-rule:evenodd;stroke:none"
         id="path3552"
         inkscape:connector-curvature="0" /></g><path
       d="m 988.244,431.188 -91.041,0 0,63.711 91.041,0 0,-63.711 z m 3.449,71.012 -3.449,0 -14.521,0 -5.969,0 -7.26,0 -66.73,0 c -1.77,0 -3.211,-1.471 -3.211,-3.301 l 0,-71.711 c 0,-1.818 1.441,-3.298 3.211,-3.298 l 33,0 0,-3.56 -9.67,0 0,-2.529 51.269,0 0,2.529 -9.67,0 0,3.56 33,0 c 1.77,0 3.209,1.48 3.209,3.298 l 0,71.711 c 0,1.83 -1.439,3.301 -3.209,3.301"
       style="fill:#6c6d70;fill-opacity:1;fill-rule:evenodd;stroke:none"
       id="path3580"
       inkscape:connector-curvature="0" /><g
       id="g3582"
       transform="translate(817.1309,287.1738)"><path
         d="m 0,0 c 0,6.77 5.48,12.25 12.25,12.25 l 228.5,0 C 247.52,12.25 253,6.77 253,0 l 0,-28.5 c 0,-6.77 -5.48,-12.25 -12.25,-12.25 l -228.5,0 C 5.48,-40.75 0,-35.27 0,-28.5 L 0,0 Z"
         style="fill:#f6af2f;fill-opacity:1;fill-rule:evenodd;stroke:none"
         id="path3584"
         inkscape:connector-curvature="0" /></g><g
       id="g3586"
       transform="translate(842.6279,265.9141)"><path
         d="m 0,0 c -2.014,0 -4.047,0.702 -5.643,2.127 l 1.73,2.07 c 1.196,-0.987 2.45,-1.614 3.97,-1.614 1.197,0 1.919,0.476 1.919,1.254 l 0,0.038 c 0,0.74 -0.456,1.121 -2.679,1.69 C -3.382,6.25 -5.11,6.99 -5.11,9.631 l 0,0.038 c 0,2.413 1.937,4.009 4.654,4.009 1.937,0 3.591,-0.609 4.939,-1.692 L 2.964,9.783 c -1.179,0.817 -2.337,1.311 -3.458,1.311 -1.121,0 -1.71,-0.513 -1.71,-1.158 l 0,-0.04 c 0,-0.873 0.57,-1.158 2.869,-1.747 C 3.362,7.446 4.882,6.478 4.882,4.16 l 0,-0.038 C 4.882,1.481 2.868,0 0,0"
         style="fill:#6c6d70;fill-opacity:1;fill-rule:nonzero;stroke:none"
         id="path3588"
         inkscape:connector-curvature="0" /></g><g
       id="g3590"
       transform="translate(856.1182,266.1035)"><path
         d="m 0,0 0,1.443 c -0.665,-0.854 -1.521,-1.632 -2.983,-1.632 -2.185,0 -3.457,1.443 -3.457,3.779 l 0,6.593 2.887,0 0,-5.681 c 0,-1.367 0.646,-2.07 1.748,-2.07 1.102,0 1.805,0.703 1.805,2.07 l 0,5.681 2.887,0 L 2.887,0 0,0 Z"
         style="fill:#6c6d70;fill-opacity:1;fill-rule:nonzero;stroke:none"
         id="path3592"
         inkscape:connector-curvature="0" /></g><g
       id="g3594"
       transform="translate(869.3984,271.2139)"><path
         d="M 0,0 C 0,1.69 -1.14,2.812 -2.488,2.812 -3.837,2.812 -4.958,1.69 -4.958,0 l 0,-0.038 c 0,-1.691 1.121,-2.812 2.47,-2.812 C -1.14,-2.85 0,-1.748 0,-0.038 L 0,0 Z m -1.748,-5.3 c -1.538,0 -2.488,0.702 -3.172,1.52 l 0,-1.33 -2.888,0 0,13.868 2.888,0 0,-5.149 C -4.218,4.56 -3.248,5.263 -1.748,5.263 0.627,5.263 2.888,3.4 2.888,0 l 0,-0.038 c 0,-3.4 -2.223,-5.262 -4.636,-5.262"
         style="fill:#6c6d70;fill-opacity:1;fill-rule:nonzero;stroke:none"
         id="path3596"
         inkscape:connector-curvature="0" /></g><g
       id="g3598"
       transform="translate(887.0674,266.1035)"><path
         d="m 0,0 0,5.68 c 0,1.368 -0.608,2.071 -1.691,2.071 -1.083,0 -1.747,-0.703 -1.747,-2.071 l 0,-5.68 -2.888,0 0,5.68 c 0,1.368 -0.609,2.071 -1.692,2.071 -1.082,0 -1.747,-0.703 -1.747,-2.071 l 0,-5.68 -2.887,0 0,10.183 2.887,0 0,-1.445 c 0.665,0.856 1.538,1.635 3.001,1.635 1.33,0 2.337,-0.59 2.869,-1.615 0.893,1.045 1.957,1.615 3.343,1.615 2.148,0 3.439,-1.293 3.439,-3.743 L 2.887,0 0,0 Z"
         style="fill:#6c6d70;fill-opacity:1;fill-rule:nonzero;stroke:none"
         id="path3600"
         inkscape:connector-curvature="0" /></g><path
       d="m 892.598,276.286 2.888,0 0,-10.183 -2.888,0 0,10.183 z m -0.077,3.686 3.04,0 0,-2.565 -3.04,0 0,2.565 z"
       style="fill:#6c6d70;fill-opacity:1;fill-rule:nonzero;stroke:none"
       id="path3602"
       inkscape:connector-curvature="0" /><g
       id="g3604"
       transform="translate(901.6416,265.9326)"><path
         d="m 0,0 c -1.767,0 -2.964,0.702 -2.964,3.059 l 0,4.825 -1.216,0 0,2.47 1.216,0 0,2.602 2.888,0 0,-2.602 2.393,0 0,-2.47 -2.393,0 0,-4.351 c 0,-0.665 0.285,-0.987 0.93,-0.987 0.533,0 1.007,0.133 1.425,0.36 l 0,-2.317 C 1.672,0.228 0.969,0 0,0"
         style="fill:#6c6d70;fill-opacity:1;fill-rule:nonzero;stroke:none"
         id="path3606"
         inkscape:connector-curvature="0" /></g><g
       id="g3608"
       transform="translate(918.7588,271.4043)"><path
         d="m 0,0 0,-5.301 -2.926,0 0,5.243 -5.11,8.055 3.42,0 3.173,-5.338 3.229,5.338 3.324,0 L 0,0 Z"
         style="fill:#6c6d70;fill-opacity:1;fill-rule:nonzero;stroke:none"
         id="path3610"
         inkscape:connector-curvature="0" /></g><g
       id="g3612"
       transform="translate(930.9766,271.1758)"><path
         d="m 0,0 c 0,1.501 -1.083,2.812 -2.679,2.812 -1.652,0 -2.64,-1.273 -2.64,-2.774 l 0,-0.038 c 0,-1.501 1.083,-2.812 2.678,-2.812 1.653,0 2.641,1.273 2.641,2.774 L 0,0 Z m -2.679,-5.301 c -3.153,0 -5.49,2.338 -5.49,5.263 l 0,0.038 c 0,2.926 2.356,5.301 5.528,5.301 3.154,0 5.491,-2.338 5.491,-5.263 L 2.85,0 c 0,-2.926 -2.356,-5.301 -5.529,-5.301"
         style="fill:#6c6d70;fill-opacity:1;fill-rule:nonzero;stroke:none"
         id="path3614"
         inkscape:connector-curvature="0" /></g><g
       id="g3616"
       transform="translate(942.2812,266.1035)"><path
         d="m 0,0 0,1.443 c -0.665,-0.854 -1.521,-1.632 -2.983,-1.632 -2.185,0 -3.457,1.443 -3.457,3.779 l 0,6.593 2.887,0 0,-5.681 c 0,-1.367 0.646,-2.07 1.748,-2.07 1.102,0 1.805,0.703 1.805,2.07 l 0,5.681 2.887,0 L 2.887,0 0,0 Z"
         style="fill:#6c6d70;fill-opacity:1;fill-rule:nonzero;stroke:none"
         id="path3618"
         inkscape:connector-curvature="0" /></g><g
       id="g3620"
       transform="translate(953.7383,273.4551)"><path
         d="m 0,0 c -1.919,0 -3.097,-1.158 -3.097,-3.59 l 0,-3.762 -2.887,0 0,10.183 2.887,0 0,-2.052 c 0.589,1.407 1.538,2.318 3.248,2.242 L 0.151,0 0,0 Z"
         style="fill:#6c6d70;fill-opacity:1;fill-rule:nonzero;stroke:none"
         id="path3622"
         inkscape:connector-curvature="0" /></g><g
       id="g3624"
       transform="translate(967.5693,275.9824)"><path
         d="m 0,0 -1.767,-4.312 3.534,0 L 0,0 Z m 4.027,-9.879 -1.215,2.983 -5.624,0 -1.215,-2.983 -2.983,0 5.699,13.393 2.698,0 5.699,-13.393 -3.059,0 z"
         style="fill:#6c6d70;fill-opacity:1;fill-rule:nonzero;stroke:none"
         id="path3626"
         inkscape:connector-curvature="0" /></g><g
       id="g3628"
       transform="translate(980.7363,265.875)"><path
         d="m 0,0 c -3.059,0 -5.3,2.356 -5.3,5.263 l 0,0.038 c 0,2.906 2.223,5.301 5.338,5.301 1.919,0 3.116,-0.647 4.066,-1.711 L 2.337,6.992 C 1.691,7.676 1.045,8.112 0.02,8.112 -1.425,8.112 -2.45,6.84 -2.45,5.339 l 0,-0.038 c 0,-1.558 1.007,-2.812 2.584,-2.812 0.969,0 1.634,0.418 2.336,1.083 L 4.161,1.862 C 3.173,0.779 2.033,0 0,0"
         style="fill:#6c6d70;fill-opacity:1;fill-rule:nonzero;stroke:none"
         id="path3630"
         inkscape:connector-curvature="0" /></g><g
       id="g3632"
       transform="translate(990.2187,265.9326)"><path
         d="m 0,0 c -1.767,0 -2.964,0.702 -2.964,3.059 l 0,4.825 -1.216,0 0,2.47 1.216,0 0,2.602 2.888,0 0,-2.602 2.393,0 0,-2.47 -2.393,0 0,-4.351 c 0,-0.665 0.285,-0.987 0.93,-0.987 0.533,0 1.007,0.133 1.425,0.36 l 0,-2.317 C 1.672,0.228 0.969,0 0,0"
         style="fill:#6c6d70;fill-opacity:1;fill-rule:nonzero;stroke:none"
         id="path3634"
         inkscape:connector-curvature="0" /></g><path
       d="m 994.798,276.286 2.888,0 0,-10.183 -2.888,0 0,10.183 z m -0.076,3.686 3.04,0 0,-2.565 -3.04,0 0,2.565 z"
       style="fill:#6c6d70;fill-opacity:1;fill-rule:nonzero;stroke:none"
       id="path3636"
       inkscape:connector-curvature="0" /><g
       id="g3638"
       transform="translate(1006.1201,266.0273)"><path
         d="m 0,0 -2.621,0 -4.009,10.259 3.059,0 2.279,-6.821 2.299,6.821 3.002,0 L 0,0 Z"
         style="fill:#6c6d70;fill-opacity:1;fill-rule:nonzero;stroke:none"
         id="path3640"
         inkscape:connector-curvature="0" /></g><path
       d="m 1011.936,276.286 2.888,0 0,-10.183 -2.888,0 0,10.183 z m -0.077,3.686 3.04,0 0,-2.565 -3.04,0 0,2.565 z"
       style="fill:#6c6d70;fill-opacity:1;fill-rule:nonzero;stroke:none"
       id="path3642"
       inkscape:connector-curvature="0" /><g
       id="g3644"
       transform="translate(1020.9785,265.9326)"><path
         d="m 0,0 c -1.767,0 -2.964,0.702 -2.964,3.059 l 0,4.825 -1.216,0 0,2.47 1.216,0 0,2.602 2.888,0 0,-2.602 2.393,0 0,-2.47 -2.393,0 0,-4.351 c 0,-0.665 0.285,-0.987 0.93,-0.987 0.533,0 1.007,0.133 1.425,0.36 l 0,-2.317 C 1.672,0.228 0.969,0 0,0"
         style="fill:#6c6d70;fill-opacity:1;fill-rule:nonzero;stroke:none"
         id="path3646"
         inkscape:connector-curvature="0" /></g><path
       d="m 1025.558,276.286 2.888,0 0,-10.183 -2.888,0 0,10.183 z m -0.077,3.686 3.04,0 0,-2.565 -3.04,0 0,2.565 z"
       style="fill:#6c6d70;fill-opacity:1;fill-rule:nonzero;stroke:none"
       id="path3648"
       inkscape:connector-curvature="0" /><g
       id="g3650"
       transform="translate(1035.7031,274.1582)"><path
         d="m 0,0 c -1.196,0 -1.976,-0.855 -2.203,-2.166 l 4.349,0 C 1.976,-0.873 1.216,0 0,0 m 4.92,-3.971 -7.086,0 c 0.285,-1.31 1.197,-1.994 2.489,-1.994 0.969,0 1.672,0.304 2.47,1.045 l 1.652,-1.463 c -0.95,-1.178 -2.317,-1.9 -4.16,-1.9 -3.058,0 -5.319,2.147 -5.319,5.262 l 0,0.039 c 0,2.906 2.07,5.3 5.034,5.3 3.4,0 4.958,-2.64 4.958,-5.529 l 0,-0.037 c 0,-0.285 -0.019,-0.456 -0.038,-0.723"
         style="fill:#6c6d70;fill-opacity:1;fill-rule:nonzero;stroke:none"
         id="path3652"
         inkscape:connector-curvature="0" /></g><g
       id="g3654"
       transform="translate(1046.3809,265.9141)"><path
         d="m 0,0 c -1.425,0 -3.021,0.475 -4.369,1.538 l 1.234,1.9 c 1.103,-0.797 2.261,-1.215 3.211,-1.215 0.836,0 1.216,0.302 1.216,0.759 l 0,0.038 c 0,0.626 -0.988,0.835 -2.108,1.177 -1.425,0.418 -3.04,1.084 -3.04,3.059 l 0,0.039 c 0,2.07 1.671,3.228 3.723,3.228 1.292,0 2.697,-0.436 3.799,-1.177 L 2.564,7.352 C 1.558,7.94 0.551,8.301 -0.19,8.301 c -0.703,0 -1.064,-0.304 -1.064,-0.703 l 0,-0.037 c 0,-0.571 0.969,-0.836 2.07,-1.216 C 2.241,5.869 3.895,5.186 3.895,3.324 l 0,-0.038 C 3.895,1.025 2.204,0 0,0"
         style="fill:#6c6d70;fill-opacity:1;fill-rule:nonzero;stroke:none"
         id="path3656"
         inkscape:connector-curvature="0" /></g><g
       id="g3658"
       transform="translate(812.8115,457.4229)"><path
         d="M 0,0 C 0,71.799 58.199,130 130,130 201.799,130 260,71.799 260,0 260,-71.801 201.799,-130 130,-130 58.199,-130 0,-71.801 0,0 Z"
         style="fill:none;stroke:#bcbec0;stroke-width:1;stroke-linecap:round;stroke-linejoin:round;stroke-miterlimit:4;stroke-dasharray:6.006, 6.006;stroke-dashoffset:0;stroke-opacity:1"
         id="path3660"
         inkscape:connector-curvature="0" /></g><g
       id="g3662"
       transform="translate(943.6309,327.4229)"><path
         d="m 0,0 c -71.801,0 -130,58.199 -130,130 0,71.799 58.199,130 130,130"
         style="fill:none;stroke:#f6af2f;stroke-width:2;stroke-linecap:round;stroke-linejoin:round;stroke-miterlimit:10;stroke-dasharray:none;stroke-opacity:1"
         id="path3664"
         inkscape:connector-curvature="0" /></g><g
       id="g3666"
       transform="translate(927.666,481.5869)"><path
         d="m 0,0 0,-11.854 c 0,-1.12 -0.18,-1.303 -1.305,-1.303 l -11.839,0 L 0,0 Z m -12.791,-39.142 27.555,0 c 1.715,0 1.99,0.282 1.99,2.016 l 0,36.759 c 0,1.733 -0.275,2.013 -1.99,2.013 l -16.015,0 -13.534,-13.726 0,-25.046 c 0,-1.734 0.275,-2.016 1.994,-2.016"
         style="fill:#6c6d70;fill-opacity:1;fill-rule:evenodd;stroke:none"
         id="path3668"
         inkscape:connector-curvature="0" /></g><g
       id="g3670"
       transform="translate(965.791,469.5381)"><path
         d="m 0,0 -5.428,0 4.809,-4.81 -6.424,0 0,-3.953 6.423,0 -4.808,-4.809 5.427,0 6.785,6.787 L 0,0 Z"
         style="fill:#6c6d70;fill-opacity:1;fill-rule:evenodd;stroke:none"
         id="path3672"
         inkscape:connector-curvature="0" /></g><g
       id="g3674"
       transform="translate(946.2275,587.332)"><path
         d="M 0,0 C 0,-1.934 -1.567,-3.501 -3.501,-3.501 -5.433,-3.501 -7,-1.934 -7,0 -7,1.933 -5.433,3.499 -3.501,3.499 -1.567,3.499 0,1.933 0,0"
         style="fill:#f6af2f;fill-opacity:1;fill-rule:evenodd;stroke:none"
         id="path3676"
         inkscape:connector-curvature="0" /></g></g></svg>