<?xml version="1.0" encoding="UTF-8" standalone="no"?>
<!-- Created with Inkscape (http://www.inkscape.org/) -->

<svg
   xmlns:dc="http://purl.org/dc/elements/1.1/"
   xmlns:cc="http://creativecommons.org/ns#"
   xmlns:rdf="http://www.w3.org/1999/02/22-rdf-syntax-ns#"
   xmlns:svg="http://www.w3.org/2000/svg"
   xmlns="http://www.w3.org/2000/svg"
   xmlns:sodipodi="http://sodipodi.sourceforge.net/DTD/sodipodi-0.dtd"
   xmlns:inkscape="http://www.inkscape.org/namespaces/inkscape"
   id="svg3336"
   version="1.1"
   inkscape:version="0.91 r13725"
   xml:space="preserve"
   width="326.875"
   height="430.509"
   viewBox="0 0 326.87499 430.50898"
   sodipodi:docname="bigicon_collections.svg"><metadata
     id="metadata3342"><rdf:RDF><cc:Work
         rdf:about=""><dc:format>image/svg+xml</dc:format><dc:type
           rdf:resource="http://purl.org/dc/dcmitype/StillImage" /><dc:title></dc:title></cc:Work></rdf:RDF></metadata><defs
     id="defs3340"><clipPath
       clipPathUnits="userSpaceOnUse"
       id="clipPath3352"><path
         d="m 0,841.89 1262.016,0 0,-841.89 L 0,0 0,841.89 Z"
         id="path3354"
         inkscape:connector-curvature="0" /></clipPath></defs><sodipodi:namedview
     pagecolor="#ffffff"
     bordercolor="#666666"
     borderopacity="1"
     objecttolerance="10"
     gridtolerance="10"
     guidetolerance="10"
     inkscape:pageopacity="0"
     inkscape:pageshadow="2"
     inkscape:window-width="1439"
     inkscape:window-height="852"
     id="namedview3338"
     showgrid="false"
     inkscape:zoom="1.2"
     inkscape:cx="684.83554"
     inkscape:cy="203.50093"
     inkscape:window-x="0"
     inkscape:window-y="0"
     inkscape:window-maximized="0"
     inkscape:current-layer="g3344"
     fit-margin-top="0"
     fit-margin-left="0"
     fit-margin-right="0"
     fit-margin-bottom="0" /><g
     id="g3344"
     inkscape:groupmode="layer"
     inkscape:label="novos_icons_astroedu"
     transform="matrix(1.25,0,0,-1.25,-164.342,738.53875)"><g
       id="g3356"
       transform="translate(135.9736,287.1738)"><path
         d="m 0,0 c 0,6.77 5.48,12.25 12.25,12.25 l 228.5,0 C 247.52,12.25 253,6.77 253,0 l 0,-28.5 c 0,-6.77 -5.48,-12.25 -12.25,-12.25 l -228.5,0 C 5.48,-40.75 0,-35.27 0,-28.5 L 0,0 Z"
         style="fill:#f6af2f;fill-opacity:1;fill-rule:evenodd;stroke:none"
         id="path3358"
         inkscape:connector-curvature="0" /></g><g
       id="g3360"
       transform="translate(167.498,460.001)"><path
         d="m 0,0 c 0,52.457 42.519,94.976 94.976,94.976 52.457,0 94.975,-42.519 94.975,-94.976 0,-52.457 -42.518,-94.976 -94.975,-94.976 C 42.519,-94.976 0,-52.457 0,0"
         style="fill:#f6af2f;fill-opacity:1;fill-rule:evenodd;stroke:none"
         id="path3362"
         inkscape:connector-curvature="0" /></g><path
       d="m 307.99,431.188 -91.041,0 0,63.711 91.041,0 0,-63.711 z m 3.449,71.012 -3.449,0 -14.521,0 -5.969,0 -7.26,0 -66.73,0 c -1.77,0 -3.211,-1.471 -3.211,-3.301 l 0,-71.711 c 0,-1.818 1.441,-3.298 3.211,-3.298 l 33,0 0,-3.56 -9.67,0 0,-2.529 51.269,0 0,2.529 -9.67,0 0,3.56 33,0 c 1.77,0 3.209,1.48 3.209,3.298 l 0,71.711 c 0,1.83 -1.439,3.301 -3.209,3.301"
       style="fill:#6c6d70;fill-opacity:1;fill-rule:evenodd;stroke:none"
       id="path3364"
       inkscape:connector-curvature="0" /><g
       id="g3366"
       transform="translate(223.8604,474.9199)"><path
         d="m 0,0 20.851,0 0,11.104 0.066,0 0,2.781 -10.084,0 c -1.167,0 -2.104,-1.04 -2.104,-2.317 l 0,-0.272 L 0,11.296 0,0 Z"
         style="fill:#6c6d70;fill-opacity:1;fill-rule:evenodd;stroke:none"
         id="path3368"
         inkscape:connector-curvature="0" /></g><g
       id="g3370"
       transform="translate(223.8604,455.5322)"><path
         d="m 0,0 20.851,0 0,11.104 0.066,0 0,2.793 -10.084,0 c -1.167,0 -2.104,-1.04 -2.104,-2.329 l 0,-0.261 L 0,11.307 0,0 Z"
         style="fill:#6c6d70;fill-opacity:1;fill-rule:evenodd;stroke:none"
         id="path3372"
         inkscape:connector-curvature="0" /></g><g
       id="g3374"
       transform="translate(223.8604,436.1504)"><path
         d="m 0,0 20.851,0 0,11.104 0.066,0 0,2.79 -10.084,0 c -1.167,0 -2.104,-1.04 -2.104,-2.326 l 0,-0.261 L 0,11.307 0,0 Z"
         style="fill:#6c6d70;fill-opacity:1;fill-rule:evenodd;stroke:none"
         id="path3376"
         inkscape:connector-curvature="0" /></g><g
       id="g3378"
       transform="translate(252.0156,474.9199)"><path
         d="m 0,0 20.85,0 0,11.104 0.066,0 0,2.781 -10.084,0 c -1.166,0 -2.103,-1.04 -2.103,-2.317 l 0,-0.272 L 0,11.296 0,0 Z"
         style="fill:#6c6d70;fill-opacity:1;fill-rule:evenodd;stroke:none"
         id="path3380"
         inkscape:connector-curvature="0" /></g><g
       id="g3382"
       transform="translate(252.0156,455.5322)"><path
         d="m 0,0 20.85,0 0,11.104 0.066,0 0,2.793 -10.084,0 c -1.166,0 -2.103,-1.04 -2.103,-2.329 l 0,-0.261 L 0,11.307 0,0 Z"
         style="fill:#6c6d70;fill-opacity:1;fill-rule:evenodd;stroke:none"
         id="path3384"
         inkscape:connector-curvature="0" /></g><g
       id="g3386"
       transform="translate(252.0156,436.1504)"><path
         d="m 0,0 20.85,0 0,11.104 0.066,0 0,2.79 -10.084,0 c -1.166,0 -2.103,-1.04 -2.103,-2.326 l 0,-0.261 L 0,11.307 0,0 Z"
         style="fill:#6c6d70;fill-opacity:1;fill-rule:evenodd;stroke:none"
         id="path3388"
         inkscape:connector-curvature="0" /></g><g
       id="g3390"
       transform="translate(280.1699,474.9199)"><path
         d="m 0,0 20.851,0 0,11.104 0.066,0 0,2.781 -10.084,0 c -1.167,0 -2.104,-1.04 -2.104,-2.317 l 0,-0.272 L 0,11.296 0,0 Z"
         style="fill:#6c6d70;fill-opacity:1;fill-rule:evenodd;stroke:none"
         id="path3392"
         inkscape:connector-curvature="0" /></g><g
       id="g3394"
       transform="translate(280.1699,455.5322)"><path
         d="m 0,0 20.851,0 0,11.104 0.066,0 0,2.793 -10.084,0 c -1.167,0 -2.104,-1.04 -2.104,-2.329 l 0,-0.261 L 0,11.307 0,0 Z"
         style="fill:#6c6d70;fill-opacity:1;fill-rule:evenodd;stroke:none"
         id="path3396"
         inkscape:connector-curvature="0" /></g><g
       id="g3398"
       transform="translate(280.1699,436.1504)"><path
         d="m 0,0 20.851,0 0,11.104 0.066,0 0,2.79 -10.084,0 c -1.167,0 -2.104,-1.04 -2.104,-2.326 l 0,-0.261 L 0,11.307 0,0 Z"
         style="fill:#6c6d70;fill-opacity:1;fill-rule:evenodd;stroke:none"
         id="path3400"
         inkscape:connector-curvature="0" /></g><g
       id="g3402"
       transform="translate(175.3589,276.3711)"><path
         d="m 0,0 -1.767,-4.312 3.534,0 L 0,0 Z m 4.027,-9.879 -1.215,2.983 -5.624,0 -1.215,-2.983 -2.983,0 5.699,13.393 2.698,0 5.699,-13.393 -3.059,0 z"
         style="fill:#6c6d70;fill-opacity:1;fill-rule:nonzero;stroke:none"
         id="path3404"
         inkscape:connector-curvature="0" /></g><g
       id="g3406"
       transform="translate(188.5259,266.2646)"><path
         d="m 0,0 c -3.059,0 -5.3,2.355 -5.3,5.262 l 0,0.038 c 0,2.906 2.223,5.3 5.338,5.3 1.919,0 3.116,-0.646 4.066,-1.709 L 2.337,6.99 C 1.691,7.675 1.045,8.111 0.02,8.111 c -1.445,0 -2.47,-1.272 -2.47,-2.773 l 0,-0.038 c 0,-1.558 1.007,-2.812 2.584,-2.812 0.969,0 1.634,0.418 2.336,1.083 L 4.161,1.861 C 3.173,0.778 2.033,0 0,0"
         style="fill:#6c6d70;fill-opacity:1;fill-rule:nonzero;stroke:none"
         id="path3408"
         inkscape:connector-curvature="0" /></g><g
       id="g3410"
       transform="translate(198.0073,266.3213)"><path
         d="m 0,0 c -1.767,0 -2.964,0.703 -2.964,3.059 l 0,4.825 -1.216,0 0,2.47 1.216,0 0,2.602 2.888,0 0,-2.602 2.393,0 0,-2.47 -2.393,0 0,-4.351 c 0,-0.665 0.285,-0.987 0.93,-0.987 0.533,0 1.007,0.133 1.425,0.36 l 0,-2.317 C 1.672,0.228 0.969,0 0,0"
         style="fill:#6c6d70;fill-opacity:1;fill-rule:nonzero;stroke:none"
         id="path3412"
         inkscape:connector-curvature="0" /></g><path
       d="m 202.586,276.675 2.888,0 0,-10.183 -2.888,0 0,10.183 z m -0.076,3.685 3.04,0 0,-2.564 -3.04,0 0,2.564 z"
       style="fill:#6c6d70;fill-opacity:1;fill-rule:nonzero;stroke:none"
       id="path3414"
       inkscape:connector-curvature="0" /><g
       id="g3416"
       transform="translate(213.9097,266.416)"><path
         d="m 0,0 -2.621,0 -4.009,10.259 3.059,0 2.279,-6.821 2.299,6.821 3.002,0 L 0,0 Z"
         style="fill:#6c6d70;fill-opacity:1;fill-rule:nonzero;stroke:none"
         id="path3418"
         inkscape:connector-curvature="0" /></g><path
       d="m 219.724,276.675 2.888,0 0,-10.183 -2.888,0 0,10.183 z m -0.076,3.685 3.04,0 0,-2.564 -3.04,0 0,2.564 z"
       style="fill:#6c6d70;fill-opacity:1;fill-rule:nonzero;stroke:none"
       id="path3420"
       inkscape:connector-curvature="0" /><g
       id="g3422"
       transform="translate(228.7681,266.3213)"><path
         d="m 0,0 c -1.767,0 -2.964,0.703 -2.964,3.059 l 0,4.825 -1.216,0 0,2.47 1.216,0 0,2.602 2.888,0 0,-2.602 2.393,0 0,-2.47 -2.393,0 0,-4.351 c 0,-0.665 0.285,-0.987 0.93,-0.987 0.533,0 1.007,0.133 1.425,0.36 l 0,-2.317 C 1.672,0.228 0.969,0 0,0"
         style="fill:#6c6d70;fill-opacity:1;fill-rule:nonzero;stroke:none"
         id="path3424"
         inkscape:connector-curvature="0" /></g><g
       id="g3426"
       transform="translate(238.9897,266.2451)"><path
         d="m 0,0 c -0.779,-2.07 -1.615,-2.85 -3.344,-2.85 -1.045,0 -1.824,0.266 -2.564,0.704 l 0.969,2.089 c 0.379,-0.228 0.854,-0.399 1.234,-0.399 0.494,0 0.76,0.152 1.007,0.665 l -3.989,10.221 3.058,0 2.317,-6.935 2.223,6.935 3.002,0 L 0,0 Z"
         style="fill:#6c6d70;fill-opacity:1;fill-rule:nonzero;stroke:none"
         id="path3428"
         inkscape:connector-curvature="0" /></g><g
       id="g3430"
       transform="translate(256.8491,266.2646)"><path
         d="m 0,0 c -3.914,0 -6.82,3.021 -6.82,6.839 l 0,0.038 c 0,3.78 2.849,6.877 6.933,6.877 2.508,0 4.009,-0.836 5.243,-2.052 L 3.495,9.555 c -1.025,0.931 -2.07,1.501 -3.4,1.501 -2.242,0 -3.857,-1.862 -3.857,-4.141 l 0,-0.038 c 0,-2.28 1.577,-4.18 3.857,-4.18 1.519,0 2.45,0.608 3.495,1.558 L 5.452,2.374 C 4.084,0.911 2.564,0 0,0"
         style="fill:#6c6d70;fill-opacity:1;fill-rule:nonzero;stroke:none"
         id="path3432"
         inkscape:connector-curvature="0" /></g><g
       id="g3434"
       transform="translate(271.8208,271.5645)"><path
         d="m 0,0 c 0,1.501 -1.083,2.812 -2.679,2.812 -1.652,0 -2.64,-1.273 -2.64,-2.774 l 0,-0.038 c 0,-1.501 1.083,-2.812 2.678,-2.812 1.653,0 2.641,1.273 2.641,2.774 L 0,0 Z m -2.679,-5.3 c -3.153,0 -5.49,2.336 -5.49,5.262 l 0,0.038 c 0,2.926 2.356,5.3 5.528,5.3 C 0.513,5.3 2.85,2.964 2.85,0.038 L 2.85,0 c 0,-2.926 -2.356,-5.3 -5.529,-5.3"
         style="fill:#6c6d70;fill-opacity:1;fill-rule:nonzero;stroke:none"
         id="path3436"
         inkscape:connector-curvature="0" /></g><path
       d="m 276.894,280.36 2.888,0 0,-13.868 -2.888,0 0,13.868 z"
       style="fill:#6c6d70;fill-opacity:1;fill-rule:nonzero;stroke:none"
       id="path3438"
       inkscape:connector-curvature="0" /><path
       d="m 282.632,280.36 2.888,0 0,-13.868 -2.888,0 0,13.868 z"
       style="fill:#6c6d70;fill-opacity:1;fill-rule:nonzero;stroke:none"
       id="path3440"
       inkscape:connector-curvature="0" /><g
       id="g3442"
       transform="translate(292.7769,274.5469)"><path
         d="m 0,0 c -1.196,0 -1.976,-0.854 -2.203,-2.166 l 4.349,0 C 1.976,-0.874 1.216,0 0,0 m 4.92,-3.971 -7.086,0 c 0.285,-1.31 1.197,-1.994 2.489,-1.994 0.969,0 1.672,0.304 2.47,1.045 l 1.652,-1.463 c -0.95,-1.178 -2.317,-1.899 -4.16,-1.899 -3.058,0 -5.319,2.146 -5.319,5.261 l 0,0.039 c 0,2.906 2.07,5.299 5.034,5.299 3.4,0 4.958,-2.64 4.958,-5.527 l 0,-0.038 c 0,-0.285 -0.019,-0.456 -0.038,-0.723"
         style="fill:#6c6d70;fill-opacity:1;fill-rule:nonzero;stroke:none"
         id="path3444"
         inkscape:connector-curvature="0" /></g><g
       id="g3446"
       transform="translate(304.689,266.2646)"><path
         d="m 0,0 c -3.058,0 -5.3,2.355 -5.3,5.262 l 0,0.038 c 0,2.906 2.223,5.3 5.338,5.3 1.919,0 3.116,-0.646 4.066,-1.709 L 2.337,6.99 C 1.691,7.675 1.045,8.111 0.02,8.111 c -1.445,0 -2.47,-1.272 -2.47,-2.773 l 0,-0.038 c 0,-1.558 1.007,-2.812 2.584,-2.812 0.969,0 1.634,0.418 2.336,1.083 L 4.161,1.861 C 3.173,0.778 2.033,0 0,0"
         style="fill:#6c6d70;fill-opacity:1;fill-rule:nonzero;stroke:none"
         id="path3448"
         inkscape:connector-curvature="0" /></g><g
       id="g3450"
       transform="translate(314.1714,266.3213)"><path
         d="m 0,0 c -1.767,0 -2.964,0.703 -2.964,3.059 l 0,4.825 -1.216,0 0,2.47 1.216,0 0,2.602 2.888,0 0,-2.602 2.393,0 0,-2.47 -2.393,0 0,-4.351 c 0,-0.665 0.285,-0.987 0.93,-0.987 0.533,0 1.007,0.133 1.425,0.36 l 0,-2.317 C 1.672,0.228 0.969,0 0,0"
         style="fill:#6c6d70;fill-opacity:1;fill-rule:nonzero;stroke:none"
         id="path3452"
         inkscape:connector-curvature="0" /></g><path
       d="m 318.75,276.675 2.888,0 0,-10.183 -2.888,0 0,10.183 z m -0.076,3.685 3.04,0 0,-2.564 -3.04,0 0,2.564 z"
       style="fill:#6c6d70;fill-opacity:1;fill-rule:nonzero;stroke:none"
       id="path3454"
       inkscape:connector-curvature="0" /><g
       id="g3456"
       transform="translate(332.0298,271.5645)"><path
         d="m 0,0 c 0,1.501 -1.083,2.812 -2.679,2.812 -1.652,0 -2.64,-1.273 -2.64,-2.774 l 0,-0.038 c 0,-1.501 1.083,-2.812 2.678,-2.812 1.653,0 2.641,1.273 2.641,2.774 L 0,0 Z m -2.679,-5.3 c -3.153,0 -5.49,2.336 -5.49,5.262 l 0,0.038 c 0,2.926 2.356,5.3 5.528,5.3 C 0.513,5.3 2.85,2.964 2.85,0.038 L 2.85,0 c 0,-2.926 -2.356,-5.3 -5.529,-5.3"
         style="fill:#6c6d70;fill-opacity:1;fill-rule:nonzero;stroke:none"
         id="path3458"
         inkscape:connector-curvature="0" /></g><g
       id="g3460"
       transform="translate(343.4106,266.4922)"><path
         d="m 0,0 0,5.68 c 0,1.368 -0.646,2.071 -1.747,2.071 -1.103,0 -1.805,-0.703 -1.805,-2.071 l 0,-5.68 -2.887,0 0,10.183 2.887,0 0,-1.445 c 0.665,0.856 1.52,1.634 2.983,1.634 2.184,0 3.457,-1.443 3.457,-3.78 L 2.888,0 0,0 Z"
         style="fill:#6c6d70;fill-opacity:1;fill-rule:nonzero;stroke:none"
         id="path3462"
         inkscape:connector-curvature="0" /></g><g
       id="g3464"
       transform="translate(352.3794,266.3018)"><path
         d="m 0,0 c -1.425,0 -3.021,0.476 -4.369,1.539 l 1.234,1.899 c 1.103,-0.797 2.261,-1.215 3.211,-1.215 0.836,0 1.216,0.304 1.216,0.76 l 0,0.038 c 0,0.626 -0.988,0.835 -2.108,1.178 -1.425,0.418 -3.04,1.082 -3.04,3.059 l 0,0.037 c 0,2.071 1.671,3.229 3.723,3.229 1.292,0 2.697,-0.436 3.799,-1.177 L 2.564,7.353 C 1.558,7.941 0.551,8.302 -0.19,8.302 -0.893,8.302 -1.254,7.998 -1.254,7.6 l 0,-0.038 c 0,-0.571 0.969,-0.836 2.07,-1.216 C 2.241,5.87 3.895,5.187 3.895,3.325 l 0,-0.038 C 3.895,1.026 2.204,0 0,0"
         style="fill:#6c6d70;fill-opacity:1;fill-rule:nonzero;stroke:none"
         id="path3466"
         inkscape:connector-curvature="0" /></g><g
       id="g3468"
       transform="translate(132.4736,457.5869)"><path
         d="M 0,0 C 0,71.799 58.2,130 130,130 201.8,130 260,71.799 260,0 260,-71.801 201.8,-130 130,-130 58.2,-130 0,-71.801 0,0 Z"
         style="fill:none;stroke:#bcbec0;stroke-width:1;stroke-linecap:round;stroke-linejoin:round;stroke-miterlimit:4;stroke-dasharray:6.006, 6.006;stroke-dashoffset:0;stroke-opacity:1"
         id="path3470"
         inkscape:connector-curvature="0" /></g><g
       id="g3472"
       transform="translate(262.4736,327.5869)"><path
         d="m 0,0 c -71.8,0 -130,58.199 -130,130 0,71.799 58.2,130 130,130"
         style="fill:none;stroke:#f6af2f;stroke-width:2;stroke-linecap:round;stroke-linejoin:round;stroke-miterlimit:10;stroke-dasharray:none;stroke-opacity:1"
         id="path3474"
         inkscape:connector-curvature="0" /></g><g
       id="g3476"
       transform="translate(266.1943,587.332)"><path
         d="M 0,0 C 0,-1.934 -1.567,-3.501 -3.5,-3.501 -5.433,-3.501 -7,-1.934 -7,0 -7,1.933 -5.433,3.499 -3.5,3.499 -1.567,3.499 0,1.933 0,0"
         style="fill:#f6af2f;fill-opacity:1;fill-rule:evenodd;stroke:none"
         id="path3478"
         inkscape:connector-curvature="0" /></g></g></svg>