<?xml version="1.0" encoding="UTF-8" standalone="no"?>
<!-- Created with Inkscape (http://www.inkscape.org/) -->

<svg
   xmlns:dc="http://purl.org/dc/elements/1.1/"
   xmlns:cc="http://creativecommons.org/ns#"
   xmlns:rdf="http://www.w3.org/1999/02/22-rdf-syntax-ns#"
   xmlns:svg="http://www.w3.org/2000/svg"
   xmlns="http://www.w3.org/2000/svg"
   xmlns:sodipodi="http://sodipodi.sourceforge.net/DTD/sodipodi-0.dtd"
   xmlns:inkscape="http://www.inkscape.org/namespaces/inkscape"
   id="svg3336"
   version="1.1"
   inkscape:version="0.91 r13725"
   xml:space="preserve"
   width="326.875"
   height="430.509"
   viewBox="0 0 326.87499 430.50898"
   sodipodi:docname="bigicon_activities.svg"><metadata
     id="metadata3342"><rdf:RDF><cc:Work
         rdf:about=""><dc:format>image/svg+xml</dc:format><dc:type
           rdf:resource="http://purl.org/dc/dcmitype/StillImage" /><dc:title></dc:title></cc:Work></rdf:RDF></metadata><defs
     id="defs3340"><clipPath
       clipPathUnits="userSpaceOnUse"
       id="clipPath3352"><path
         d="m 0,841.89 1262.016,0 0,-841.89 L 0,0 0,841.89 Z"
         id="path3354"
         inkscape:connector-curvature="0" /></clipPath></defs><sodipodi:namedview
     pagecolor="#ffffff"
     bordercolor="#666666"
     borderopacity="1"
     objecttolerance="10"
     gridtolerance="10"
     guidetolerance="10"
     inkscape:pageopacity="0"
     inkscape:pageshadow="2"
     inkscape:window-width="1439"
     inkscape:window-height="852"
     id="namedview3338"
     showgrid="false"
     inkscape:zoom="1.2"
     inkscape:cx="282.77556"
     inkscape:cy="188.95803"
     inkscape:window-x="0"
     inkscape:window-y="0"
     inkscape:window-maximized="0"
     inkscape:current-layer="g3344"
     fit-margin-top="0"
     fit-margin-left="0"
     fit-margin-right="0"
     fit-margin-bottom="0" /><g
     id="g3344"
     inkscape:groupmode="layer"
     inkscape:label="novos_icons_astroedu"
     transform="matrix(1.25,0,0,-1.25,-585.60425,738.53875)"><g
       id="g3480"
       transform="translate(472.9834,287.1738)"><path
         d="m 0,0 c 0,6.77 5.48,12.25 12.25,12.25 l 228.5,0 C 247.52,12.25 253,6.77 253,0 l 0,-28.5 c 0,-6.77 -5.48,-12.25 -12.25,-12.25 l -228.5,0 C 5.48,-40.75 0,-35.27 0,-28.5 L 0,0 Z"
         style="fill:#f6af2f;fill-opacity:1;fill-rule:evenodd;stroke:none"
         id="path3482"
         inkscape:connector-curvature="0" /></g><g
       id="g3484"
       transform="translate(523.6631,266.3018)"><path
         d="m 0,0 c -2.014,0 -4.047,0.703 -5.643,2.128 l 1.73,2.071 c 1.196,-0.988 2.45,-1.615 3.97,-1.615 1.197,0 1.919,0.475 1.919,1.254 l 0,0.038 c 0,0.741 -0.456,1.121 -2.679,1.69 -2.679,0.685 -4.407,1.425 -4.407,4.066 l 0,0.038 c 0,2.413 1.937,4.009 4.654,4.009 1.937,0 3.591,-0.609 4.939,-1.692 L 2.964,9.784 c -1.179,0.817 -2.337,1.311 -3.458,1.311 -1.121,0 -1.71,-0.513 -1.71,-1.159 l 0,-0.038 c 0,-0.874 0.57,-1.159 2.869,-1.748 C 3.362,7.447 4.882,6.479 4.882,4.161 l 0,-0.038 C 4.882,1.482 2.868,0 0,0"
         style="fill:#6c6d70;fill-opacity:1;fill-rule:nonzero;stroke:none"
         id="path3486"
         inkscape:connector-curvature="0" /></g><g
       id="g3488"
       transform="translate(535.3291,274.5469)"><path
         d="m 0,0 c -1.196,0 -1.976,-0.854 -2.203,-2.166 l 4.349,0 C 1.976,-0.874 1.216,0 0,0 m 4.92,-3.971 -7.086,0 c 0.285,-1.31 1.197,-1.994 2.489,-1.994 0.969,0 1.672,0.304 2.47,1.045 l 1.652,-1.463 c -0.95,-1.178 -2.317,-1.899 -4.16,-1.899 -3.058,0 -5.319,2.146 -5.319,5.261 l 0,0.039 c 0,2.906 2.07,5.299 5.034,5.299 3.4,0 4.958,-2.64 4.958,-5.527 l 0,-0.038 c 0,-0.285 -0.019,-0.456 -0.038,-0.723"
         style="fill:#6c6d70;fill-opacity:1;fill-rule:nonzero;stroke:none"
         id="path3490"
         inkscape:connector-curvature="0" /></g><g
       id="g3492"
       transform="translate(546.9756,274.5469)"><path
         d="m 0,0 c -1.196,0 -1.976,-0.854 -2.203,-2.166 l 4.349,0 C 1.976,-0.874 1.216,0 0,0 m 4.92,-3.971 -7.086,0 c 0.285,-1.31 1.197,-1.994 2.489,-1.994 0.969,0 1.672,0.304 2.47,1.045 l 1.652,-1.463 c -0.95,-1.178 -2.317,-1.899 -4.16,-1.899 -3.058,0 -5.319,2.146 -5.319,5.261 l 0,0.039 c 0,2.906 2.07,5.299 5.034,5.299 3.4,0 4.958,-2.64 4.958,-5.527 l 0,-0.038 c 0,-0.285 -0.019,-0.456 -0.038,-0.723"
         style="fill:#6c6d70;fill-opacity:1;fill-rule:nonzero;stroke:none"
         id="path3494"
         inkscape:connector-curvature="0" /></g><g
       id="g3496"
       transform="translate(565.9561,276.3711)"><path
         d="m 0,0 -1.767,-4.312 3.534,0 L 0,0 Z m 4.027,-9.879 -1.215,2.983 -5.624,0 -1.215,-2.983 -2.983,0 5.699,13.393 2.698,0 5.699,-13.393 -3.059,0 z"
         style="fill:#6c6d70;fill-opacity:1;fill-rule:nonzero;stroke:none"
         id="path3498"
         inkscape:connector-curvature="0" /></g><path
       d="m 574.925,280.36 2.888,0 0,-13.868 -2.888,0 0,13.868 z"
       style="fill:#6c6d70;fill-opacity:1;fill-rule:nonzero;stroke:none"
       id="path3500"
       inkscape:connector-curvature="0" /><path
       d="m 580.663,280.36 2.888,0 0,-13.868 -2.888,0 0,13.868 z"
       style="fill:#6c6d70;fill-opacity:1;fill-rule:nonzero;stroke:none"
       id="path3502"
       inkscape:connector-curvature="0" /><g
       id="g3504"
       transform="translate(598.1416,276.3711)"><path
         d="m 0,0 -1.767,-4.312 3.534,0 L 0,0 Z m 4.027,-9.879 -1.215,2.983 -5.624,0 -1.215,-2.983 -2.983,0 5.699,13.393 2.698,0 5.699,-13.393 -3.059,0 z"
         style="fill:#6c6d70;fill-opacity:1;fill-rule:nonzero;stroke:none"
         id="path3506"
         inkscape:connector-curvature="0" /></g><g
       id="g3508"
       transform="translate(611.3086,266.2646)"><path
         d="m 0,0 c -3.059,0 -5.3,2.355 -5.3,5.262 l 0,0.038 c 0,2.906 2.223,5.3 5.338,5.3 1.919,0 3.116,-0.646 4.066,-1.709 L 2.337,6.99 C 1.691,7.675 1.045,8.111 0.02,8.111 c -1.445,0 -2.47,-1.272 -2.47,-2.773 l 0,-0.038 c 0,-1.558 1.007,-2.812 2.584,-2.812 0.969,0 1.634,0.418 2.336,1.083 L 4.161,1.861 C 3.173,0.778 2.033,0 0,0"
         style="fill:#6c6d70;fill-opacity:1;fill-rule:nonzero;stroke:none"
         id="path3510"
         inkscape:connector-curvature="0" /></g><g
       id="g3512"
       transform="translate(620.79,266.3213)"><path
         d="m 0,0 c -1.767,0 -2.964,0.703 -2.964,3.059 l 0,4.825 -1.216,0 0,2.47 1.216,0 0,2.602 2.888,0 0,-2.602 2.393,0 0,-2.47 -2.393,0 0,-4.351 c 0,-0.665 0.285,-0.987 0.93,-0.987 0.533,0 1.007,0.133 1.425,0.36 l 0,-2.317 C 1.672,0.228 0.969,0 0,0"
         style="fill:#6c6d70;fill-opacity:1;fill-rule:nonzero;stroke:none"
         id="path3514"
         inkscape:connector-curvature="0" /></g><path
       d="m 625.369,276.675 2.888,0 0,-10.183 -2.888,0 0,10.183 z m -0.076,3.685 3.04,0 0,-2.564 -3.04,0 0,2.564 z"
       style="fill:#6c6d70;fill-opacity:1;fill-rule:nonzero;stroke:none"
       id="path3516"
       inkscape:connector-curvature="0" /><g
       id="g3518"
       transform="translate(636.6914,266.416)"><path
         d="m 0,0 -2.621,0 -4.009,10.259 3.059,0 2.279,-6.821 2.299,6.821 3.002,0 L 0,0 Z"
         style="fill:#6c6d70;fill-opacity:1;fill-rule:nonzero;stroke:none"
         id="path3520"
         inkscape:connector-curvature="0" /></g><path
       d="m 642.507,276.675 2.888,0 0,-10.183 -2.888,0 0,10.183 z m -0.076,3.685 3.04,0 0,-2.564 -3.04,0 0,2.564 z"
       style="fill:#6c6d70;fill-opacity:1;fill-rule:nonzero;stroke:none"
       id="path3522"
       inkscape:connector-curvature="0" /><g
       id="g3524"
       transform="translate(651.5498,266.3213)"><path
         d="m 0,0 c -1.767,0 -2.964,0.703 -2.964,3.059 l 0,4.825 -1.216,0 0,2.47 1.216,0 0,2.602 2.888,0 0,-2.602 2.393,0 0,-2.47 -2.393,0 0,-4.351 c 0,-0.665 0.285,-0.987 0.93,-0.987 0.533,0 1.007,0.133 1.425,0.36 l 0,-2.317 C 1.672,0.228 0.969,0 0,0"
         style="fill:#6c6d70;fill-opacity:1;fill-rule:nonzero;stroke:none"
         id="path3526"
         inkscape:connector-curvature="0" /></g><path
       d="m 656.129,276.675 2.888,0 0,-10.183 -2.888,0 0,10.183 z m -0.076,3.685 3.04,0 0,-2.564 -3.04,0 0,2.564 z"
       style="fill:#6c6d70;fill-opacity:1;fill-rule:nonzero;stroke:none"
       id="path3528"
       inkscape:connector-curvature="0" /><g
       id="g3530"
       transform="translate(666.2744,274.5469)"><path
         d="m 0,0 c -1.196,0 -1.976,-0.854 -2.203,-2.166 l 4.349,0 C 1.976,-0.874 1.216,0 0,0 m 4.92,-3.971 -7.086,0 c 0.285,-1.31 1.197,-1.994 2.489,-1.994 0.969,0 1.672,0.304 2.47,1.045 l 1.652,-1.463 c -0.95,-1.178 -2.317,-1.899 -4.16,-1.899 -3.058,0 -5.319,2.146 -5.319,5.261 l 0,0.039 c 0,2.906 2.07,5.299 5.034,5.299 3.4,0 4.958,-2.64 4.958,-5.527 l 0,-0.038 c 0,-0.285 -0.019,-0.456 -0.038,-0.723"
         style="fill:#6c6d70;fill-opacity:1;fill-rule:nonzero;stroke:none"
         id="path3532"
         inkscape:connector-curvature="0" /></g><g
       id="g3534"
       transform="translate(676.9521,266.3018)"><path
         d="m 0,0 c -1.425,0 -3.021,0.476 -4.369,1.539 l 1.234,1.899 c 1.103,-0.797 2.261,-1.215 3.211,-1.215 0.836,0 1.216,0.304 1.216,0.76 l 0,0.038 c 0,0.626 -0.988,0.835 -2.108,1.178 -1.425,0.418 -3.04,1.082 -3.04,3.059 l 0,0.037 c 0,2.071 1.671,3.229 3.723,3.229 1.292,0 2.697,-0.436 3.799,-1.177 L 2.564,7.353 C 1.558,7.941 0.551,8.302 -0.19,8.302 -0.893,8.302 -1.254,7.998 -1.254,7.6 l 0,-0.038 c 0,-0.571 0.969,-0.836 2.07,-1.216 C 2.241,5.87 3.895,5.187 3.895,3.325 l 0,-0.038 C 3.895,1.026 2.204,0 0,0"
         style="fill:#6c6d70;fill-opacity:1;fill-rule:nonzero;stroke:none"
         id="path3536"
         inkscape:connector-curvature="0" /></g><g
       id="g3538"
       transform="translate(469.4834,457.5869)"><path
         d="M 0,0 C 0,71.799 58.199,130 130,130 201.799,130 260,71.799 260,0 260,-71.801 201.799,-130 130,-130 58.199,-130 0,-71.801 0,0 Z"
         style="fill:none;stroke:#bcbec0;stroke-width:1;stroke-linecap:round;stroke-linejoin:round;stroke-miterlimit:4;stroke-dasharray:6.006, 6.006;stroke-dashoffset:0;stroke-opacity:1"
         id="path3540"
         inkscape:connector-curvature="0" /></g><g
       id="g3542"
       transform="translate(599.4834,327.5869)"><path
         d="m 0,0 c -71.801,0 -130,58.199 -130,130 0,71.799 58.199,130 130,130"
         style="fill:none;stroke:#f6af2f;stroke-width:2;stroke-linecap:round;stroke-linejoin:round;stroke-miterlimit:10;stroke-dasharray:none;stroke-opacity:1"
         id="path3544"
         inkscape:connector-curvature="0" /></g><g
       id="g3546"
       transform="translate(504.5068,460.001)"><path
         d="m 0,0 c 0,52.457 42.52,94.976 94.977,94.976 52.457,0 94.974,-42.519 94.974,-94.976 0,-52.457 -42.517,-94.976 -94.974,-94.976 C 42.52,-94.976 0,-52.457 0,0"
         style="fill:#f6af2f;fill-opacity:1;fill-rule:evenodd;stroke:none"
         id="path3548"
         inkscape:connector-curvature="0" /></g><g
       id="g3554"
       transform="translate(571.7354,452.417)"><path
         d="m 0,0 c 0,-0.634 -0.102,-0.737 -0.738,-0.737 l -6.698,0 L 0,6.706 0,0 Z m -8.365,-0.128 0,-14.172 c 0,-0.981 0.156,-1.139 1.129,-1.139 l 15.59,0 c 0.97,0 1.125,0.158 1.125,1.139 l 0,20.798 c 0,0.981 -0.155,1.14 -1.125,1.14 l -9.061,0 -7.658,-7.766 z"
         style="fill:#6c6d70;fill-opacity:1;fill-rule:evenodd;stroke:none"
         id="path3556"
         inkscape:connector-curvature="0" /></g><g
       id="g3558"
       transform="translate(571.7354,481.167)"><path
         d="m 0,0 c 0,-0.634 -0.102,-0.737 -0.738,-0.737 l -6.698,0 L 0,6.706 0,0 Z m -8.365,-0.128 0,-14.172 c 0,-0.981 0.156,-1.139 1.129,-1.139 l 15.59,0 c 0.97,0 1.125,0.158 1.125,1.139 l 0,20.798 c 0,0.981 -0.155,1.14 -1.125,1.14 l -9.061,0 -7.658,-7.766 z"
         style="fill:#6c6d70;fill-opacity:1;fill-rule:evenodd;stroke:none"
         id="path3560"
         inkscape:connector-curvature="0" /></g><g
       id="g3562"
       transform="translate(598.9268,452.417)"><path
         d="m 0,0 c 0,-0.634 -0.102,-0.737 -0.738,-0.737 l -6.698,0 L 0,6.706 0,0 Z m -8.365,-0.128 0,-14.172 c 0,-0.981 0.156,-1.139 1.129,-1.139 l 15.588,0 c 0.97,0 1.127,0.158 1.127,1.139 l 0,20.798 c 0,0.981 -0.157,1.14 -1.127,1.14 l -9.059,0 -7.658,-7.766 z"
         style="fill:#6c6d70;fill-opacity:1;fill-rule:evenodd;stroke:none"
         id="path3564"
         inkscape:connector-curvature="0" /></g><g
       id="g3566"
       transform="translate(598.9268,481.167)"><path
         d="m 0,0 c 0,-0.634 -0.102,-0.737 -0.738,-0.737 l -6.698,0 L 0,6.706 0,0 Z m -8.365,-0.128 0,-14.172 c 0,-0.981 0.156,-1.139 1.129,-1.139 l 15.588,0 c 0.97,0 1.127,0.158 1.127,1.139 l 0,20.798 c 0,0.981 -0.157,1.14 -1.127,1.14 l -9.059,0 -7.658,-7.766 z"
         style="fill:#6c6d70;fill-opacity:1;fill-rule:evenodd;stroke:none"
         id="path3568"
         inkscape:connector-curvature="0" /></g><g
       id="g3570"
       transform="translate(626.1162,452.5322)"><path
         d="m 0,0 c 0,-0.634 -0.102,-0.737 -0.738,-0.737 l -6.698,0 L 0,6.706 0,0 Z m -8.365,-0.128 0,-14.172 c 0,-0.981 0.156,-1.139 1.129,-1.139 l 15.588,0 c 0.97,0 1.127,0.158 1.127,1.139 l 0,20.798 c 0,0.981 -0.157,1.14 -1.127,1.14 l -9.059,0 -7.658,-7.766 z"
         style="fill:#6c6d70;fill-opacity:1;fill-rule:evenodd;stroke:none"
         id="path3572"
         inkscape:connector-curvature="0" /></g><g
       id="g3574"
       transform="translate(626.1162,481.2822)"><path
         d="m 0,0 c 0,-0.634 -0.102,-0.737 -0.738,-0.737 l -6.698,0 L 0,6.706 0,0 Z m -8.365,-0.128 0,-14.172 c 0,-0.981 0.156,-1.139 1.129,-1.139 l 15.588,0 c 0.97,0 1.127,0.158 1.127,1.139 l 0,20.798 c 0,0.981 -0.157,1.14 -1.127,1.14 l -9.059,0 -7.658,-7.766 z"
         style="fill:#6c6d70;fill-opacity:1;fill-rule:evenodd;stroke:none"
         id="path3576"
         inkscape:connector-curvature="0" /></g><path
       d="m 644.999,431.188 -91.041,0 0,63.711 91.041,0 0,-63.711 z m 3.449,71.012 -3.449,0 -14.521,0 -5.969,0 -7.26,0 -66.73,0 c -1.77,0 -3.211,-1.471 -3.211,-3.301 l 0,-71.711 c 0,-1.818 1.441,-3.298 3.211,-3.298 l 33,0 0,-3.56 -9.67,0 0,-2.529 51.269,0 0,2.529 -9.67,0 0,3.56 33,0 c 1.77,0 3.209,1.48 3.209,3.298 l 0,71.711 c 0,1.83 -1.439,3.301 -3.209,3.301"
       style="fill:#6c6d70;fill-opacity:1;fill-rule:evenodd;stroke:none"
       id="path3578"
       inkscape:connector-curvature="0" /><g
       id="g3678"
       transform="translate(602.9834,587.332)"><path
         d="M 0,0 C 0,-1.934 -1.567,-3.501 -3.5,-3.501 -5.433,-3.501 -7,-1.934 -7,0 -7,1.933 -5.433,3.499 -3.5,3.499 -1.567,3.499 0,1.933 0,0"
         style="fill:#f6af2f;fill-opacity:1;fill-rule:evenodd;stroke:none"
         id="path3680"
         inkscape:connector-curvature="0" /></g></g></svg>