<?xml version="1.0" encoding="utf-8"?>
<!-- Generator: Adobe Illustrator 16.0.4, SVG Export Plug-In . SVG Version: 6.00 Build 0)  -->
<!DOCTYPE svg PUBLIC "-//W3C//DTD SVG 1.1//EN" "http://www.w3.org/Graphics/SVG/1.1/DTD/svg11.dtd">
<svg version="1.1" xmlns="http://www.w3.org/2000/svg" xmlns:xlink="http://www.w3.org/1999/xlink" x="0px" y="0px" width="40px"
	 height="42.8px" viewBox="0 0 40 42.8" style="enable-background:new 0 0 40 42.8;" xml:space="preserve">
<style type="text/css">
<![CDATA[
	.st0{fill:#F6AF2F;}
	
		.st1{fill-rule:evenodd;clip-rule:evenodd;fill:#6E6E70;stroke:#F5F5F5;stroke-width:5;stroke-linecap:round;stroke-linejoin:round;stroke-miterlimit:10;}
	.st2{fill-rule:evenodd;clip-rule:evenodd;fill:#F5F5F5;}
	.st3{fill-rule:evenodd;clip-rule:evenodd;fill:#F6AF2F;}
	.st4{fill-rule:evenodd;clip-rule:evenodd;fill:#FAAE40;}
	.st5{fill-rule:evenodd;clip-rule:evenodd;fill:#6C6D70;}
]]>
</style>
<g id="Layer_1">
</g>
<g id="Layer_2">
	<g>
		<g>
			<path class="st3" d="M14.3,34.9v6c0,1.2,0.8,1.9,1.9,1.9h14.2c1.2,0,1.9-0.8,1.9-1.9v-6c0-1.2-0.8-1.9-1.9-1.9H16.2
				C15,33,14.3,33.7,14.3,34.9z M16.4,25c0,3.8,3.1,6.9,6.8,6.9s6.8-3.1,6.8-6.9s-3.1-6.9-6.8-6.9S16.4,21.2,16.4,25z M18.9,26.3
				h8.6c-0.9,1.8-2.5,3.1-4.3,3.1C21.4,29.4,19.9,28.1,18.9,26.3z M19.1,23.2c0-0.6,0.5-1,1-1c0.6,0,1,0.5,1,1c0,0.6-0.5,1-1,1
				C19.5,24.3,19.1,23.8,19.1,23.2z M25.4,23.2c0-0.6,0.5-1,1-1c0.6,0,1,0.5,1,1c0,0.6-0.5,1-1,1C25.9,24.3,25.4,23.8,25.4,23.2z"/>
		</g>
		<g>
			<path class="st3" d="M0,28.7v4C0,33.5,0.5,34,1.3,34H11c0.8,0,1.3-0.5,1.3-1.3v-4c0-0.8-0.5-1.3-1.3-1.3H1.3
				C0.5,27.4,0,27.9,0,28.7z M1.4,22c0,2.6,2.1,4.6,4.6,4.6c2.6,0,4.6-2.1,4.6-4.6c0-2.5-2.1-4.6-4.6-4.6C3.5,17.4,1.4,19.5,1.4,22z
				 M3.2,22.9H9c-0.6,1.2-1.7,2.1-2.9,2.1C4.9,24.9,3.8,24.1,3.2,22.9z M3.2,20.8c0-0.4,0.3-0.7,0.7-0.7s0.7,0.3,0.7,0.7
				c0,0.4-0.3,0.7-0.7,0.7S3.2,21.2,3.2,20.8z M7.5,20.8c0-0.4,0.3-0.7,0.7-0.7s0.7,0.3,0.7,0.7c0,0.4-0.3,0.7-0.7,0.7
				S7.5,21.2,7.5,20.8z"/>
		</g>
		<g>
			<g>
				<path class="st3" d="M26.4,14.2v1c0,1.1,0.7,1.8,1.7,1.8h0.9v3.3c0,0,2.4-1.9,3.8-3.3h5.4c1.1,0,1.7-0.7,1.7-1.8v-4.1
					c0-1.1-0.7-1.8-1.7-1.8h-2.8v1.6c0,2-1.2,3.3-3.1,3.3H26.4z"/>
			</g>
			<g>
				<path class="st3" d="M12.3,2.8v6.4c0,1.7,1,2.8,2.7,2.8h1.4V17c0,0,3.7-3,5.8-5.1h8.3c1.6,0,2.7-1.1,2.7-2.8V2.8
					c0-1.7-1-2.8-2.7-2.8H14.9C13.3,0,12.3,1.1,12.3,2.8z"/>
			</g>
		</g>
	</g>
</g>
</svg>
