<?xml version="1.0" encoding="utf-8"?>
<!-- Generator: Adobe Illustrator 16.0.4, SVG Export Plug-In . SVG Version: 6.00 Build 0)  -->
<!DOCTYPE svg PUBLIC "-//W3C//DTD SVG 1.1//EN" "http://www.w3.org/Graphics/SVG/1.1/DTD/svg11.dtd">
<svg version="1.1" xmlns="http://www.w3.org/2000/svg" xmlns:xlink="http://www.w3.org/1999/xlink" x="0px" y="0px" width="50px"
	 height="39.1px" viewBox="0 0 50 39.1" style="enable-background:new 0 0 50 39.1;" xml:space="preserve">
<style type="text/css">
<![CDATA[
	.st0{fill:#F6AF2F;}
	
		.st1{fill-rule:evenodd;clip-rule:evenodd;fill:#6E6E70;stroke:#F5F5F5;stroke-width:5;stroke-linecap:round;stroke-linejoin:round;stroke-miterlimit:10;}
	.st2{fill-rule:evenodd;clip-rule:evenodd;fill:#F5F5F5;}
	.st3{fill-rule:evenodd;clip-rule:evenodd;fill:#F6AF2F;}
	.st4{fill-rule:evenodd;clip-rule:evenodd;fill:#FAAE40;}
	.st5{fill-rule:evenodd;clip-rule:evenodd;fill:#6C6D70;}
]]>
</style>
<g id="Layer_1">
</g>
<g id="Layer_2">
	<g>
		<path class="st3" d="M7.9,21.3l-0.4,1.2h0.9L7.9,21.3z M8.9,24l-0.3-0.8H7.1L6.8,24H6.1l1.4-3.6h0.7L9.6,24H8.9z"/>
		<path class="st3" d="M11.2,24c-0.5,0-1-0.2-1.4-0.6l0.4-0.6c0.3,0.3,0.6,0.4,1,0.4c0.3,0,0.5-0.1,0.5-0.3v0c0-0.2-0.1-0.3-0.7-0.5
			c-0.7-0.2-1.1-0.4-1.1-1.1v0c0-0.6,0.5-1.1,1.2-1.1c0.5,0,0.9,0.2,1.2,0.5L12,21.4c-0.3-0.2-0.6-0.4-0.9-0.4
			c-0.3,0-0.4,0.1-0.4,0.3v0c0,0.2,0.1,0.3,0.7,0.5c0.7,0.2,1.1,0.5,1.1,1.1v0C12.4,23.6,11.9,24,11.2,24z"/>
		<polygon class="st3" points="14.4,21.1 14.4,24 13.7,24 13.7,21.1 12.7,21.1 12.7,20.4 15.5,20.4 15.5,21.1 		"/>
		<path class="st3" d="M18,21.6c0-0.3-0.2-0.5-0.6-0.5h-0.7v1h0.7C17.8,22.1,18,21.9,18,21.6L18,21.6z M18,24l-0.7-1.1h-0.6V24h-0.7
			v-3.6h1.5c0.8,0,1.3,0.4,1.3,1.2v0c0,0.6-0.3,0.9-0.7,1.1l0.8,1.3H18z"/>
		<path class="st3" d="M21.9,22.2c0-0.6-0.4-1.1-1-1.1c-0.6,0-1,0.5-1,1.1v0c0,0.6,0.4,1.1,1,1.1C21.5,23.3,21.9,22.8,21.9,22.2
			L21.9,22.2z M20.9,24c-1,0-1.8-0.8-1.8-1.8v0c0-1,0.8-1.9,1.8-1.9c1,0,1.8,0.8,1.8,1.8v0C22.7,23.2,21.9,24,20.9,24z"/>
		<path class="st0" d="M25.9,20.2c-0.1,0-0.2,0.1-0.2,0.1h-2.1V24H26v-0.2h-2.2v-1.5h0.9c0,0.1,0.1,0.1,0.2,0.1
			c0.1,0,0.2-0.1,0.2-0.2c0-0.1-0.1-0.2-0.2-0.2c-0.1,0-0.1,0-0.2,0.1h-0.9v-1.4h1.9c0,0.1,0.1,0.1,0.2,0.1c0.1,0,0.2-0.1,0.2-0.2
			C26.1,20.4,26,20.2,25.9,20.2z"/>
		<path class="st0" d="M33,20.5c0-0.1-0.1-0.2-0.2-0.2c-0.1,0-0.2,0.1-0.2,0.2c0,0.1,0.1,0.2,0.1,0.2v1.8c0,0.9-0.4,1.3-1.1,1.3
			c-0.7,0-1.1-0.5-1.1-1.3v-2.1h-0.3v2.1c0,1,0.6,1.6,1.4,1.6c0.8,0,1.4-0.6,1.4-1.6v-1.8C33,20.6,33,20.6,33,20.5z"/>
		<path class="st0" d="M28.4,20.4c0-0.1-0.1-0.2-0.2-0.2c-0.1,0-0.2,0.1-0.2,0.2c0,0.1,0.1,0.2,0.2,0.2c0.1,0,0.1,0,0.1-0.1
			c0.7,0.2,1.1,0.8,1.1,1.5v0c0,0.9-0.6,1.5-1.5,1.5H27v-3.1v-0.2h-0.3V24h1.1c1.1,0,1.8-0.8,1.8-1.8v0
			C29.6,21.3,29.1,20.7,28.4,20.4z"/>
	</g>
	<g>
		<g>
			<path class="st3" d="M37.1,13.5v1c0,1,0.6,1.7,1.6,1.7h0.9v3.1c0,0,2.3-1.8,3.6-3.1h5.1c1,0,1.6-0.6,1.6-1.7v-3.9
				c0-1-0.6-1.7-1.6-1.7h-2.7v1.5c0,1.9-1.1,3.1-2.9,3.1H37.1z"/>
		</g>
		<g>
			<path class="st3" d="M23.6,2.6v6.1c0,1.6,1,2.6,2.5,2.6h1.4v4.9c0,0,3.5-2.8,5.6-4.9H41c1.6,0,2.5-1,2.5-2.6V2.6
				C43.5,1,42.6,0,41,0H26.2C24.6,0,23.6,1,23.6,2.6z"/>
		</g>
	</g>
	<path class="st3" d="M39.1,20.4c-0.4-0.2-0.7-0.6-0.7-1.1v-1.9c-0.7-0.1-1.3-0.4-1.8-0.8v17.2H2.5V9.8h20c-0.1-0.3-0.1-0.7-0.1-1.1
		V7.1H1.2C0.5,7.1,0,7.6,0,8.3v26.9c0,0.7,0.5,1.2,1.2,1.2l12.4,0l0,1.7H10v1h19.2v-1h-3.6v-1.7l12.4,0c0.7,0,1.2-0.6,1.2-1.2
		L39.1,20.4C39.1,20.4,39.1,20.4,39.1,20.4z"/>
</g>
</svg>
