<?xml version="1.0" encoding="utf-8"?>
<!-- Generator: Adobe Illustrator 16.0.4, SVG Export Plug-In . SVG Version: 6.00 Build 0)  -->
<!DOCTYPE svg PUBLIC "-//W3C//DTD SVG 1.1//EN" "http://www.w3.org/Graphics/SVG/1.1/DTD/svg11.dtd">
<svg version="1.1" xmlns="http://www.w3.org/2000/svg" xmlns:xlink="http://www.w3.org/1999/xlink" x="0px" y="0px" width="42.5px"
	 height="33.8px" viewBox="0 0 42.5 33.8" style="enable-background:new 0 0 42.5 33.8;" xml:space="preserve">
<style type="text/css">
<![CDATA[
	.st0{fill:#F6AF2F;}
	
		.st1{fill-rule:evenodd;clip-rule:evenodd;fill:#6E6E70;stroke:#F5F5F5;stroke-width:5;stroke-linecap:round;stroke-linejoin:round;stroke-miterlimit:10;}
	.st2{fill-rule:evenodd;clip-rule:evenodd;fill:#F5F5F5;}
	.st3{fill-rule:evenodd;clip-rule:evenodd;fill:#F6AF2F;}
	.st4{fill-rule:evenodd;clip-rule:evenodd;fill:#FAAE40;}
	.st5{fill-rule:evenodd;clip-rule:evenodd;fill:#6C6D70;}
]]>
</style>
<g id="Layer_1">
</g>
<g id="Layer_2">
	<g>
		<g>
			<g>
				<path class="st4" d="M1.7,19.1l-1.6,9.2C-0.1,29.5,0,29.7,1.3,30l20.4,3.7c1.3,0.2,1.5,0.1,1.8-1.2l1.7-9.6L22,25l-3.8-5.4
					l-5.4,3.8L9,18l-5.4,3.7L1.7,19.1z"/>
			</g>
			<g>
				<path class="st4" d="M1.7,10.3v6.9l2,2l4.7-4.7l4.7,4.7l4.7-4.7l4.7,4.7l3.1-3V1.5c0-1.3-0.2-1.5-1.5-1.5H12L1.7,10.3z
					 M12.9,10.2c0,0.8-0.1,1-1,1H3l10-9.9V10.2z"/>
			</g>
		</g>
		<g>
			<circle class="st1" cx="28.5" cy="16.9" r="11.5"/>
			<g>
				<path class="st2" d="M30,24.3v-2.9h-2.9v2.9H30z M27,9.5v0.7l0.8,9.4h1.5l0.8-9.4V9.5H27z"/>
			</g>
		</g>
	</g>
</g>
</svg>
