<?xml version="1.0" encoding="utf-8"?>
<!-- Generator: Adobe Illustrator 16.0.0, SVG Export Plug-In . SVG Version: 6.00 Build 0)  -->
<!DOCTYPE svg PUBLIC "-//W3C//DTD SVG 1.1//EN" "http://www.w3.org/Graphics/SVG/1.1/DTD/svg11.dtd">
<svg version="1.1"
	 id="svg3336" xmlns:dc="http://purl.org/dc/elements/1.1/" xmlns:cc="http://creativecommons.org/ns#" xmlns:rdf="http://www.w3.org/1999/02/22-rdf-syntax-ns#" xmlns:svg="http://www.w3.org/2000/svg" xmlns:sodipodi="http://sodipodi.sourceforge.net/DTD/sodipodi-0.dtd" xmlns:inkscape="http://www.inkscape.org/namespaces/inkscape" inkscape:version="0.91 r13725" sodipodi:docname="bigicon_submit.svg"
	 xmlns="http://www.w3.org/2000/svg" xmlns:xlink="http://www.w3.org/1999/xlink" x="0px" y="0px" width="326.25px"
	 height="430.508px" viewBox="0 0 326.25 430.508" enable-background="new 0 0 326.25 430.508" xml:space="preserve">
<sodipodi:namedview  id="namedview3338" fit-margin-left="0" fit-margin-top="0" inkscape:cy="203.50093" inkscape:cx="-374.91828" inkscape:zoom="1.2" showgrid="false" guidetolerance="10" gridtolerance="10" objecttolerance="10" bordercolor="#666666" pagecolor="#ffffff" borderopacity="1" fit-margin-right="0" inkscape:window-height="852" inkscape:window-width="1439" inkscape:pageshadow="2" inkscape:current-layer="g3344" fit-margin-bottom="0" inkscape:window-x="0" inkscape:window-maximized="0" inkscape:window-y="0" inkscape:pageopacity="0">
	</sodipodi:namedview>
<g id="g3550" transform="translate(847.752,459.8379)">
	<path id="path3552" inkscape:connector-curvature="0" fill="#F6AF2F" d="M-803.451-296.097c0-65.571,53.15-118.72,118.721-118.72
		c65.572,0,118.717,53.148,118.717,118.72c0,65.572-53.146,118.72-118.717,118.72C-750.301-177.376-803.451-230.525-803.451-296.097
		"/>
</g>
<path id="path3580" inkscape:connector-curvature="0" fill="#6C6D70" d="M219.916,199.554H106.114v-79.639h113.802V199.554z
	 M224.227,110.789h-4.311h-18.151h-7.462h-9.074h-83.413c-2.212,0-4.014,1.839-4.014,4.126v89.639c0,2.272,1.801,4.123,4.014,4.123
	h41.25v4.45h-12.087v3.161h64.086v-3.161h-12.088v-4.45h41.25c2.213,0,4.012-1.85,4.012-4.123v-89.639
	C228.238,112.627,226.44,110.789,224.227,110.789"/>
<g id="g3582" transform="translate(817.1309,287.1738)">
	<path id="path3584" inkscape:connector-curvature="0" fill="#F6AF2F" d="M-811.106,92.397c0-8.461,6.85-15.313,15.313-15.313
		h285.625c8.462,0,15.313,6.852,15.313,15.313v35.625c0,8.463-6.851,15.313-15.313,15.313h-285.625
		c-8.463,0-15.313-6.85-15.313-15.313V92.397z"/>
</g>
<g id="g3658" transform="translate(812.8115,457.4229)">
	
		<path id="path3660" inkscape:connector-curvature="0" fill="none" stroke="#BCBEC0" stroke-linecap="round" stroke-linejoin="round" stroke-dasharray="6.006,6.006" d="
		M-812.187-290.663c0-89.749,72.749-162.5,162.5-162.5c89.749,0,162.5,72.751,162.5,162.5c0,89.751-72.751,162.5-162.5,162.5
		C-739.438-128.163-812.187-200.912-812.187-290.663z"/>
</g>
<g id="g3662" transform="translate(943.6309,327.4229)">
	
		<path id="path3664" inkscape:connector-curvature="0" fill="none" stroke="#F6AF2F" stroke-width="2" stroke-linecap="round" stroke-linejoin="round" stroke-miterlimit="10" d="
		M-779.481,1.837c-89.751,0-162.5-72.749-162.5-162.5c0-89.749,72.749-162.5,162.5-162.5"/>
</g>
<g id="g3666" transform="translate(927.666,481.5869)">
	<path id="path3668" inkscape:connector-curvature="0" fill="#6C6D70" d="M-783.473-345.032v14.817c0,1.4-0.225,1.629-1.631,1.629
		h-14.799L-783.473-345.032z M-799.461-296.104h34.443c2.144,0,2.488-0.353,2.488-2.52v-45.949c0-2.166-0.344-2.516-2.488-2.516
		h-20.019l-16.917,17.158v31.308C-801.954-296.457-801.61-296.104-799.461-296.104"/>
</g>
<g id="g3670" transform="translate(965.791,469.5381)">
	<path id="path3672" inkscape:connector-curvature="0" fill="#6C6D70" d="M-773.941-317.922h-6.785l6.012,6.013h-8.031v4.941h8.029
		l-6.01,6.011h6.783l8.482-8.483L-773.941-317.922z"/>
</g>
<g id="g3674" transform="translate(946.2275,587.332)">
	<path id="path3676" inkscape:connector-curvature="0" fill="#F6AF2F" d="M-778.833-582.958c0,2.417-1.959,4.376-4.376,4.376
		c-2.415,0-4.374-1.959-4.374-4.376c0-2.417,1.958-4.374,4.374-4.374C-780.792-587.332-778.833-585.374-778.833-582.958"/>
</g>
<g>
	<path fill="#6C6D70" d="M20.389,406.651c-2.52,0-5.061-0.883-7.057-2.664l2.162-2.588c1.496,1.234,3.064,2.02,4.966,2.02
		c1.496,0,2.398-0.596,2.398-1.57v-0.047c0-0.928-0.569-1.4-3.35-2.115c-3.349-0.855-5.511-1.781-5.511-5.084v-0.047
		c0-3.02,2.423-5.014,5.82-5.014c2.424,0,4.489,0.762,6.176,2.115l-1.899,2.756c-1.473-1.021-2.922-1.637-4.325-1.637
		c-1.4,0-2.137,0.639-2.137,1.447v0.045c0,1.096,0.712,1.451,3.586,2.188c3.374,0.881,5.275,2.092,5.275,4.99v0.047
		C26.494,404.797,23.976,406.651,20.389,406.651z"/>
	<path fill="#6C6D70" d="M35.553,406.696c-3.943,0-6.865-2.922-6.865-6.58v-0.049c0-3.658,2.946-6.631,6.914-6.631
		c3.941,0,6.865,2.926,6.865,6.582v0.049C42.467,403.723,39.52,406.696,35.553,406.696z M38.903,400.067
		c0-1.875-1.354-3.516-3.351-3.516c-2.066,0-3.303,1.59-3.303,3.467v0.049c0,1.879,1.354,3.518,3.352,3.518
		c2.065,0,3.302-1.594,3.302-3.469V400.067z"/>
	<path fill="#6C6D70" d="M49.389,406.625c-2.209,0-3.706-0.881-3.706-3.826v-6.035h-1.521v-3.088h1.521v-3.254h3.611v3.254h2.992
		v3.088h-2.992v5.439c0,0.832,0.355,1.238,1.165,1.238c0.665,0,1.258-0.166,1.78-0.453v2.898
		C51.479,406.34,50.6,406.625,49.389,406.625z"/>
	<path fill="#6C6D70" d="M59.253,406.625c-2.21,0-3.708-0.881-3.708-3.826v-6.035h-1.52v-3.088h1.52v-3.254h3.613v3.254h2.992v3.088
		h-2.992v5.439c0,0.832,0.355,1.238,1.164,1.238c0.666,0,1.259-0.166,1.781-0.453v2.898
		C61.343,406.34,60.463,406.625,59.253,406.625z"/>
	<path fill="#6C6D70" d="M70.709,406.696c-3.945,0-6.866-2.922-6.866-6.58v-0.049c0-3.658,2.946-6.631,6.915-6.631
		c3.941,0,6.865,2.926,6.865,6.582v0.049C77.623,403.723,74.676,406.696,70.709,406.696z M74.059,400.067
		c0-1.875-1.354-3.516-3.35-3.516c-2.066,0-3.303,1.59-3.303,3.467v0.049c0,1.879,1.354,3.518,3.352,3.518
		c2.065,0,3.301-1.594,3.301-3.469V400.067z"/>
	<path fill="#6C6D70" d="M96.066,406.409v-7.102c0-1.711-0.762-2.59-2.115-2.59s-2.184,0.879-2.184,2.59v7.102h-3.611v-7.102
		c0-1.711-0.761-2.59-2.115-2.59s-2.186,0.879-2.186,2.59v7.102h-3.611v-12.732h3.611v1.807c0.831-1.07,1.924-2.047,3.753-2.047
		c1.663,0,2.923,0.74,3.587,2.021c1.117-1.305,2.448-2.021,4.182-2.021c2.685,0,4.301,1.617,4.301,4.682v8.291H96.066z"/>
	<path fill="#6C6D70" d="M114.658,401.303h-8.862c0.358,1.639,1.497,2.494,3.112,2.494c1.211,0,2.092-0.379,3.089-1.307l2.066,1.828
		c-1.187,1.475-2.897,2.377-5.202,2.377c-3.826,0-6.652-2.686-6.652-6.58v-0.049c0-3.635,2.588-6.631,6.295-6.631
		c4.254,0,6.202,3.305,6.202,6.916v0.049C114.706,400.758,114.68,400.971,114.658,401.303z M108.504,396.338
		c-1.495,0-2.471,1.068-2.755,2.709h5.44C110.977,397.43,110.023,396.338,108.504,396.338z"/>
	<path fill="#6C6D70" d="M121.696,406.625c-2.209,0-3.706-0.881-3.706-3.826v-6.035h-1.52v-3.088h1.52v-3.254h3.613v3.254h2.99
		v3.088h-2.99v5.439c0,0.832,0.354,1.238,1.163,1.238c0.666,0,1.26-0.166,1.783-0.453v2.898
		C123.787,406.34,122.908,406.625,121.696,406.625z"/>
	<path fill="#6C6D70" d="M131.561,406.625c-2.21,0-3.706-0.881-3.706-3.826v-6.035h-1.521v-3.088h1.521v-3.254h3.611v3.254h2.992
		v3.088h-2.992v5.439c0,0.832,0.355,1.238,1.165,1.238c0.663,0,1.259-0.166,1.78-0.453v2.898
		C133.652,406.34,132.771,406.625,131.561,406.625z"/>
	<path fill="#6C6D70" d="M137.195,392.276v-3.207h3.802v3.207H137.195z M137.291,406.409v-12.732h3.612v12.732H137.291z"/>
	<path fill="#6C6D70" d="M151.601,406.409v-17.34h3.612v17.34H151.601z"/>
	<path fill="#6C6D70" d="M166.072,406.409v-1.377c-0.879,0.977-2.091,1.619-3.848,1.619c-2.402,0-4.371-1.383-4.371-3.896v-0.051
		c0-2.777,2.114-4.063,5.131-4.063c1.283,0,2.209,0.217,3.113,0.521v-0.213c0-1.496-0.928-2.328-2.734-2.328
		c-1.377,0-2.351,0.264-3.515,0.688l-0.904-2.754c1.404-0.619,2.78-1.021,4.944-1.021c3.942,0,5.676,2.043,5.676,5.49v7.385H166.072
		z M166.143,401.28c-0.616-0.287-1.426-0.477-2.304-0.477c-1.545,0-2.495,0.619-2.495,1.756v0.053c0,0.973,0.808,1.543,1.971,1.543
		c1.688,0,2.828-0.93,2.828-2.232V401.28z"/>
	<path fill="#6C6D70" d="M184.115,406.625c-2.209,0-3.707-0.881-3.707-3.826v-6.035h-1.52v-3.088h1.52v-3.254h3.61v3.254h2.993
		v3.088h-2.993v5.439c0,0.832,0.358,1.238,1.167,1.238c0.666,0,1.26-0.166,1.78-0.453v2.898
		C186.206,406.34,185.325,406.625,184.115,406.625z"/>
	<path fill="#6C6D70" d="M197.638,406.409v-1.803c-0.83,1.068-1.9,2.045-3.73,2.045c-2.731,0-4.325-1.809-4.325-4.729v-8.246h3.613
		v7.104c0,1.711,0.806,2.59,2.187,2.59c1.376,0,2.256-0.879,2.256-2.59v-7.104h3.609v12.732H197.638z"/>
	<path fill="#6C6D70" d="M211.946,406.409v-1.377c-0.878,0.977-2.089,1.619-3.849,1.619c-2.4,0-4.371-1.383-4.371-3.896v-0.051
		c0-2.777,2.114-4.063,5.131-4.063c1.283,0,2.211,0.217,3.112,0.521v-0.213c0-1.496-0.925-2.328-2.731-2.328
		c-1.379,0-2.351,0.264-3.514,0.688l-0.904-2.754c1.401-0.619,2.779-1.021,4.94-1.021c3.943,0,5.68,2.043,5.68,5.49v7.385H211.946z
		 M212.017,401.28c-0.616-0.287-1.425-0.477-2.304-0.477c-1.543,0-2.496,0.619-2.496,1.756v0.053c0,0.973,0.809,1.543,1.975,1.543
		c1.688,0,2.825-0.93,2.825-2.232V401.28z"/>
	<path fill="#6C6D70" d="M238.446,406.409l-1.521-3.729h-7.031l-1.521,3.729h-3.729l7.128-16.748h3.374l7.124,16.748H238.446z
		 M233.411,394.057l-2.211,5.393h4.419L233.411,394.057z"/>
	<path fill="#6C6D70" d="M248.053,406.625c-2.209,0-3.706-0.881-3.706-3.826v-6.035h-1.521v-3.088h1.521v-3.254h3.612v3.254h2.99
		v3.088h-2.99v5.439c0,0.832,0.354,1.238,1.164,1.238c0.665,0,1.259-0.166,1.782-0.453v2.898
		C250.143,406.34,249.263,406.625,248.053,406.625z"/>
	<path fill="#6C6D70" d="M257.918,406.625c-2.211,0-3.709-0.881-3.709-3.826v-6.035h-1.519v-3.088h1.519v-3.254h3.613v3.254h2.993
		v3.088h-2.993v5.439c0,0.832,0.354,1.238,1.163,1.238c0.666,0,1.26-0.166,1.783-0.453v2.898
		C260.009,406.34,259.128,406.625,257.918,406.625z"/>
	<path fill="#6C6D70" d="M263.552,392.276v-3.207h3.802v3.207H263.552z M263.647,406.409v-12.732h3.61v12.732H263.647z"/>
	<path fill="#6C6D70" d="M277.811,406.506h-3.281l-5.012-12.83h3.825l2.852,8.527l2.875-8.527h3.754L277.811,406.506z"/>
	<path fill="#6C6D70" d="M284.994,392.276v-3.207h3.801v3.207H284.994z M285.088,406.409v-12.732h3.612v12.732H285.088z"/>
	<path fill="#6C6D70" d="M296.402,406.625c-2.211,0-3.706-0.881-3.706-3.826v-6.035h-1.521v-3.088h1.521v-3.254h3.609v3.254h2.994
		v3.088h-2.994v5.439c0,0.832,0.355,1.238,1.166,1.238c0.664,0,1.258-0.166,1.781-0.453v2.898
		C298.493,406.34,297.612,406.625,296.402,406.625z"/>
	<path fill="#6C6D70" d="M309.424,406.409v-1.377c-0.878,0.977-2.089,1.619-3.849,1.619c-2.399,0-4.371-1.383-4.371-3.896v-0.051
		c0-2.777,2.114-4.063,5.134-4.063c1.281,0,2.208,0.217,3.112,0.521v-0.213c0-1.496-0.928-2.328-2.734-2.328
		c-1.376,0-2.351,0.264-3.515,0.688l-0.904-2.754c1.402-0.619,2.781-1.021,4.942-1.021c3.942,0,5.679,2.043,5.679,5.49v7.385
		H309.424z M306.384,392.276l-3.042-2.852l3.112-1.354l2.685,4.205H306.384z M309.497,401.28c-0.62-0.287-1.428-0.477-2.305-0.477
		c-1.544,0-2.495,0.619-2.495,1.756v0.053c0,0.973,0.809,1.543,1.972,1.543c1.688,0,2.828-0.93,2.828-2.232V401.28z"/>
</g>
</svg>
