<?xml version="1.0" encoding="utf-8"?>
<!-- Generator: Adobe Illustrator 16.0.0, SVG Export Plug-In . SVG Version: 6.00 Build 0)  -->
<!DOCTYPE svg PUBLIC "-//W3C//DTD SVG 1.1//EN" "http://www.w3.org/Graphics/SVG/1.1/DTD/svg11.dtd">
<svg version="1.1"
	 id="svg3336" xmlns:dc="http://purl.org/dc/elements/1.1/" xmlns:cc="http://creativecommons.org/ns#" xmlns:rdf="http://www.w3.org/1999/02/22-rdf-syntax-ns#" xmlns:svg="http://www.w3.org/2000/svg" xmlns:sodipodi="http://sodipodi.sourceforge.net/DTD/sodipodi-0.dtd" xmlns:inkscape="http://www.inkscape.org/namespaces/inkscape" inkscape:version="0.91 r13725" sodipodi:docname="bigicon_activities.svg"
	 xmlns="http://www.w3.org/2000/svg" xmlns:xlink="http://www.w3.org/1999/xlink" x="0px" y="0px" width="326.875px"
	 height="430.508px" viewBox="0 0 326.875 430.508" enable-background="new 0 0 326.875 430.508" xml:space="preserve">
<sodipodi:namedview  id="namedview3338" fit-margin-left="0" fit-margin-top="0" inkscape:cy="188.95803" inkscape:cx="282.77556" inkscape:zoom="1.2" showgrid="false" guidetolerance="10" gridtolerance="10" objecttolerance="10" bordercolor="#666666" pagecolor="#ffffff" borderopacity="1" fit-margin-right="0" inkscape:window-height="852" inkscape:window-width="1439" inkscape:pageshadow="2" inkscape:current-layer="g3344" fit-margin-bottom="0" inkscape:window-x="0" inkscape:window-maximized="0" inkscape:window-y="0" inkscape:pageopacity="0">
	</sodipodi:namedview>
<g id="g3480" transform="translate(472.9834,287.1738)">
	<path id="path3482" inkscape:connector-curvature="0" fill="#F6AF2F" d="M-467.358,92.397c0-8.461,6.85-15.313,15.313-15.313
		h285.625c8.463,0,15.313,6.852,15.313,15.313v35.625c0,8.463-6.85,15.313-15.313,15.313h-285.625
		c-8.462,0-15.313-6.85-15.313-15.313V92.397z"/>
</g>
<g id="g3538" transform="translate(469.4834,457.5869)">
	
		<path id="path3540" inkscape:connector-curvature="0" fill="none" stroke="#BCBEC0" stroke-linecap="round" stroke-linejoin="round" stroke-dasharray="6.006,6.006" d="
		M-468.233-291.032c0-89.749,72.749-162.5,162.5-162.5c89.749,0,162.5,72.751,162.5,162.5c0,89.752-72.751,162.5-162.5,162.5
		C-395.485-128.532-468.233-201.28-468.233-291.032z"/>
</g>
<g id="g3542" transform="translate(599.4834,327.5869)">
	
		<path id="path3544" inkscape:connector-curvature="0" fill="none" stroke="#F6AF2F" stroke-width="2" stroke-linecap="round" stroke-linejoin="round" stroke-miterlimit="10" d="
		M-435.733,1.468c-89.751,0-162.5-72.748-162.5-162.5c0-89.749,72.749-162.5,162.5-162.5"/>
</g>
<g id="g3546" transform="translate(504.5068,460.001)">
	<path id="path3548" inkscape:connector-curvature="0" fill="#F6AF2F" d="M-459.478-296.463c0-65.571,53.15-118.72,118.721-118.72
		c65.572,0,118.717,53.149,118.717,118.72s-53.146,118.72-118.717,118.72C-406.328-177.744-459.478-230.892-459.478-296.463"/>
</g>
<g id="g3554" transform="translate(571.7354,452.417)">
	<path id="path3556" inkscape:connector-curvature="0" fill="#6C6D70" d="M-442.67-279.399c0,0.792-0.127,0.921-0.922,0.921h-8.373
		l9.295-9.304V-279.399z M-453.126-279.239v17.715c0,1.226,0.195,1.424,1.411,1.424h19.487c1.213,0,1.406-0.198,1.406-1.424v-25.998
		c0-1.226-0.193-1.425-1.406-1.425h-11.326L-453.126-279.239z"/>
</g>
<g id="g3558" transform="translate(571.7354,481.167)">
	<path id="path3560" inkscape:connector-curvature="0" fill="#6C6D70" d="M-442.67-344.087c0,0.792-0.127,0.921-0.922,0.921h-8.373
		l9.295-9.304V-344.087z M-453.126-343.927v17.715c0,1.226,0.195,1.424,1.411,1.424h19.487c1.213,0,1.406-0.198,1.406-1.424v-25.998
		c0-1.226-0.193-1.425-1.406-1.425h-11.326L-453.126-343.927z"/>
</g>
<g id="g3562" transform="translate(598.9268,452.417)">
	<path id="path3564" inkscape:connector-curvature="0" fill="#6C6D70" d="M-435.873-279.399c0,0.792-0.127,0.921-0.922,0.921h-8.373
		l9.295-9.304V-279.399z M-446.329-279.239v17.715c0,1.226,0.195,1.424,1.411,1.424h19.485c1.213,0,1.408-0.198,1.408-1.424v-25.998
		c0-1.226-0.195-1.425-1.408-1.425h-11.324L-446.329-279.239z"/>
</g>
<g id="g3566" transform="translate(598.9268,481.167)">
	<path id="path3568" inkscape:connector-curvature="0" fill="#6C6D70" d="M-435.873-344.087c0,0.792-0.127,0.921-0.922,0.921h-8.373
		l9.295-9.304V-344.087z M-446.329-343.927v17.715c0,1.226,0.195,1.424,1.411,1.424h19.485c1.213,0,1.408-0.198,1.408-1.424v-25.998
		c0-1.226-0.195-1.425-1.408-1.425h-11.324L-446.329-343.927z"/>
</g>
<g id="g3570" transform="translate(626.1162,452.5322)">
	<path id="path3572" inkscape:connector-curvature="0" fill="#6C6D70" d="M-429.075-279.659c0,0.792-0.127,0.921-0.922,0.921h-8.373
		l9.295-9.304V-279.659z M-439.531-279.499v17.715c0,1.226,0.194,1.424,1.411,1.424h19.484c1.213,0,1.409-0.198,1.409-1.424v-25.998
		c0-1.226-0.196-1.425-1.409-1.425h-11.323L-439.531-279.499z"/>
</g>
<g id="g3574" transform="translate(626.1162,481.2822)">
	<path id="path3576" inkscape:connector-curvature="0" fill="#6C6D70" d="M-429.075-344.346c0,0.792-0.127,0.921-0.922,0.921h-8.373
		l9.295-9.304V-344.346z M-439.531-344.186v17.715c0,1.226,0.194,1.424,1.411,1.424h19.484c1.213,0,1.409-0.198,1.409-1.424v-25.998
		c0-1.226-0.196-1.425-1.409-1.425h-11.323L-439.531-344.186z"/>
</g>
<path id="path3578" inkscape:connector-curvature="0" fill="#6C6D70" d="M220.645,199.554H106.843v-79.639h113.801V199.554z
	 M224.955,110.789h-4.311h-18.151h-7.461h-9.075h-83.413c-2.212,0-4.014,1.839-4.014,4.126v89.639c0,2.272,1.801,4.123,4.014,4.123
	h41.25v4.45h-12.087v3.161h64.086v-3.161h-12.087v-4.45h41.25c2.212,0,4.011-1.85,4.011-4.123v-89.639
	C228.967,112.627,227.168,110.789,224.955,110.789"/>
<g id="g3678" transform="translate(602.9834,587.332)">
	<path id="path3680" inkscape:connector-curvature="0" fill="#F6AF2F" d="M-434.858-582.958c0,2.417-1.959,4.376-4.375,4.376
		s-4.375-1.959-4.375-4.376c0-2.417,1.959-4.374,4.375-4.374S-434.858-585.374-434.858-582.958"/>
</g>
<g>
	<path fill="#6C6D70" d="M48.935,405.559h-3.24l-6.739-16.79h4.05l4.357,11.74l4.359-11.74h3.952L48.935,405.559z"/>
	<path fill="#6C6D70" d="M68.068,400.32h-8.884c0.356,1.645,1.501,2.502,3.12,2.502c1.214,0,2.097-0.381,3.098-1.312l2.071,1.835
		c-1.191,1.479-2.906,2.382-5.215,2.382c-3.836,0-6.67-2.692-6.67-6.599v-0.046c0-3.646,2.595-6.647,6.311-6.647
		c4.265,0,6.218,3.312,6.218,6.931v0.051C68.117,399.772,68.092,399.986,68.068,400.32z M61.899,395.343
		c-1.499,0-2.477,1.07-2.762,2.715h5.454C64.378,396.437,63.424,395.343,61.899,395.343z"/>
	<path fill="#6C6D70" d="M80.033,405.44v-1.835c-0.881,1.191-2.098,2.075-3.979,2.075c-2.977,0-5.812-2.335-5.812-6.598v-0.051
		c0-4.263,2.787-6.597,5.812-6.597c1.932,0,3.122,0.885,3.979,1.908v-6.288h3.619v17.385H80.033z M80.08,399.032
		c0-2.117-1.404-3.521-3.096-3.521c-1.69,0-3.121,1.38-3.121,3.521v0.051c0,2.118,1.431,3.524,3.121,3.524
		c1.691,0,3.096-1.406,3.096-3.524V399.032z"/>
	<path fill="#6C6D70" d="M86.972,391.271v-3.216h3.81v3.216H86.972z M87.065,405.44v-12.766h3.623v12.766H87.065z"/>
	<path fill="#6C6D70" d="M109.178,392.152v13.288h-3.669v-13.288h-5.073v-3.383h13.816v3.383H109.178z"/>
	<path fill="#6C6D70" d="M123.475,405.44v-1.808c-0.83,1.071-1.905,2.048-3.739,2.048c-2.738,0-4.332-1.812-4.332-4.74v-8.266h3.619
		v7.122c0,1.714,0.811,2.595,2.191,2.595s2.261-0.881,2.261-2.595v-7.122h3.623v12.766H123.475z"/>
	<path fill="#6C6D70" d="M134.652,405.657c-2.214,0-3.716-0.884-3.716-3.835v-6.052h-1.523v-3.096h1.523v-3.261h3.624v3.261h2.997
		v3.096h-2.997v5.453c0,0.835,0.356,1.242,1.166,1.242c0.668,0,1.262-0.167,1.786-0.454v2.904
		C136.752,405.37,135.867,405.657,134.652,405.657z"/>
	<path fill="#6C6D70" d="M144.544,405.657c-2.216,0-3.717-0.884-3.717-3.835v-6.052h-1.523v-3.096h1.523v-3.261h3.619v3.261h3.002
		v3.096h-3.002v5.453c0,0.835,0.356,1.242,1.168,1.242c0.667,0,1.265-0.167,1.787-0.454v2.904
		C146.639,405.37,145.757,405.657,144.544,405.657z"/>
	<path fill="#6C6D70" d="M161.621,400.32h-8.883c0.357,1.645,1.503,2.502,3.12,2.502c1.213,0,2.098-0.381,3.099-1.312l2.071,1.835
		c-1.191,1.479-2.905,2.382-5.217,2.382c-3.837,0-6.668-2.692-6.668-6.599v-0.046c0-3.646,2.596-6.647,6.311-6.647
		c4.263,0,6.218,3.312,6.218,6.931v0.051C161.672,399.772,161.646,399.986,161.621,400.32z M155.454,395.343
		c-1.501,0-2.478,1.07-2.761,2.715h5.453C157.933,396.437,156.979,395.343,155.454,395.343z"/>
	<path fill="#6C6D70" d="M171.684,405.44v-17.385h3.622v17.385H171.684z"/>
	<path fill="#6C6D70" d="M190.576,400.32h-8.886c0.36,1.645,1.501,2.502,3.122,2.502c1.214,0,2.094-0.381,3.095-1.312l2.071,1.835
		c-1.189,1.479-2.904,2.382-5.213,2.382c-3.836,0-6.671-2.692-6.671-6.599v-0.046c0-3.646,2.595-6.647,6.31-6.647
		c4.268,0,6.219,3.312,6.219,6.931v0.051C190.623,399.772,190.6,399.986,190.576,400.32z M184.404,395.343
		c-1.496,0-2.475,1.07-2.761,2.715h5.454C186.884,396.437,185.93,395.343,184.404,395.343z"/>
	<path fill="#6C6D70" d="M213.26,405.44l-1.525-3.739h-7.047l-1.525,3.739h-3.738l7.145-16.791h3.383l7.145,16.791H213.26z
		 M208.213,393.054l-2.219,5.408h4.434L208.213,393.054z"/>
	<path fill="#6C6D70" d="M222.895,405.657c-2.217,0-3.717-0.884-3.717-3.835v-6.052h-1.525v-3.096h1.525v-3.261h3.619v3.261h3.004
		v3.096h-3.004v5.453c0,0.835,0.357,1.242,1.166,1.242c0.67,0,1.266-0.167,1.789-0.454v2.904
		C224.986,405.37,224.107,405.657,222.895,405.657z"/>
	<path fill="#6C6D70" d="M232.781,405.657c-2.215,0-3.715-0.884-3.715-3.835v-6.052h-1.525v-3.096h1.525v-3.261h3.621v3.261h2.998
		v3.096h-2.998v5.453c0,0.835,0.357,1.242,1.168,1.242c0.666,0,1.26-0.167,1.783-0.454v2.904
		C234.879,405.37,233.994,405.657,232.781,405.657z"/>
	<path fill="#6C6D70" d="M238.434,391.271v-3.216h3.807v3.216H238.434z M238.525,405.44v-12.766h3.623v12.766H238.525z"/>
	<path fill="#6C6D70" d="M252.725,405.537h-3.285l-5.027-12.862h3.836l2.861,8.549l2.881-8.549h3.762L252.725,405.537z"/>
	<path fill="#6C6D70" d="M259.928,391.271v-3.216h3.809v3.216H259.928z M260.02,405.44v-12.766h3.625v12.766H260.02z"/>
	<path fill="#6C6D70" d="M271.363,405.657c-2.217,0-3.717-0.884-3.717-3.835v-6.052h-1.525v-3.096h1.525v-3.261h3.623v3.261h2.996
		v3.096h-2.996v5.453c0,0.835,0.355,1.242,1.168,1.242c0.666,0,1.26-0.167,1.783-0.454v2.904
		C273.461,405.37,272.576,405.657,271.363,405.657z"/>
	<path fill="#6C6D70" d="M284.418,405.44v-1.381c-0.881,0.978-2.094,1.621-3.857,1.621c-2.406,0-4.381-1.385-4.381-3.905v-0.05
		c0-2.786,2.117-4.074,5.143-4.074c1.287,0,2.215,0.218,3.123,0.523v-0.213c0-1.501-0.932-2.335-2.742-2.335
		c-1.381,0-2.355,0.265-3.523,0.69l-0.906-2.761c1.408-0.622,2.789-1.024,4.957-1.024c3.951,0,5.689,2.048,5.689,5.504v7.404
		H284.418z M281.371,391.271l-3.051-2.858l3.121-1.358l2.693,4.217H281.371z M284.492,400.296c-0.621-0.287-1.432-0.478-2.313-0.478
		c-1.549,0-2.502,0.622-2.502,1.762v0.05c0,0.977,0.811,1.549,1.979,1.549c1.691,0,2.836-0.932,2.836-2.239V400.296z"/>
</g>
</svg>
