<?xml version="1.0" encoding="utf-8"?>
<!-- Generator: Adobe Illustrator 16.0.0, SVG Export Plug-In . SVG Version: 6.00 Build 0)  -->
<!DOCTYPE svg PUBLIC "-//W3C//DTD SVG 1.1//EN" "http://www.w3.org/Graphics/SVG/1.1/DTD/svg11.dtd">
<svg version="1.1" id="Layer_1" xmlns="http://www.w3.org/2000/svg" xmlns:xlink="http://www.w3.org/1999/xlink" x="0px" y="0px"
	 width="1000px" height="1000px" viewBox="0 0 1000 1000" enable-background="new 0 0 1000 1000" xml:space="preserve">
<circle fill="#F8B132" cx="500" cy="500" r="300"/>
<path id="path10468_1_" fill="#FFFFFF" d="M247.654,511.173v-26.817h-7.426v-7.331l7.426-0.996v-9.146l16.023-2.25v11.401h10.627
	v8.357h-10.627v25.432c0,4.775,1.332,7.223,6.03,7.223c1.672,0,3.952-0.179,5.117-0.417v6.202c-2.568,1.517-8.06,2.807-13.134,2.807
	c-9.552,0-14.029-4.21-14.029-14.465H247.654z M354.484,480.284c4.023,0,6.196,0.717,6.196,14.937l-13.432,0.787
	C347.428,483.114,349.374,480.284,354.484,480.284z M347.38,501.794h28.882c0-20.332-6.985-26.816-21.51-26.816
	c-14.429,0-23.896,9.289-23.896,25.24c0,16.477,8.583,25.592,25.228,25.592c8.943,0,16.166-3.999,18.41-7.043v-4.717
	c-3.361,1.015-6.817,1.671-13.014,1.671c-8.745,0-13.253-4.537-14.1-13.969V501.794z M276.208,520.205l5.135-2.364v-52.713
	l-5.403-2.508v-4.399l19.975-3.225h1.355v26.375h0.538c4.357-3.939,10.208-6.4,16.716-6.4c8.178,0,12.238,4.072,12.238,12.955
	v29.909l5.193,2.37v4.459h-26.446v-4.459l5.194-2.37V491.55c0-4.919-2.15-6.758-6.508-6.758c-2.388,0-4.656,0.437-6.626,1.229
	v31.819l5.194,2.376v4.459H276.25v-4.479L276.208,520.205z"/>
<path id="path10470_1_" fill="#FFFFFF" d="M626.734,478.137v4.404l5.398,2.509v32.833l-5.146,2.389v4.476h26.404v-4.417
	l-5.145-2.388V474.96h-1.356l-20.154,3.218V478.137z M681.479,515.297v-13.092l-3.75,0.359c-3.731,0.357-6.787,2.836-6.787,7.474
	c0,5.343,2.938,7.104,6.029,7.104c1.791,0,3.612-0.884,4.502-1.851L681.479,515.297z M670.111,481.484l-3.402,9.887h-8.334v-12.716
	c4.501-1.398,9.987-3.678,18.482-3.678c12.925,0,20.692,3.82,20.692,14.686v28.178l5.134,2.387v3.653
	c-1.577,0.849-5.147,1.929-9.045,1.929c-5.043,0-9.569-1.611-10.315-6.864h-0.478c-2.149,4.298-7.88,6.924-13.909,6.924
	c-8.597,0-14.029-5.551-14.029-13.61c0-9.909,6.506-11.522,17.132-13.729l9.253-1.612v-6.322c0-6.221-1.909-9.313-8.059-9.313
	c-0.836,0-2.329,0.107-3.284,0.202H670.111z M703.996,520.212l5.133-2.329V485.05l-5.402-2.509v-4.358l19.981-3.163h1.354v6.447
	h0.538c4.357-3.939,10.208-6.387,16.715-6.387c8.178,0,12.239,4.059,12.239,12.954v29.908l5.193,2.388v4.478h-26.447v-4.418
	l5.195-2.34v-26.5c0-4.919-2.149-6.758-6.508-6.758c-2.388,0-4.657,0.437-6.626,1.229v31.819l5.134,2.376v4.459H704.11v-4.479
	L703.996,520.212z M604.301,465.168l-5.384-2.446v-4.417l20.142-3.225h1.355v61.31l5.134,2.805v4.18l-19.104,2.21h-1.313v-5.016
	h-0.537c-2.031,2.567-6.148,5.254-12.179,5.254c-8.834,0-19.402-5.61-19.402-24.178c0-19.521,10.806-26.564,23.642-26.564
	c2.686,0,5.849,0.597,7.819,2.028v-11.94H604.301z M604.301,516.15v-32.779c-1.254-0.955-2.567-1.748-5.492-1.748
	c-5.038,0-8.895,4.536-8.895,18.206c0,11.978,3.044,17.193,9.42,17.193c2.478,0,3.869-0.502,4.955-0.942L604.301,516.15z
	 M404.469,540.807c-8.799,0-11.82-3.105-11.82-6.447c0-2.329,0.62-3.94,1.862-5.433h17.032c3.982,0,5.791,1.193,5.791,3.7
	C417.345,537.643,414.558,540.807,404.469,540.807L404.469,540.807z M404.605,480.632c3.523,0,5.792,1.552,5.792,11.223
	c0,9.67-2.275,10.68-5.738,10.68c-3.462,0-5.694-0.807-5.694-10.667c0-9.851,2.208-11.225,5.719-11.225L404.605,480.632z
	 M415.292,514.24h-17.312c-1.851,0-3.402-1.432-3.402-3.104c0-1.313,0.955-2.688,2.149-3.583c2.627,0.777,4.776,1.016,8,1.016
	c12.478,0,21.014-5.671,21.014-16.238c0-4.716-1.971-7.401-5.074-10.147v-0.359l8,2.807l1.073,0.06v-9.736h-0.895l-12.315,2.447
	h-0.687c-3.068-1.135-7.342-2.329-11.222-2.329c-12.477,0-21.11,6.191-21.11,16.704c0,6.406,3.224,11.176,8.042,13.814v0.508
	c-2.782,1.957-8.119,5.98-8.119,11.134c0,3.76,2.483,7.479,7.676,8.595v0.521c-5.461,1.135-11.582,2.925-11.582,9.192
	c0,6.446,9.344,11.224,24.572,11.224c18.924,0,27.115-7.282,27.115-18.805c0-9.491-5.254-13.909-15.939-13.909L415.292,514.24z
	 M536.537,478.183v4.419l5.433,2.507v32.834l-5.134,2.388v4.478h27.813v-4.418l-6.626-2.389v-27.048
	c2.746-1.314,6.358-1.756,10.686-1.756c1.42,0,3.104,0.18,4.077,0.436v-14.141c-0.537-0.182-1.594-0.264-2.388-0.264
	c-5.313,0-9.653,3.42-12.489,9.91h-0.478v-10.221h-1.372l-19.522,3.212V478.183z M514.33,515.375V502.24l-3.702,0.36
	c-3.701,0.357-6.745,2.864-6.745,7.521c0,5.373,2.925,7.105,6.029,7.105c1.792,0,3.619-0.896,4.5-1.852H514.33z M502.929,481.527
	l-3.404,9.909h-8.358v-12.781c4.537-1.398,10.03-3.678,18.506-3.678c12.956,0,20.716,3.82,20.716,14.686v28.178l5.133,2.387v3.653
	c-1.551,0.849-5.133,1.929-9.014,1.929c-5.015,0-9.551-1.611-10.269-6.864h-0.477c-2.15,4.298-7.881,6.924-13.874,6.924
	c-8.579,0-13.97-5.551-13.97-13.61c0-9.909,6.549-11.522,17.169-13.729l9.301-1.612v-6.322c0-6.221-1.875-9.313-8.06-9.313
	c-0.806,0-2.328,0.107-3.294,0.202L502.929,481.527z M436.425,485.05l-5.373-2.509v-4.358l20.178-3.163h1.373v34.08
	c0,5.523,2.704,6.508,6.776,6.508c2.984,0,4.178-0.537,5.791-1.151v-29.414l-5.434-2.507v-4.398l20.119-3.213h1.313v41.43
	l5.373,2.807v4.202l-19.581,2.149h-1.409l-0.018-6.447h-0.538c-3.092,3.82-8.197,6.627-14.745,6.627
	c-9.731,0-13.893-6.925-13.893-15.344v-25.306L436.425,485.05z M639.868,454.955c4.776,0,8.627,3.862,8.627,8.633
	c0,4.763-3.863,8.632-8.633,8.632c-4.776,0-8.657-3.82-8.657-8.598c0-4.775,3.88-8.596,8.657-8.596L639.868,454.955z"/>
</svg>
