<?xml version="1.0" encoding="utf-8"?>
<!-- Generator: Adobe Illustrator 16.0.4, SVG Export Plug-In . SVG Version: 6.00 Build 0)  -->
<!DOCTYPE svg PUBLIC "-//W3C//DTD SVG 1.1//EN" "http://www.w3.org/Graphics/SVG/1.1/DTD/svg11.dtd">
<svg version="1.1" id="Layer_1" xmlns="http://www.w3.org/2000/svg" xmlns:xlink="http://www.w3.org/1999/xlink" x="0px" y="0px"
	 width="129px" height="129px" viewBox="0 0 129 129" style="enable-background:new 0 0 129 129;" xml:space="preserve">
<style type="text/css">
<![CDATA[
	.st0{fill:#FFFFFF;}
	.st1{fill-rule:evenodd;clip-rule:evenodd;fill:#F8B132;}
	.st2{fill-rule:evenodd;clip-rule:evenodd;fill:#FAAF3F;}
	.st3{fill-rule:evenodd;clip-rule:evenodd;fill:#FFFFFF;}
	.st4{fill-rule:evenodd;clip-rule:evenodd;fill:#6C6D70;}
]]>
</style>
<g>
	<path class="st4" d="M20.1,76.1c1.3,2.6,3.5,4.3,6.1,4.3c2.5,0,4.8-1.7,6.1-4.3H20.1z M20.3,71.7c0,0.8,0.6,1.5,1.4,1.5
		s1.4-0.7,1.4-1.5s-0.6-1.4-1.4-1.4S20.3,70.9,20.3,71.7z M29.2,71.7c0,0.8,0.6,1.5,1.4,1.5c0.8,0,1.4-0.7,1.4-1.5s-0.6-1.4-1.4-1.4
		C29.9,70.3,29.2,70.9,29.2,71.7z M46.3,71.9c2,4,5.4,6.6,9.2,6.6c3.9,0,7.2-2.6,9.2-6.6H46.3z M46.6,65.4c0,1.2,1,2.2,2.2,2.2
		s2.2-1,2.2-2.2c0-1.2-1-2.2-2.2-2.2S46.6,64.1,46.6,65.4z M60.2,65.4c0,1.2,1,2.2,2.2,2.2c1.2,0,2.2-1,2.2-2.2c0-1.2-1-2.2-2.2-2.2
		C61.1,63.2,60.2,64.1,60.2,65.4z M81,68.1c2.6,5.2,7.1,8.7,12.2,8.7c5.1,0,9.5-3.4,12.2-8.7H81z M81.4,59.4c0,1.6,1.3,2.9,2.9,2.9
		c1.6,0,2.9-1.3,2.9-2.9c0-1.6-1.3-2.9-2.9-2.9C82.6,56.6,81.4,57.8,81.4,59.4z M99.2,59.4c0,1.6,1.3,2.9,2.9,2.9s2.9-1.3,2.9-2.9
		c0-1.6-1.3-2.9-2.9-2.9S99.2,57.8,99.2,59.4z M0,64.5C0,100.1,28.9,129,64.5,129S129,100.1,129,64.5S100.1,0,64.5,0S0,28.9,0,64.5z
		 M16.5,74.2c0-5.4,4.3-9.8,9.7-9.8s9.7,4.4,9.7,9.8S31.5,84,26.2,84S16.5,79.6,16.5,74.2z M40.9,69.2c0-8.2,6.6-14.8,14.7-14.8
		S70.2,61,70.2,69.2c0,8.2-6.6,14.8-14.7,14.8S40.9,77.4,40.9,69.2z M73.8,64.5c0-10.8,8.7-19.5,19.3-19.5
		c10.7,0,19.3,8.7,19.3,19.5S103.8,84,93.2,84C82.5,84,73.8,75.3,73.8,64.5z"/>
</g>
</svg>
