<?xml version="1.0" encoding="utf-8"?>
<!-- Generator: Adobe Illustrator 22.1.0, SVG Export Plug-In . SVG Version: 6.00 Build 0)  -->
<svg version="1.1" id="Layer_1" xmlns="http://www.w3.org/2000/svg" xmlns:xlink="http://www.w3.org/1999/xlink" x="0px" y="0px"
	 viewBox="0 0 132.8 133.5" style="enable-background:new 0 0 132.8 133.5;" xml:space="preserve">
<style type="text/css">
	.st0{fill:#6C6D70;}
	.st1{fill:#F8B132;}
	.st2{fill:#FFFFFF;}
	.st3{fill:none;stroke:#FFFFFF;stroke-width:5;stroke-miterlimit:10;}
</style>
<path class="st0" d="M66.4,2.7C30.8,2.7,1.9,31.6,1.9,67.2s28.9,64.5,64.5,64.5s64.5-28.9,64.5-64.5S102,2.7,66.4,2.7z M73.5,96.6
	c1.1-3.5,4.3-6.1,8.2-6.1c4.7,0,8.6,3.8,8.6,8.6c0,4.7-3.8,8.6-8.6,8.6c-3.9,0-7.2-2.6-8.2-6.1H52.6V48.1h-8.2V26.7h21.4v21.4h-8.2
	V67h15.9c1.1-3.5,4.3-6.1,8.2-6.1c4.7,0,8.6,3.8,8.6,8.6c0,4.7-3.8,8.6-8.6,8.6c-3.9,0-7.2-2.6-8.2-6.1H57.6v24.6H73.5z"/>
</svg>
