<?xml version="1.0" encoding="utf-8"?>
<!-- Generator: Adobe Illustrator 22.1.0, SVG Export Plug-In . SVG Version: 6.00 Build 0)  -->
<svg version="1.1" id="Layer_1" xmlns="http://www.w3.org/2000/svg" xmlns:xlink="http://www.w3.org/1999/xlink" x="0px" y="0px"
	 viewBox="0 0 132.8 133.5" style="enable-background:new 0 0 132.8 133.5;" xml:space="preserve">
<style type="text/css">
	.st0{fill:#6C6D70;}
	.st1{fill:#F8B132;}
	.st2{fill:#FFFFFF;}
	.st3{fill:none;stroke:#FFFFFF;stroke-width:5;stroke-miterlimit:10;}
</style>
<path class="st0" d="M66.2,2.7C30.6,2.7,1.7,31.6,1.7,67.2s28.9,64.5,64.5,64.5c35.6,0,64.5-28.9,64.5-64.5S101.8,2.7,66.2,2.7z
	 M53.9,95.4v-11l-17.3,17.3h-4.9V97l17.4-17.4l-11,0l6-6h15.8l0,15.6L53.9,95.4z M60.1,60.8H44.2l-6-6l11,0L31.8,37.3v-4.6h4.9
	l17.3,17.3V39l6.1,6.1L60.1,60.8z M100.6,101.6h-4.9L78.4,84.3v11l-6.1-6.1V73.6h15.8l6,6l-11,0L100.6,97V101.6z M100.6,37.3
	L83.2,54.8l11,0l-6,6H72.3V45.2l6.1-6.1v11l17.3-17.3h4.9V37.3z"/>
</svg>
