<?xml version="1.0" encoding="utf-8"?>
<!-- Generator: Adobe Illustrator 16.0.4, SVG Export Plug-In . SVG Version: 6.00 Build 0)  -->
<!DOCTYPE svg PUBLIC "-//W3C//DTD SVG 1.1//EN" "http://www.w3.org/Graphics/SVG/1.1/DTD/svg11.dtd">
<svg version="1.1" id="Layer_1" xmlns="http://www.w3.org/2000/svg" xmlns:xlink="http://www.w3.org/1999/xlink" x="0px" y="0px"
	 width="129px" height="129px" viewBox="0 0 129 129" style="enable-background:new 0 0 129 129;" xml:space="preserve">
<style type="text/css">
<![CDATA[
	.st0{fill:#FFFFFF;}
	.st1{fill-rule:evenodd;clip-rule:evenodd;fill:#F8B132;}
	.st2{fill-rule:evenodd;clip-rule:evenodd;fill:#FAAF3F;}
	.st3{fill-rule:evenodd;clip-rule:evenodd;fill:#FFFFFF;}
	.st4{fill-rule:evenodd;clip-rule:evenodd;fill:#6C6D70;}
]]>
</style>
<g>
	<path class="st4" d="M76,75.6c0-3.5-1.6-5.6-7.6-7.4v14.2C73.2,82,76,79.4,76,75.6z M62.4,57.2V43.5C57.5,43.8,55,46.6,55,50
		C55,53.3,56.5,55.4,62.4,57.2z M0,64.5C0,100.1,28.9,129,64.5,129S129,100.1,129,64.5S100.1,0,64.5,0S0,28.9,0,64.5z M85,75.1
		c0,8.6-6.6,14.3-16.3,15.2V98H62v-7.8c-6.6-0.8-12.8-3.5-18-7.8l4.9-7.1c4.4,3.6,8.5,6,13.5,6.7V66.7C51.2,63.7,46,59.4,46,50.6
		c0-8.5,6.5-14.2,16.1-15V31h6.7v4.7c5.6,0.7,10.2,2.7,14.4,6L78.8,49c-3.4-2.6-6.8-4.2-10.4-5v14.9C80,61.8,85,66.6,85,75.1z"/>
</g>
</svg>
