<?xml version="1.0" encoding="utf-8"?>
<!-- Generator: Adobe Illustrator 16.0.4, SVG Export Plug-In . SVG Version: 6.00 Build 0)  -->
<!DOCTYPE svg PUBLIC "-//W3C//DTD SVG 1.1//EN" "http://www.w3.org/Graphics/SVG/1.1/DTD/svg11.dtd">
<svg version="1.1" id="Layer_1" xmlns="http://www.w3.org/2000/svg" xmlns:xlink="http://www.w3.org/1999/xlink" x="0px" y="0px"
	 width="129px" height="129px" viewBox="0 0 129 129" style="enable-background:new 0 0 129 129;" xml:space="preserve">
<style type="text/css">
<![CDATA[
	.st0{fill:#FFFFFF;}
	.st1{fill-rule:evenodd;clip-rule:evenodd;fill:#F8B132;}
	.st2{fill-rule:evenodd;clip-rule:evenodd;fill:#FAAF3F;}
	.st3{fill-rule:evenodd;clip-rule:evenodd;fill:#FFFFFF;}
	.st4{fill-rule:evenodd;clip-rule:evenodd;fill:#6C6D70;}
]]>
</style>
<g>
	<path class="st4" d="M71.6,56.1L71.6,56.1c0-5-3.6-8.5-9-8.5h-5.1v16.8h5.1C67.9,64.4,71.6,61,71.6,56.1z M40.6,51.9L40.6,51.9
		c0-2.8-2-4.3-5.2-4.3h-4.9v8.5h5.1C38.7,56.2,40.6,54.3,40.6,51.9z M0,64.5C0,100.1,28.9,129,64.5,129S129,100.1,129,64.5
		S100.1,0,64.5,0S0,28.9,0,64.5z M55.1,92.3h7v-7.1H67v7.1h6.9l-9.5,9.7L55.1,92.3z M48,79h33v4.4H48V79z M103.6,47.6H88.4v5.5h13.4
		v5.7H88.4V70h-5.9V41.9h21V47.6z M77.4,56c0,7.8-5.5,14.1-14.9,14.1h-11V41.9h11C71.9,41.9,77.4,48.1,77.4,56L77.4,56z M46.4,51.8
		c0,6.5-4.8,10-11.1,10h-4.9V70h-5.9V41.9h11.3C42.6,41.9,46.4,46,46.4,51.8L46.4,51.8z"/>
</g>
</svg>
