<?xml version="1.0" encoding="utf-8"?>
<!-- Generator: Adobe Illustrator 16.0.4, SVG Export Plug-In . SVG Version: 6.00 Build 0)  -->
<!DOCTYPE svg PUBLIC "-//W3C//DTD SVG 1.1//EN" "http://www.w3.org/Graphics/SVG/1.1/DTD/svg11.dtd">
<svg version="1.1" id="Layer_1" xmlns="http://www.w3.org/2000/svg" xmlns:xlink="http://www.w3.org/1999/xlink" x="0px" y="0px"
	 width="129px" height="129px" viewBox="0 0 129 129" style="enable-background:new 0 0 129 129;" xml:space="preserve">
<style type="text/css">
<![CDATA[
	.st0{fill:#FFFFFF;}
	.st1{fill-rule:evenodd;clip-rule:evenodd;fill:#F8B132;}
	.st2{fill-rule:evenodd;clip-rule:evenodd;fill:#FAAF3F;}
	.st3{fill-rule:evenodd;clip-rule:evenodd;fill:#FFFFFF;}
	.st4{fill-rule:evenodd;clip-rule:evenodd;fill:#6C6D70;}
]]>
</style>
<g>
	<path class="st4" d="M98.9,63.2L98.9,63.2c0-1.5-0.9-2.4-2.9-2.4h-4.5v4.8h4.6C97.9,65.6,98.9,64.8,98.9,63.2z M98.3,55.5
		L98.3,55.5c0-1.3-1-2.1-2.7-2.1h-4v4.1h3.8C97.2,57.5,98.3,56.9,98.3,55.5z M63.2,56.8L63.2,56.8c0-1.9-1.2-2.9-3.1-2.9h-3v5.8h3.1
		C62.1,59.6,63.2,58.4,63.2,56.8z M0,64.5C0,100.1,28.9,129,64.5,129S129,100.1,129,64.5S100.1,0,64.5,0S0,28.9,0,64.5z M56.1,91.3
		h7v-7.1H68v7.1h6.9l-9.5,9.7L56.1,91.3z M49,78h33v4.4H49V78z M102.5,63.8c0,3.5-2.4,5.1-6,5.1H88V50.1h8.2c3.6,0,5.6,1.7,5.6,4.6
		v0.1c0,2.2-1,3.4-2.4,4.1C101.3,59.6,102.5,60.8,102.5,63.8L102.5,63.8z M84.3,60.5c0,5.6-2.8,8.5-7.3,8.5c-4.5,0-7.2-2.8-7.2-8.3
		V50h3.6v10.6c0,3,1.4,4.6,3.7,4.6s3.7-1.5,3.7-4.5V50h3.6V60.5z M66.8,56.7c0,4.4-2.9,6.8-6.8,6.8h-2.9V69h-3.6V50h6.9
		C64.5,50,66.8,52.7,66.8,56.7L66.8,56.7z M49.6,69.1H28.6V40.9h20.9v5.7h-15v5.5h13.2v5.7H34.4v5.5h15.2V69.1z"/>
</g>
</svg>
