<?xml version="1.0" encoding="utf-8"?>
<!-- Generator: Adobe Illustrator 16.0.4, SVG Export Plug-In . SVG Version: 6.00 Build 0)  -->
<!DOCTYPE svg PUBLIC "-//W3C//DTD SVG 1.1//EN" "http://www.w3.org/Graphics/SVG/1.1/DTD/svg11.dtd">
<svg version="1.1" id="Layer_1" xmlns="http://www.w3.org/2000/svg" xmlns:xlink="http://www.w3.org/1999/xlink" x="0px" y="0px"
	 width="129px" height="129px" viewBox="0 0 129 129" style="enable-background:new 0 0 129 129;" xml:space="preserve">
<style type="text/css">
<![CDATA[
	.st0{fill:#FFFFFF;}
	.st1{fill-rule:evenodd;clip-rule:evenodd;fill:#F8B132;}
	.st2{fill-rule:evenodd;clip-rule:evenodd;fill:#FAAF3F;}
	.st3{fill-rule:evenodd;clip-rule:evenodd;fill:#FFFFFF;}
	.st4{fill-rule:evenodd;clip-rule:evenodd;fill:#6C6D70;}
]]>
</style>
<g>
	<path class="st4" d="M45.1,51.5L45.1,51.5c0-2.5-2-3.8-5.4-3.8h-6.8v7.5h6.9C43.2,55.2,45.1,53.7,45.1,51.5z M0,64.5
		C0,100.1,28.9,129,64.5,129S129,100.1,129,64.5S100.1,0,64.5,0S0,28.9,0,64.5z M56.1,92.3h7v-7.1H68v7.1h6.9l-9.5,9.7L56.1,92.3z
		 M49,79h33v4.4H49V79z M103.1,47.6H87.9v5.5h13.4v5.7H87.9V70h-5.9V41.9h21V47.6z M77.5,47.6h-8.5V70h-5.9V47.6h-8.5v-5.7h22.9
		V47.6z M51.8,70h-6.9l-6.6-9.2h-5.4V70h-5.9V41.9h13.2c6.9,0,10.7,3.6,10.7,9.1v0.1c0,4.3-2.3,7.2-5.6,8.6L51.8,70z"/>
</g>
</svg>
