<?xml version="1.0" encoding="utf-8"?>
<!-- Generator: Adobe Illustrator 16.0.4, SVG Export Plug-In . SVG Version: 6.00 Build 0)  -->
<!DOCTYPE svg PUBLIC "-//W3C//DTD SVG 1.1//EN" "http://www.w3.org/Graphics/SVG/1.1/DTD/svg11.dtd">
<svg version="1.1" id="Layer_1" xmlns="http://www.w3.org/2000/svg" xmlns:xlink="http://www.w3.org/1999/xlink" x="0px" y="0px"
	 width="129px" height="129px" viewBox="0 0 129 129" style="enable-background:new 0 0 129 129;" xml:space="preserve">
<style type="text/css">
<![CDATA[
	.st0{fill:#FFFFFF;}
	.st1{fill-rule:evenodd;clip-rule:evenodd;fill:#F8B132;}
	.st2{fill-rule:evenodd;clip-rule:evenodd;fill:#FAAF3F;}
	.st3{fill-rule:evenodd;clip-rule:evenodd;fill:#FFFFFF;}
	.st4{fill-rule:evenodd;clip-rule:evenodd;fill:#6C6D70;}
]]>
</style>
<g>
	<path class="st4" d="M0,64.5C0,100.1,28.9,129,64.5,129S129,100.1,129,64.5S100.1,0,64.5,0S0,28.9,0,64.5z M67.2,50.9V39.3h9.3V39
		c0-1.3,1-2.4,2.2-2.4h10.7v2.9h-0.1v11.4H67.2z M69.6,30h17.9v5h-8.3c-1.5,0-3.7,0.8-3.7,2.4v0.3h-5.9V30z M27.5,74V54.8h14.4v-0.4
		c0-2.2,1.6-3.9,3.5-3.9h16.7v4.7H62V74H27.5z M31.1,39.6h27.8v8.2H46c-2.4,0-5.7,1.3-5.7,3.9v0.6h-9.2V39.6z M87,62l0,15.3l14.3,0
		l0.2,7.8H87L87,99l-8,0l0.1-13.8H64.5l0.2-7.8l14.6,0L79.4,62L87,62z"/>
</g>
</svg>
