<?xml version="1.0" encoding="utf-8"?>
<!-- Generator: Adobe Illustrator 16.0.4, SVG Export Plug-In . SVG Version: 6.00 Build 0)  -->
<!DOCTYPE svg PUBLIC "-//W3C//DTD SVG 1.1//EN" "http://www.w3.org/Graphics/SVG/1.1/DTD/svg11.dtd">
<svg version="1.1" id="Layer_1" xmlns="http://www.w3.org/2000/svg" xmlns:xlink="http://www.w3.org/1999/xlink" x="0px" y="0px"
	 width="129px" height="129px" viewBox="0 0 129 129" style="enable-background:new 0 0 129 129;" xml:space="preserve">
<style type="text/css">
<![CDATA[
	.st0{fill:#FFFFFF;}
	.st1{fill-rule:evenodd;clip-rule:evenodd;fill:#F8B132;}
	.st2{fill-rule:evenodd;clip-rule:evenodd;fill:#FAAF3F;}
	.st3{fill-rule:evenodd;clip-rule:evenodd;fill:#FFFFFF;}
	.st4{fill-rule:evenodd;clip-rule:evenodd;fill:#6C6D70;}
]]>
</style>
<g>
	<path class="st4" d="M80.5,73c-1.6-2.2-2.5-4.9-2.5-7.8c0-2.9,0.9-5.6,2.5-7.8L72,48.7c-2.2,1.5-4.7,2.3-7.5,2.3
		c-2.6,0-5-0.7-7.1-2l-8.6,8.8c1.4,2.1,2.2,4.7,2.2,7.4c0,3.1-1,5.9-2.8,8.2l7.6,7.8c2.4-2,5.4-3.2,8.7-3.2c3.1,0,6,1.1,8.3,2.9
		L80.5,73z M0,64.5C0,100.1,28.9,129,64.5,129S129,100.1,129,64.5S100.1,0,64.5,0S0,28.9,0,64.5z M76.6,85.4
		c0.9,1.8,1.4,3.9,1.4,6.1C78,99,72,105,64.5,105S51,99,51,91.5c0-2,0.4-3.9,1.2-5.6l-8.5-8.8c-1.9,1-4,1.5-6.2,1.5
		c-7.5,0-13.5-6-13.5-13.5c0-7.4,6-13.5,13.5-13.5c2.6,0,5,0.7,7.1,2l8.6-8.8c-1.4-2.1-2.2-4.6-2.2-7.4C51,30,57,24,64.5,24
		S78,30,78,37.5c0,2.5-0.7,4.9-1.9,6.9l8.7,9c2-1.1,4.2-1.8,6.7-1.8c7.5,0,13.5,6.1,13.5,13.5c0,7.5-6,13.5-13.5,13.5
		c-2.4,0-4.7-0.6-6.7-1.8L76.6,85.4z"/>
</g>
</svg>
