<?xml version="1.0" encoding="utf-8"?>
<!-- Generator: Adobe Illustrator 16.0.4, SVG Export Plug-In . SVG Version: 6.00 Build 0)  -->
<!DOCTYPE svg PUBLIC "-//W3C//DTD SVG 1.1//EN" "http://www.w3.org/Graphics/SVG/1.1/DTD/svg11.dtd">
<svg version="1.1" id="Layer_1" xmlns="http://www.w3.org/2000/svg" xmlns:xlink="http://www.w3.org/1999/xlink" x="0px" y="0px"
	 width="129px" height="129px" viewBox="0 0 129 129" style="enable-background:new 0 0 129 129;" xml:space="preserve">
<style type="text/css">
<![CDATA[
	.st0{fill:#FFFFFF;}
	.st1{fill-rule:evenodd;clip-rule:evenodd;fill:#F8B132;}
	.st2{fill-rule:evenodd;clip-rule:evenodd;fill:#FAAF3F;}
	.st3{fill-rule:evenodd;clip-rule:evenodd;fill:#FFFFFF;}
	.st4{fill-rule:evenodd;clip-rule:evenodd;fill:#6C6D70;}
]]>
</style>
<g>
	<path class="st4" d="M72.5,62c0,3.8-2.5,6.2-5.5,6.2c-3,0-5.6-2.4-5.6-6.2s2.6-6.2,5.6-6.2C70,55.8,72.5,58.2,72.5,62z M77,62
		c0-6.4-4.4-10-9-10c-3.1,0-5.1,1.6-6.6,3.6V45H57v26.6h4.4v-3c1.4,1.8,3.4,3.4,6.6,3.4C72.6,72,77,68.4,77,62z M91.3,74.5l-1.4-1.3
		c-0.7,0.7-1.5,1.2-2.5,1.2c-1.7,0-2.9-1.4-2.9-3.1c0-1.7,1.2-3.1,2.8-3.1c1.1,0,1.9,0.5,2.6,1.2l1.4-1.5c-0.9-1-2.1-1.7-3.9-1.7
		c-2.9,0-5.1,2.3-5.1,5.1c0,2.8,2.1,5,5.1,5C89.2,76.3,90.3,75.6,91.3,74.5z M43.1,70.3c0,2.2-2,3.7-4.7,3.7c-1.9,0-3.4-0.9-3.4-2.6
		v-0.1c0-1.8,1.5-2.8,4-2.8c1.6,0,3,0.3,4,0.7V70.3z M47,76.6V66.3c0-4.6-2.5-7.3-7.8-7.3c-2.9,0-4.8,0.6-6.7,1.5l1.1,3.2
		c1.6-0.7,3.1-1.1,5-1.1c2.8,0,4.4,1.3,4.4,3.7v0.4c-1.4-0.4-2.7-0.7-4.9-0.7C34,66,31,67.8,31,71.6v0.1c0,3.5,2.9,5.4,6.3,5.4
		c2.7,0,4.5-1.1,5.7-2.5v2.1H47z M0,64.5C0,100.1,28.9,129,64.5,129S129,100.1,129,64.5S100.1,0,64.5,0S0,28.9,0,64.5z M44.4,83.8
		c-2,2.7-5.2,4.5-8.8,4.5c-5.8,0-10.5-4.5-10.9-10.2c-0.3,0-0.6,0.1-0.9,0.1c-3.2,0-5.9-2.7-5.9-5.9c0-1.9,0.9-3.6,2.3-4.7
		c-0.4-1.2-0.7-2.4-0.7-3.8c0-6.1,4.9-11,10.9-11c2.7,0,5.1,1,7,2.6c3.7-9.8,13.1-16.7,24.1-16.7c4.3,0,8.3,1.1,11.9,2.9
		c1.9-1.8,4.6-2.9,7.4-2.9c6,0,10.9,4.9,10.9,11c0,2.1-0.6,4.1-1.6,5.8c2.5,1.6,4.6,3.8,6.1,6.4c1.1-0.4,2.4-0.6,3.7-0.6
		c6,0,10.9,4.9,10.9,11s-4.9,11-10.9,11c-2,0-3.8-0.5-5.4-1.4c-3.2,4-8.1,6.5-13.6,6.5c-2.3,0-4.4-0.4-6.4-1.2
		c-3.8,2.2-8.2,3.5-12.9,3.5C55,90.5,49,88,44.4,83.8z"/>
</g>
</svg>
