<?xml version="1.0" encoding="utf-8"?>
<!-- Generator: Adobe Illustrator 16.0.4, SVG Export Plug-In . SVG Version: 6.00 Build 0)  -->
<!DOCTYPE svg PUBLIC "-//W3C//DTD SVG 1.1//EN" "http://www.w3.org/Graphics/SVG/1.1/DTD/svg11.dtd">
<svg version="1.1" id="Layer_1" xmlns="http://www.w3.org/2000/svg" xmlns:xlink="http://www.w3.org/1999/xlink" x="0px" y="0px"
	 width="129px" height="129px" viewBox="0 0 129 129" style="enable-background:new 0 0 129 129;" xml:space="preserve">
<style type="text/css">
<![CDATA[
	.st0{fill:#FFFFFF;}
	.st1{fill-rule:evenodd;clip-rule:evenodd;fill:#F8B132;}
	.st2{fill-rule:evenodd;clip-rule:evenodd;fill:#FAAF3F;}
	.st3{fill-rule:evenodd;clip-rule:evenodd;fill:#FFFFFF;}
	.st4{fill-rule:evenodd;clip-rule:evenodd;fill:#6C6D70;}
]]>
</style>
<path class="st4" d="M0,64.5C0,100.1,28.9,129,64.5,129S129,100.1,129,64.5S100.1,0,64.5,0S0,28.9,0,64.5z M92.8,84.9l0.3,0.9v0.5
	c0,0.2,0,0.3-0.1,0.5c-0.1,0.2-0.1,0.7-0.2,1c0,0.2-0.3,0.6-0.3,0.8c0,0.2-0.4,0.8-0.4,0.9c0,0.1-0.4,0.7-0.4,0.8
	c0,0.1-0.2,0.7-0.1,1.1s-0.3,0.4-0.3,0.4S90.9,92,90.6,92s-0.5,0.1-0.5,0.1l-0.5-0.8c0,0,0-0.9,0-1.2c0-0.3,0.2-0.4,0.4-0.4
	c0.2-0.1,0.3-0.5,0.3-0.8s0-0.6,0-0.7c0-0.1,0-0.6-0.1-0.9C90,86.9,90.4,87,90.4,87s0.4-0.2,0.6-0.2c0.2,0,0.5-0.3,0.5-0.3l0.8-0.4
	C92.2,86,92.7,85.4,92.8,84.9z M36.8,107c-0.3-0.2-0.9-0.5-1.1-0.6c-0.2-0.2-0.8-1.1-0.8-1.1l-0.5-0.9c0,0-0.5-0.7-0.4-0.9
	s0.4-0.4,0.4-0.5c0-0.1,0.2-0.5,0-0.6c-0.2-0.1-0.2-0.2-0.3-0.5c-0.1-0.4-0.1-0.7-0.3-0.8c-0.2-0.1-0.3-0.6-0.5-0.7
	c-0.2,0-0.3-0.3-0.3-0.3l-0.2-3.3c0,0-0.1-1.5-0.2-1.8c-0.1-0.3,0.1-1-0.1-1.6c-0.2-0.6,0-1.4-0.1-1.6c-0.1-0.2,0.1-0.9,0-1.6
	c-0.1-0.7,0.5-1.5,0-1.7c-0.5-0.2-0.1-0.6-0.5-0.6c-0.4,0-0.7-0.2-1.1-0.5c-0.4-0.3-1.1-0.8-1.3-1c-0.2-0.2-0.9-0.7-1.1-0.9
	c-0.2-0.2-0.4-0.9-0.6-1.1c-0.2-0.2-0.2-0.8-0.5-1.2s-0.6-1-0.7-1.1c-0.1-0.1-1-1.2-1-1.2l0.1-0.7c0,0,0.6-0.4,0.5-0.5
	c-0.1-0.1,0-0.2-0.2-0.5c-0.3-0.2-0.2-0.7,0-0.9c0.2-0.2,0.6-0.9,0.6-0.9l0.6-1c0,0,0.5-0.5,0.5-0.9s0.7-0.6,0.3-0.9
	c-0.4-0.3-0.2-0.6-0.3-0.9c-0.1-0.2,0-0.4,0.3-0.7c0.4-0.2,1-1.2,1-1.2s0.5-0.1,0.6-0.1c0.1,0,0.3-1.3,0.7-0.5
	c0.4,0.9,0.5,0.4,0.4,1c-0.1,0.6,0.2,0.5,0.3,0.3l0.1-0.1c0,0,0,0,0.2-0.5c0.3-0.7,0.2-1,0.4-0.8c0.2,0.2,0.3,0.2,0.7,0.4
	c0.4,0.1,0.5,0.1,0.6,0.3c0.1,0.2,0.1-0.1,0.8,0c0.7,0.1,1.7-0.2,1.6,0.2c-0.1,0.2-0.1,0.2-0.2,0.2c0,0,0.1,0,0.4,0.2
	c0.6,0.5,0.7,0.5,1,0.6s0.6,0,1.1,0.5c0.5,0.5,0.6,0.5,0.7,0.8c0.1,0.2,0.3,0.1,0.5,0.3c0.2,0.2,0.5,0.2,0.8,0.2
	c0.3,0,0-0.2,0.5,0.1c0.4,0.3,0.8,0.4,1,1c0.2,0.6,0.6,0.6,0.3,1.3c-0.3,0.7-1,0.9-0.7,0.9s0.8-0.3,1-0.2c0.2,0,0.2-0.1,0.5,0
	c0.2,0.1,0.2,0,0.3,0c0,0,0,0,0,0.1c0,0.1,0,0.1,0,0.1l0,0.1v0c0-0.1,0.1-0.3,0.4-0.2c0.5,0.1,0.2-0.2,0.8,0.3
	c0.6,0.5,0.6,0.4,0.8,0.6c0.2,0.3,0.4-0.2,0.5,0c0.1,0.1,0.5,0,0.9,0.1c0.4,0.1,0.1-0.2,0.7,0.1c0.6,0.4,1.2,0.2,1.3,0.6
	c0.1,0.3,0.5,0.2,0.6,0.4c0.2,0.2,0.2-0.1,0.4,0.2c0.2,0.3,0.7,0.2,0.6,0.5c-0.1,0.3,0.1,0.1,0,0.5c-0.1,0.4-0.4,1.1-0.6,1.2
	c-0.2,0.2-0.2,0.4-0.4,0.6c-0.2,0.2-0.1-0.2-0.3,0.4C48,84.4,48,84.5,47.8,85c-0.1,0.3-0.1,0.3-0.1,0.3l-0.1,0.3
	c-0.1,0.5-0.1,0.9-0.2,1.5c-0.1,0.6-0.1,0.6-0.2,1.1c-0.1,0.5,0.2-0.2-0.2,0.7c-0.4,0.9-0.4,0.9-0.5,1.3c-0.1,0.4,0,0.1-0.4,0.3
	c-0.2,0.1-0.3,0.2-0.3,0.2c-0.1,0-0.1,0.1-0.4,0.1c-0.5,0.2-1.2,0.3-1.4,0.4c-0.2,0-1,0.3-0.8,0.8c0.2,0.5,0.2,0.6,0,1.2
	c-0.2,0.6-0.6,0.8-0.6,1.1c0,0.3-0.2,0.6-0.2,0.8c0,0.2,0.4-0.2-0.1,0.4c-0.5,0.6-0.5,0.5-0.7,0.8c-0.1,0.2-0.1,0.2-0.1,0.2
	l-0.1,0.2c-0.2,0.3-0.6,0.4-0.6,0.4s0,0.2-0.1,0.1c-0.2-0.1-0.1,0-0.8-0.1c-0.6-0.2-0.7-0.6-0.8-0.3c-0.1,0.3,0,0.5,0.4,0.7
	c0.4,0.3,1,0.4,0.8,0.7c-0.2,0.3-0.2,0.3-0.3,0.5c-0.1,0.1,0,0.1,0,0.1l-0.1,0.1c-0.3,0.1-0.4,0.7-0.6,0.7c-0.1,0-0.2,0.2-0.4,0.1
	c-0.2-0.1-0.6-0.4-0.7-0.2c-0.1,0.2-0.2-0.2-0.2,0.4c0,0.6,0.1,0.9-0.1,1c-0.2,0.1-0.7,0-0.7,0l-0.1-0.2l-0.3,0.1
	c0,0-0.1,0.5,0.1,0.6c0.2,0.1,0.2,0.2,0.4,0.4c0.2,0.2,0.1,0.7,0.1,0.7s0,0.1-0.2,0.3c-0.2,0.2-0.3,0.4-0.3,0.5s-0.3,0.7,0.1,0.6
	c0.4,0,0.7-0.2,0.7,0.4c0,0.7,0.2,0.5,0,0.9c-0.2,0.5-0.4,0.5-0.4,0.9s0,0.5,0.1,0.7c0.1,0.2,0.2,0.2,0.2,0.2c0,0,0,0-0.1,0.1
	C37.4,107.1,36.8,107,36.8,107z M26.1,73.6l-0.5-0.2L25.1,73l-0.6-0.1c0,0-0.5-0.4-0.6-0.5c-0.1-0.1-0.3-0.2-0.3-0.5
	c0-0.3-0.1-0.2-0.1-0.6c0-0.3-0.3-0.3-0.5-0.5c-0.1-0.2-0.2-0.3-0.4-0.5c-0.2-0.2-0.2,0-0.4-0.1c-0.2,0-0.2,0-0.4,0
	c-0.2,0-0.4,0-0.6-0.2c-0.2-0.2-0.4-0.1-0.6-0.3c-0.2-0.2-0.3-0.2-0.4-0.4c-0.1-0.2-0.4-0.2-0.5-0.4c-0.1-0.2-0.4,0-0.5,0
	c-0.1-0.1-0.5,0.2-0.5,0.2s-0.4,0-0.5,0c-0.1,0-0.5-0.1-0.5-0.1s-0.5-0.1-0.7-0.2c-0.2-0.1-0.6-0.4-0.6-0.4s-0.5-0.2-0.6-0.4
	c-0.1-0.2-0.7-0.4-0.7-0.5c0-0.1-0.6-0.3-0.6-0.3s-0.2-0.4-0.1-0.8c0.1-0.4,0.2-0.3,0-0.6s-0.2-0.3-0.5-0.8
	c-0.2-0.5-0.2-0.6-0.6-1.2c-0.4-0.6-0.2-0.1-0.4-0.4c-0.2-0.3-0.5-1-0.6-1.2c-0.1-0.1-0.1-0.2-0.2-0.4c0.6-7.7,2.9-14.9,6.5-21.3
	c0.3-0.1,0.5-0.2,0.8-0.2c0.7-0.1,1.6-0.2,1.9-0.2c0.3,0,1.2,0.3,1.2,0.3s2.7,0.1,2.8,0.1c0.1,0-0.1,0.4,0,0.4
	c0.1,0,0.4,0.2,0.7,0.2c0.4,0,0.7,0.2,0.8,0.2c0.1,0,0.5,0.5,0.5,0.4c0-0.1,0.4-0.5,0.6-0.7s0.6,0,0.9-0.1s1.4,0,1.8,0
	c0.4,0,0.7,0.3,0.9,0.3c0.2,0,0.2,0,0.5,0.2c0.2,0.2,1.2-0.7,1.5-1.5c0.3-0.8,0.7-0.5,1.1-0.7c0.4-0.2,0.2,0.4,0.2,0.7
	c0,0.4,0,0.2,0.3,0.3c0.3,0.1,0.2,0.1,0.2,0.1s-0.1,0.3-0.1,0.5c0,0.2,0.1,0.2,0.6-0.1c0.5-0.2,0.3,0,1-0.3c0.7-0.3,0.4-0.4,0.6-0.4
	c0.2,0,0.4-0.1,0.3,0.3c0,0.4-0.5,0.6-0.8,0.7c-0.3,0.2-0.8,0.1-1.1,0.3c-0.3,0.2-0.7,0.3-1,0.6s-0.3,0-0.3-0.1
	c0-0.1-0.3-0.2-0.5-0.3c-0.2-0.1-0.1,0.5-0.1,0.5s0,0.4-0.2,0.6c-0.2,0.2-0.7,0.2-1,0.2c-0.3,0.1-1.3,0.5-1.8,0.7
	c-0.6,0.2-1.7,1.2-1.8,1.4c-0.1,0.2,0,0.7,0,1c0.1,0.2,0.9,0.5,0.9,0.7c0,0.2,2.6,0.6,2.6,0.6l-0.4,0.4c0,0-0.2,0.9,0,1.1
	c0.2,0.2,0.8,0.4,1.1,0.3c0.2-0.1,0.5-0.9,0.5-1.2c0-0.3,0.5-0.4,0.5-0.4s0.6-0.4,1.2-0.5c0.7-0.1,0.1-0.5,0.2-1.7
	c0.1-1.3,0.4-0.5,0.5-0.6c0.2-0.1,1-0.9,1.2-1.1c0.2-0.2,0.8,0.1,1,0.1c0.2,0,0.9,0.1,1.1,0.5s0.2,0.2,0.1,0.5
	c-0.1,0.3,0.2,0.9,0.5,0.8c0.2-0.1,1.4-0.7,1.6-0.8c0.2-0.1,0.3,0,0.4,0c0.1,0,0,0.5,0,0.5s0,0.2-0.1,0.8c-0.1,0.6,0,0.5,0.2,0.6
	c0.2,0.1,0.1,0.2,0.4,0.7c0.3,0.5,0.2,0,0.4,0c0.2-0.1,0.4,0.3,0.6,0.5c0.2,0.2-0.2,0.5-0.2,0.5s-0.3,0.2-0.4,0.4
	c-0.1,0.2-0.7,0.5-1,0.7c-0.3,0.2-0.8,0.1-1.1,0.1c-0.4,0-2,0-2.6,0.2c-0.7,0.2-1.2,0.4-1.4,0.5c-0.2,0.1-0.2,0.4,0,0.4
	c0.2-0.1,0.5,0,0.7,0c0.1,0,1.1-0.2,1.5-0.1c0.4,0.2-0.2,0.3-0.7,0.7C38,52,38.7,52,39.1,52.1c0.4,0.1,0.4,0.1,1-0.2
	c0.6-0.2,0.3-0.1,0.5,0c0.2,0.1-0.1,0.4-0.1,0.4s0,0.1-0.7,0.3c-0.6,0.2-0.4,0-0.7,0.1c-0.3,0-0.2,0.2-1,0.8
	c-0.8,0.6-0.7,0.1-0.5-0.3c0.2-0.4-0.4-0.1,0.5-0.6c0.8-0.5-0.1-0.1-0.4,0c-0.3,0.1-1,0.5-1.2,0.5c-0.2,0-0.8,0.5-1.2,0.8
	c-0.4,0.3-0.4,0.4-0.4,0.8c0,0.4-0.7,0.2-0.8,0.2c-0.1,0-0.9,0.4-0.9,0.6c0,0.2-0.5,0.5-0.5,0.5s-0.5,0.4-0.6,0.6s-0.8,0.7-0.9,1.1
	c0,0.3-0.3,0.4-0.3,0.4s-0.7,0.5-0.9,0.6c-0.3,0.2-1.5,1-2,1.4s-0.5,0.5-0.4,0.8c0.1,0.3-0.1,0.5,0.2,1.4c0.3,0.9-0.1,1.1-0.1,1.1
	s-0.2,0.3-0.4,0.5c-0.1,0.1-0.4-0.5-0.4-0.5s-0.2-0.4-0.2-1.2s-0.2-0.3-0.2-0.5c0-0.1-0.2-0.1-0.2-0.2c0-0.1-0.4-0.2-0.7-0.4
	c-0.3-0.2-0.5,0-0.5-0.2c-0.1-0.1-0.6,0-0.6-0.1c0-0.1-0.3,0-0.7,0.6c-0.3,0.5-0.4,0.3-0.6,0.3c-0.2,0-0.6,0.1-0.7-0.3
	c-0.1-0.5-0.6,0-0.8,0c-0.2,0-0.5,0.1-0.7,0.2c-0.3,0.1-0.6,0.3-0.7,0.5c-0.2,0.2-0.8,0.4-0.9,0.5c-0.1,0.2-0.2,0.6-0.2,0.7
	c0,0.1-0.4,1-0.4,1.2c0,0.2-0.4,1.1-0.4,1.3c0,0.3,0.1,0.9,0.2,1.2c0.2,0.3,1,0.7,1.2,0.8s0.8,0.1,0.8,0.1s0.5-0.2,0.7-0.3
	s0.5-0.6,0.7-1.1c0.2-0.5,0.2-0.2,0.4-0.3c0.2-0.1,0.7,0,0.9,0.1c0.2,0.2,0.1,0.2,0.1,0.3c0,0.1-0.4,1-0.5,1.2
	c-0.1,0.2-0.6,1.5-0.5,1.4c0.1,0,0.5-0.2,0.9-0.2c0.4,0,1,0.1,1.2,0.2c0.3,0.2,0,0.2,0.1,0.4c0,0.2,0,0.8-0.1,1.3
	c-0.1,0.5,0,0.9,0,1.2s0.2,0.5,0.2,0.5s0.5,0.5,0.7,0.6c0.2,0,0.3,0.3,0.3,0.3L26.1,73.6z M39.4,35.5l2.5-0.3c0,0,0.9,0,1.3-0.3
	c0.4-0.3,0-0.3,1.3-0.6c1.3-0.2,0.9-0.4,1.6-0.2c0.7,0.1,0.9,0.1,1.6,0.2c0.7,0.1,0.9-0.1,1.6,0.1c0.7,0.2,1,0.1,1.5,0.1h1.7
	c0.9,0,1.7-0.5,2-0.2c0.3,0.3,0.5,0.2,1.6,0.3c1.1,0.1,1.5-0.1,1.9,0c0.4,0.1,1.2-0.1,2,0c0.9,0.1,1.3-0.1,1.6-0.1
	c0.3,0,0.6-0.4,1-0.1c0.4,0.4,1-0.1,1.1,0.4c0,0.3,0.4,0.3,0.4,0.3c0,0-0.1,0.1-0.4,0.2c-0.4,0.2-0.6,0.3-0.7,0.4
	c-0.1,0.1-0.2,0.2-0.5,0.4c-0.6,0.5,0.4,0.9-0.8,1.3c-1.2,0.4-1.4-0.2-1.7,0.5c-0.3,0.7,0,0.9-0.1,1.3c-0.1,0.4-0.2,0.4-0.6,0.7
	c-0.4,0.3-0.4,0-1.2,0.2c-0.9,0.2-1.5,0.4-1.9,0.4c-0.4,0-1.2,0.3-1.4,0.4c-0.2,0.1,0.4,0.3-0.9,0.7c-1.3,0.4-1.6,0.3-2,0.8
	s-0.2,0.5-0.5,0.9c-0.2,0.3-1,1.5-1.4,1.2c-0.4-0.3-0.6-0.2-0.9-0.5c-0.3-0.3-0.5-0.7-0.7-1c-0.2-0.2-0.2-0.9-0.3-1.2
	s-0.6-1.2,0-1.1c0.6,0.1,1,0.1,1.2-0.1c0.2-0.1,0.4-0.5,0.4-0.5s-0.1-0.7-0.2-1.1c-0.2-0.4-0.1-0.7-0.4-1c-0.3-0.4-0.3-0.3-0.8-0.7
	c-0.4-0.4-0.3-0.5-1-0.6c-0.7-0.1-0.9-0.2-1.1-0.2c-0.2,0.1-1.1-0.4-0.2-0.5s1.7,0.1,1.7,0.1s1.1-0.5,0.7-0.6
	c-0.4-0.1,0.6-0.6-0.3-0.4c-0.9,0.2-1.9,0.4-2.1,0.5c-0.2,0.1-0.9,0.1-1.5,0.3c-0.6,0.2-1.4,0.1-1.7,0.5c-0.2,0.3-0.2,0.4-0.2,0.4
	c0,0-0.1,0-0.2,0c-0.4-0.1,0.3-0.4-0.6,0c-0.5,0.3-0.6,0.3-0.8,0.3c-0.1,0-0.1,0-0.3-0.1c-0.4-0.1-0.8-0.3-0.8-0.3s0.6-0.1-0.2-0.1
	c-0.8-0.1-0.8-0.1-1.1-0.4C38.7,36,38.9,36,39,35.8C39.2,35.7,39.4,35.5,39.4,35.5z M38,38.2l0.4,0.4c0,0,0.3-0.1,1.2-0.3
	c0.9-0.2,1-0.1,1.5,0.2c0.5,0.3,0.4,0.3,1.4,0.4c0.9,0.1,0.2,0.7,0.2,0.7l0.8,0.8l0.2,0.8l-0.2,0.5c0,0-0.5-0.3-0.8-0.3
	c-0.1,0-0.1,0-0.1,0c0,0,0.2,0.2,0.5,0.9c0.4,0.9-0.7,0.1-0.7,0.1s-0.7,0.2-0.1,0.8c0.6,0.6-0.6,0.5-0.9,0.4
	c-0.4-0.2-1.2-0.5-1.6-0.8c-0.4-0.3-0.2-0.6,0.4-0.7c0.6-0.2,0.7-0.4,0.9-0.5c0.2-0.2-0.1-0.7-0.4-1.5c-0.3-0.7-0.2-0.2-1.6-0.7
	c-1.4-0.5-1,0.1-1.4,0.3c-0.4,0.2-0.5-0.5-0.7-0.7C36.9,39,37.7,38.5,38,38.2z M24.2,39c0.4-0.4,1.4-1.2,1.7-1
	c0.4,0.2,0.9-0.2,1.4,0.2c0.4,0.4,0.9,0.8,1.3,0.9c0.4,0.1,0.8-0.3,1.2-0.1c0.4,0.2,1.7-0.9,1.4-0.1c-0.2,0.9,0.3,1.1-0.4,1.2
	c-0.7,0.1-1.4,0.5-1.7,0.4c-0.3-0.2-0.6-0.4-1.1-0.1c-0.5,0.2-0.2,0.2-0.8,0.1c-0.6-0.1-0.7,0.1-0.8-0.1c-0.1-0.2-0.5-0.1-0.4-0.7
	c0.1-0.6,0.2-0.5-0.1-0.5s-0.7,0.1-0.9-0.1C24.7,38.9,24.2,39,24.2,39z M117,66c0,1,0,2.1-0.1,3.1c-0.1,0.1-0.2,0.2-0.3,0.1
	c-0.2-0.2-0.2-0.2-0.2-0.9c0-0.7-0.4-0.3-0.9-0.9c-0.4-0.5-0.4-0.5-0.5-0.8c-0.1-0.4-0.7-1.1-1-1.1c-0.3,0-0.7-0.2-0.9-0.2
	c-0.2,0-0.2,0-0.3-0.1c-0.1-0.1-0.7,0.3-1,0.6c-0.3,0.3-0.7,0.6-0.9,0.9c-0.2,0.3-1.1,0.7-1.3,0.8c-0.2,0-0.5,0.5-0.6,0.8
	c-0.1,0.3-0.4,0.7-0.5,1.3c-0.1,0.6,0.1,0.6,0.1,1.2c0,0.6-0.1,0.5,0,0.9c0,0.4-0.2,0.5-0.2,0.5s-0.6,0.5-0.7,0.6
	c-0.1,0-0.6,0.2-0.6,0c0-0.2-0.3-0.3-0.3-0.7s-0.2-0.5-0.3-0.9c0-0.5-0.3-0.3-0.3-0.8c0-0.5-0.9-2.1-1.2-2.7c-0.2-0.5-0.1-0.3,0-1.1
	s-0.4-0.7-0.3-1s-0.3-0.1-0.4,0c-0.1,0.1-0.6,0.4-0.9,0.2c-0.3-0.3-0.3-0.4-0.5-0.7s-0.3-0.3-0.7-0.6c-0.4-0.2-0.5-0.7-0.6-0.7
	c-0.2,0-0.8-0.4-0.8-0.4l-0.9-0.1l-0.8,0c0,0-0.8,0-1.3-0.1c-0.5-0.1-0.5,0-0.8-0.2c-0.2-0.2-0.7-0.2-0.7-0.6
	c-0.1-0.3-0.2-0.1-0.4-0.2c-0.2-0.1-0.3,0-0.4,0c-0.1-0.1-0.5,0-1-0.1c-0.5,0-0.7-0.3-1.3-0.7c-0.5-0.4-0.9-0.5-1.1-1
	c-0.2-0.5-0.5,0.4-0.1,1c0.3,0.6,0.3,0.6,0.3,0.9c0,0.2,0.2,0.3,0.3,0.9c0.2,0.6,0.5,0.4,0.7,0.8c0.3,0.4,0.5,0,1.2-0.1
	c0.6-0.1,0.4-0.3,1-0.9c0.6-0.6,0.3,0,0.6,0.5c0.3,0.5,0.2,0.5,0.7,0.9c0.4,0.4,0.6,0.3,0.9,0.6c0.3,0.2-0.2,0.6-0.5,1
	c-0.3,0.4-0.5,0.4-0.6,0.7s-0.5,0.8-0.9,1.1c-0.4,0.3-0.9,0.8-0.9,0.8s-1.3,0.6-1.5,0.6c-0.2,0-1.7,0.9-1.7,0.9l-1,0.2
	c0,0-0.7-0.2-0.8-0.4s-0.4-0.9-0.4-1.4c0-0.5-0.8-1.4-0.9-1.6c-0.1-0.2-0.6-0.7-0.8-1c-0.2-0.2-0.6-0.9-0.6-1.1
	c0-0.2-0.3-0.6-0.5-1.2c-0.2-0.6-1.1-1.4-1.1-1.5c0-0.2-0.5-0.6-0.6-0.6c-0.1,0-0.5,0.1-0.5,0.1s-0.6-0.4-0.6-0.5
	c0,0,0.2,0.6,0.3,0.7c0.1,0.1,1.1,2,1.2,2.4c0.1,0.4,0.2,0.5,0.4,0.9c0.1,0.4,0.3,0.5,0.5,1.2c0.2,0.7,0.4,0.5,0.6,1.1
	c0.2,0.5,0.3,0.4,0.6,0.8s0.3,0.2,0.7,0.7c0.4,0.5,0.5,0.7,0.8,1.1c0.2,0.4,0.3,0.7,0.4,1.3c0.1,0.6,0.4,0.2,0.8,0.2
	c0,0,0.6-0.2,1.8-0.1c1.2,0.1,0.8-0.1,1-0.1c0.2-0.1,0.7-0.1,0.7-0.2c0.1-0.1-0.3,1.5-0.4,1.8c-0.1,0.3-0.5,0.8-0.5,0.8
	s-0.3,0.4-0.4,0.5s-0.6,0.9-0.9,1.3c-0.3,0.4-0.8,0.8-1,0.9c-0.2,0.2-0.5,0.6-0.8,1s-1.1,1.4-1.1,1.4S88.1,80,88,80.1
	c-0.1,0.2-0.4,0.6-0.4,0.7c0,0.2-0.1,0.7,0.1,0.9c0.2,0.2,0.2,1,0.5,1.7c0.2,0.6,0.1,0.5,0.2,1.2c0.1,0.7,0.1,0.8,0.1,1
	s-0.2,0.7-0.2,0.9c0,0.2-0.6,0.6-0.9,0.8c-0.3,0.2-0.3,0.3-0.5,0.4c-0.2,0.1-0.8,0.9-0.8,0.9s-0.5,0.6-0.5,1.2
	c0,0.6,0.1,0.2,0.2,0.3c0.1,0.1,0,0.7,0.1,1c0.1,0.4-0.1,0.2-0.2,0.2c-0.1,0-0.2,0.3-0.5,0.4c-0.2,0.1-0.5,0.3-0.7,0.9
	C84.1,93,84,93,84,93c0,0,0,0-0.1,0.1c-0.1,0.2-0.2,0.3-0.2,0.5c-0.1,0.2-0.2,0.5-0.5,0.6c-0.3,0.1-0.5,0.5-0.8,0.7
	c-0.2,0.2-0.2,0.2-0.6,0.5c-0.4,0.3-0.5,0.5-0.7,0.7c-0.2,0.2-0.4,0.4-0.6,0.3c-0.2-0.1-0.5,0.2-0.7,0.2s-0.4,0.2-0.6,0.2
	c-0.2,0-0.4,0.1-0.7,0c-0.2-0.1-0.6,0.2-0.7,0.3c-0.2,0-0.6-0.2-0.6-0.2s-0.2-0.3-0.3-0.6c-0.1-0.3-0.2-0.9-0.2-1.2
	c0-0.2-0.2-0.4-0.3-0.7c-0.1-0.2-0.1-0.2-0.1-0.2l-0.1-0.2c-0.2-0.2-0.3-0.4-0.6-0.7c-0.2-0.3-0.1-0.3-0.1-0.5
	c0-0.2-0.1-0.5-0.2-0.7c-0.1-0.1,0-0.7,0-0.9c0-0.2,0-0.4-0.1-0.7c-0.1-0.3-0.2-0.4-0.3-0.7s-0.2-0.6-0.4-1
	c-0.2-0.4-0.4-0.8-0.7-1.2s-0.1-0.4-0.1-0.8s0.1-0.7,0.2-1l0.2-0.4l0.4-0.7l0.1-0.2c0,0,0.1-0.5,0.1-0.7c0-0.1-0.1-0.5-0.2-0.7
	c-0.1-0.2,0-0.2,0-0.5c0-0.3,0-0.3-0.1-0.7c0-0.4-0.2-0.5-0.4-0.8c-0.2-0.4-0.2-0.5-0.3-0.8c0-0.3-0.4-0.7-0.5-0.9
	c-0.1-0.2-0.4-0.4-0.7-0.8c-0.4-0.3-0.2-0.5-0.2-0.5s0.1-0.5,0.2-0.7c0.1-0.1,0.1-0.7,0.2-0.9c0-0.2-0.2-0.9-0.2-0.9l-0.1-0.2
	L72,75.4c0,0-0.4,0-0.5-0.1c-0.1-0.2-0.4,0.1-0.4,0.1l-0.2,0c0,0-0.2-0.2-0.3-0.3c0-0.2-0.2-0.3-0.4-0.5c-0.1-0.2-0.3,0-0.4-0.2
	c-0.1-0.1-0.2,0-0.6-0.1c-0.4-0.1-0.3,0.1-0.5,0c-0.2-0.1-0.4,0.1-0.6,0.1c-0.2,0-0.6,0.2-0.7,0.2c-0.1,0-0.5,0.2-0.7,0.2
	c-0.2,0-0.4,0.2-0.6,0.2c-0.2,0-0.3,0.1-0.5,0c-0.2-0.1-0.5,0.2-0.6,0.2c-0.1,0.1-0.6,0.2-0.8,0.2c-0.2-0.1-0.5,0.1-0.7,0
	c-0.2-0.1-0.5-0.1-0.6-0.2c-0.1-0.1-0.5-0.2-0.6-0.4c-0.1-0.2-0.7-0.6-0.7-0.6s-0.4-0.5-0.5-0.6c-0.1-0.1-0.4-0.6-0.5-0.7
	c0-0.1-0.4-0.7-0.4-0.8c0-0.1-0.3-0.4-0.5-0.5c-0.2-0.2-0.7-0.4-0.7-0.4s-0.1-0.2,0-0.4c0.1-0.1,0-0.6,0-0.6s-0.2-0.4-0.2-0.6
	c0.1-0.2,0.3-0.7,0.4-0.9c0.1-0.2,0.1-0.5,0.2-1c0.1-0.5,0-0.5-0.1-0.7c-0.1-0.2-0.1-0.4-0.1-1.1l0.1-0.2c0,0,0.3-0.5,0.4-1
	c0.1-0.5,0.4-0.7,0.5-0.9c0.1-0.1,0.2-0.3,0.4-0.5c0.2-0.2,0.4-0.5,0.5-0.6c0.1-0.1,0.3-0.3,0.3-0.3s0.3-0.4,0.6-0.5
	c0.2-0.2,0.8-0.7,0.8-0.7s0-0.4,0-0.6c0-0.2,0.3-0.5,0.3-0.5l0.1-0.4l0.8-0.5l0.4-0.4l0.6-0.8c0,0,0.2,0.3,0.3,0.4
	c0.1,0.1,0.5,0,0.8-0.2c0.3-0.2,0.4,0,0.7,0c0.2,0,0.4-0.1,0.7,0c0.3,0.1,0.6-0.1,0.8-0.3c0.2-0.2,0.3-0.1,0.3-0.1s0.5-0.2,2.1-0.3
	c0.8-0.1,0.9-0.1,0.9-0.1s-0.2,0-0.1-0.1c0.3-0.1,0.7-0.2,1-0.3s0.1,0.1,0.3,0.2c0.2,0.1-0.2,0.4-0.3,0.7c0,0.3-0.1,0.3,0,0.8
	s0.5,0,0.8,0.7c0.3,0.6,0.7,0.1,1,0.3c0.3,0.2,0.7,0.2,1.3,0.7c0.7,0.5,0.8,0.2,1.2,0.3c0.2,0,0.3,0.1,0.3,0.1c0,0,0-0.1,0-0.2
	c0.1-0.3,0.5-0.4,0.5-1s0.1-0.2,0.2,0c0.2,0.2,0.6,0.1,0.8,0.4s0.8,0.1,1.2,0.3c0.4,0.2,1.4,0,1.9,0.1c0.5,0.1,1,0.1,1.4,0.1
	c0.4,0,0.5-0.1,0.7-0.1c0.2,0,0.4-0.2,0.8-1.1c0,0,0.2-0.5,0.3-1.1c0.1-0.7,0-0.3-0.1-0.6c0-0.3-0.5,0-0.7-0.1c-0.1-0.1-0.8,0-1.1,0
	c-0.3-0.1-0.5,0.1-0.8,0s-0.7,0-0.9-0.1c-0.2-0.1-0.4-0.1-0.7-0.4c-0.3-0.3-0.5-0.1-0.5-0.7c0-0.5-0.2-0.6,0-1.1
	c0.2-0.5-0.4-0.3-0.8,0c-0.5,0.3-0.7,0-0.9-0.1c-0.2,0-0.2,0.3-0.2,0.5c0,0.2,0.5,0.7,0.6,0.7c0.2,0.1-0.4,0.2-0.4,0.2s0,0.3,0,0.5
	c0,0.2-0.2,0.2-0.3,0.1c-0.1-0.1-0.2,0.2-0.3,0c-0.1-0.2-0.2-0.3-0.4-0.5c-0.1-0.2-0.3-0.6-0.4-0.7c-0.1-0.2-0.3-0.3-0.4-0.4
	C77.1,55.4,77,55,77,54.7s-0.3-0.6-0.6-0.5c-0.3,0-0.3-0.2-0.7-0.5c-0.4-0.2-0.3-0.3-0.7-0.6c-0.4-0.2-0.7-0.5-1.2-0.6
	c-0.5-0.1-0.2,0.3-0.1,0.6c0.1,0.3,0.2,0.2,0.5,0.5s0.4,0.5,0.4,0.5s0.6,0.4,0.9,0.5s0.7,0.7,1,0.9c0.2,0.1,0.1,0.1,0,0.2
	c-0.1,0.2-0.2,0-0.4-0.1c-0.2-0.1-0.2,0.2-0.2,0.4c0,0.2,0,0.2,0,0.2L74.9,57c-0.1,0.1-0.4-0.1-0.6-0.2c-0.2-0.2,0.3,0,0.5-0.1
	c0.2-0.1,0.6-0.6,0.7-0.7c0.1-0.2-0.2-0.2-0.2-0.2s-0.3-0.3-0.3-0.4c0-0.1-0.4-0.3-0.7-0.6c-0.3-0.3-0.5-0.2-0.7-0.3
	c-0.2-0.1-0.4-0.2-0.6-0.3c-0.2-0.1-0.4-0.6-0.5-0.8c-0.1-0.1-0.3,0-0.3,0s-0.3,0.1-0.5-0.1c-0.1-0.2-0.3,0-0.2,0.5
	c0.1,0.5-1.1,0.1-1.3,0.1c-0.2,0-0.6,0.4-0.6,0.4l-0.5,0.7c0,0-0.5,0.1-0.7,0.2s-0.6,0.7-0.5,1c0.1,0.2,0,0.3-0.3,0.6
	c-0.2,0.2-1.1,0.5-1.3,0.8c-0.2,0.2-0.5,0.2-0.9,0c-0.3-0.2-0.6-0.1-0.7-0.1c-0.1,0-0.7-0.1-0.7-0.1S64,57,63.9,56.6
	c-0.1-0.4-0.1-0.6,0-0.9c0.1-0.2,0.1-0.7,0-1.1c0-0.4,0-0.7,0.4-1c0.4-0.3,0-0.2,0.5-0.2c0.5,0,0.9,0.2,1.3,0.4
	c0.5,0.2,0.7,0,0.9-0.1c0.2-0.1,0.2,0.2,0.4-0.2c0.2-0.4-0.1-0.4,0.1-0.7c0.2-0.3-0.1-0.2-0.1-0.2s-0.2-0.5-0.3-0.5
	c-0.1,0-0.2-0.2-0.5-0.4c-0.2-0.2-0.6-0.4,0.5-0.3c1.1,0-0.4-0.4-0.5-0.6c-0.1-0.2,0.2-0.3,0.7-0.2c0.5,0.1,0.2,0,0.4-0.1
	c0.2,0,0.2-0.1,0.5-0.1c0.4,0,0.3-0.1,0.5-0.2c0.2,0,0.2-0.4,0.7-0.7c0.5-0.4,0.1,0,0.6-0.2c0.5-0.2,0.1-0.7,0.4-0.7
	c0.2-0.1,0.5-0.2,0.9-0.2l0.2,0c0,0-0.2,0-0.1,0c0.1,0,0.4-0.5,0.7-0.7c0.3-0.2,0.1,0.1,0.2,0.2c0.2,0.1,0.5,0,0.8-0.1
	c0.2-0.2,0.5-0.1,0.9,0c0.4,0.1,0.2,0.3,0.4,0.3c0.2,0,0.4,0.1,0.5,0c0.1-0.2,0.5-0.4,0.7-0.4c0.2,0,0.6,0,0.6,0s0.2,0,0.4,0
	c0.1,0,0.8-0.4,0.7-1c-0.1-0.6,0.5-0.2,0.7-0.2c0.2,0,0.6-0.2,0.3-1s0.2-0.2,0.5-0.2c0.3,0.1,0.8-0.2,1-0.4c0.2-0.2-0.1-0.5-0.2-0.5
	c-0.1-0.1-0.5,0.1-0.8,0c-0.2,0-0.7,0.1-0.9,0.1c-0.2,0-0.7-0.7-0.6-0.7c0.1-0.1,0.5-0.7,0.7-1c0.2-0.2,0-0.4,0-0.4S78.2,42,77,42.8
	c-1.2,0.8-0.7,0.4-0.8,0.8c-0.1,0.4-0.2,0.5-0.2,1c0,0.4,0.4,0.6,0.4,0.6s-0.6,0.7-0.6,0.9c0,0.3-0.9,0.9-0.9,0.9s-0.4,0.3-0.5,0.2
	c-0.1-0.1-0.8-0.1-0.7-0.7c0-0.6-0.5-0.5-1.4-1.1c-0.9-0.6-0.8,0-1,0.2c-0.2,0.2-0.3-1.3,0-1.7c0.1-0.1,0.1-0.2,0.1-0.2
	c0,0,0,0.2,0.1,0.1c0.2,0,0.6,0,0.9-0.2c0.3-0.2,0.2-0.4,0.2-0.6s1-0.9,1.2-1.1c0.2-0.2,1.1-0.8,1.4-1.1c0.3-0.3,0.7-0.4,1.2-0.8
	c0.5-0.4,0.7-0.3,1.1-0.3c0.4,0,0.7,0,1.1,0.1c0.4,0,0.8,0,1.1,0c0.3,0.1,0.7,0.2,1.8,0.3c1.1,0.2,0.3,0.1,1.1,0.4
	c0.8,0.3,0.8,0.1,1.3,0.4c0.5,0.2,0.1,0.5,0,0.7c-0.1,0.2-0.6,0.3-1,0c-0.3-0.3-0.6,0-1.2,0.1c-0.6,0.1,1,0.9,1.2,1.3
	c0.3,0.5,0.8-0.1,1.6-0.8c0.9-0.7,0.7-0.4,1.4-0.7c0.7-0.3,1.2-0.3,1.4-0.5c0.2-0.2,1-0.2,1.2,0c0.2,0.2,0.8-0.2,1,0
	c0.2,0.2,0.5-0.3,1.1-0.6c0.6-0.3,0.5,0,1,0.4c0.5,0.4,0.5,0.1,0.7,0.3c0.3,0.2,1.5,0.4,1.9-0.1c0.5-0.5-0.2,0-0.5-0.7
	c-0.3-0.7-0.5-0.2-0.6-0.9c-0.1-0.7,0.3-0.4,0.9-0.4c0.5,0,0.2,0.2,0.6,0.2s0.3,0.3,0.5,0.5c0.2,0.2,0.2,0.4,0.3,0.7
	c0,0.3-0.1,0.9,0,1c0.1,0.1,0,0.4,0.8,0.2c0.8-0.2-0.1-0.7-0.4-2c-0.4-1.3,0.5,0.6,0.9,1.1c0.5,0.5,0.8-0.3,0.8-0.5
	c0-0.1-0.2-0.4-0.4-1c-0.2-0.7,0.3-0.3,1.1-0.6c0.8-0.3,0.8-0.2,1.6-0.2c0.8,0,1.4-0.3,1.8-0.8c0.4-0.5,0.6-0.2,0.8-0.2
	c0.2,0,0.5-0.1,2.1-0.2c1.5,0,0.4,0.2,1.1,0.2c0.7,0.1,0.7-0.1,1.2-0.1c0.5,0,0.7,0.2,0.9,0.2c0.2,0.1-0.1,0.3-0.2,0.3
	c-0.1,0-0.4,0.4-0.6,0.7s0.4,0.3,1.5,0.2c0.2,0,0.4,0,0.6,0C114.2,46.7,117,56,117,66z M12,64.3l0,0.2l0-0.1L12,64.3z"/>
</svg>
