<?xml version="1.0" encoding="utf-8"?>
<!-- Generator: Adobe Illustrator 16.0.4, SVG Export Plug-In . SVG Version: 6.00 Build 0)  -->
<!DOCTYPE svg PUBLIC "-//W3C//DTD SVG 1.1//EN" "http://www.w3.org/Graphics/SVG/1.1/DTD/svg11.dtd">
<svg version="1.1" id="Layer_1" xmlns="http://www.w3.org/2000/svg" xmlns:xlink="http://www.w3.org/1999/xlink" x="0px" y="0px"
	 width="129px" height="129px" viewBox="0 0 129 129" style="enable-background:new 0 0 129 129;" xml:space="preserve">
<style type="text/css">
<![CDATA[
	.st0{fill:#FFFFFF;}
	.st1{fill-rule:evenodd;clip-rule:evenodd;fill:#F8B132;}
	.st2{fill-rule:evenodd;clip-rule:evenodd;fill:#FAAF3F;}
	.st3{fill-rule:evenodd;clip-rule:evenodd;fill:#FFFFFF;}
	.st4{fill-rule:evenodd;clip-rule:evenodd;fill:#6C6D70;}
]]>
</style>
<g>
	<path class="st4" d="M35.1,48.4c0,3.7,3,6.7,6.7,6.7c3.7,0,6.7-3,6.7-6.7c0-3.7-3-6.7-6.7-6.7C38.1,41.7,35.1,44.7,35.1,48.4z
		 M69.5,72c0,5.2,4.2,9.5,9.5,9.5s9.5-4.2,9.5-9.5s-4.2-9.5-9.5-9.5S69.5,66.8,69.5,72z M0,64.5C0,100.1,28.9,129,64.5,129
		S129,100.1,129,64.5S100.1,0,64.5,0S0,28.9,0,64.5z M29.7,51.7h-6.2v-6.3h6.2c0.3-1.2,0.8-2.3,1.4-3.3l-4.4-4.4l4.4-4.4l4.4,4.4
		c1-0.6,2.1-1.1,3.3-1.4V30h6.3v6.2c1.2,0.3,2.3,0.8,3.3,1.4l4.4-4.4l4.4,4.4L52.9,42c0.6,1,1.1,2.1,1.4,3.3h6.2v6.3h-6.2
		C54,52.8,53.5,54,52.9,55l4.4,4.4l-4.4,4.4l-4.4-4.4c-1,0.6-2.1,1.1-3.3,1.4V67h-6.3v-6.2c-1.2-0.3-2.3-0.8-3.3-1.4l-4.4,4.4
		l-4.4-4.4l4.4-4.4C30.5,54,30,52.8,29.7,51.7z M61.8,76.7H53v-9h8.8c0.4-1.7,1.1-3.2,2-4.7l-6.3-6.3l6.3-6.3l6.3,6.3
		c1.5-0.9,3-1.5,4.7-2v-8.8h9v8.8c1.7,0.4,3.2,1.1,4.7,2l6.3-6.3l6.3,6.3L94.7,63c0.9,1.5,1.5,3,2,4.7h8.8v9h-8.8
		c-0.4,1.7-1.1,3.2-2,4.7l6.3,6.3L94.7,94l-6.3-6.3c-1.4,0.9-3,1.5-4.7,2v8.8h-9v-8.8c-1.7-0.4-3.2-1.1-4.7-2L63.8,94l-6.3-6.3
		l6.3-6.3C62.9,80,62.2,78.4,61.8,76.7z"/>
</g>
</svg>
