<?xml version="1.0" encoding="utf-8"?>
<!-- Generator: Adobe Illustrator 16.0.4, SVG Export Plug-In . SVG Version: 6.00 Build 0)  -->
<!DOCTYPE svg PUBLIC "-//W3C//DTD SVG 1.1//EN" "http://www.w3.org/Graphics/SVG/1.1/DTD/svg11.dtd">
<svg version="1.1" id="Layer_1" xmlns="http://www.w3.org/2000/svg" xmlns:xlink="http://www.w3.org/1999/xlink" x="0px" y="0px"
	 width="129px" height="129px" viewBox="0 0 129 129" style="enable-background:new 0 0 129 129;" xml:space="preserve">
<style type="text/css">
<![CDATA[
	.st0{fill:#FFFFFF;}
	.st1{fill-rule:evenodd;clip-rule:evenodd;fill:#F8B132;}
	.st2{fill-rule:evenodd;clip-rule:evenodd;fill:#FAAF3F;}
	.st3{fill-rule:evenodd;clip-rule:evenodd;fill:#FFFFFF;}
	.st4{fill-rule:evenodd;clip-rule:evenodd;fill:#6C6D70;}
]]>
</style>
<g>
	<path class="st4" d="M45.7,52.3c0,10.1,8.4,18.3,18.8,18.3s18.8-8.2,18.8-18.3c0-10.1-8.4-18.3-18.8-18.3S45.7,42.2,45.7,52.3z
		 M0,64.5C0,100.1,28.9,129,64.5,129S129,100.1,129,64.5S100.1,0,64.5,0S0,28.9,0,64.5z M38,52.3C38,38,49.9,26.5,64.5,26.5
		S91,38,91,52.3c0,14.2-26.5,50.2-26.5,50.2S38,66.5,38,52.3z"/>
</g>
</svg>
