<?xml version="1.0" encoding="utf-8"?>
<!-- Generator: Adobe Illustrator 16.0.4, SVG Export Plug-In . SVG Version: 6.00 Build 0)  -->
<!DOCTYPE svg PUBLIC "-//W3C//DTD SVG 1.1//EN" "http://www.w3.org/Graphics/SVG/1.1/DTD/svg11.dtd">
<svg version="1.1" xmlns="http://www.w3.org/2000/svg" xmlns:xlink="http://www.w3.org/1999/xlink" x="0px" y="0px" width="40px"
	 height="40px" viewBox="0 0 40 40" style="enable-background:new 0 0 40 40;" xml:space="preserve">
<style type="text/css">
<![CDATA[
	.st0{fill:#F6AF2F;}
	
		.st1{fill-rule:evenodd;clip-rule:evenodd;fill:#6E6E70;stroke:#F5F5F5;stroke-width:5;stroke-linecap:round;stroke-linejoin:round;stroke-miterlimit:10;}
	.st2{fill-rule:evenodd;clip-rule:evenodd;fill:#F5F5F5;}
	.st3{fill-rule:evenodd;clip-rule:evenodd;fill:#F6AF2F;}
	.st4{fill-rule:evenodd;clip-rule:evenodd;fill:#FAAE40;}
	.st5{fill-rule:evenodd;clip-rule:evenodd;fill:#6C6D70;}
]]>
</style>
<g id="Layer_1">
</g>
<g id="Layer_2">
	<path class="st5" d="M20,0C9,0,0,9,0,20s9,20,20,20c11,0,20-9,20-20S31,0,20,0z M27.5,30.4c-0.5,0.6-1.2,0.8-2,0.8H20
		c-2.3,0-4.3-0.8-5.9-2.5c-1.6-1.6-2.5-3.6-2.5-5.9V11.6c0-0.8,0.3-1.5,0.8-2c0.5-0.5,1.2-0.8,2-0.8c0.8,0,1.4,0.3,2,0.8
		c0.5,0.5,0.8,1.2,0.8,2v4.1h7.9c0.7,0,1.3,0.3,1.8,0.8c0.5,0.5,0.8,1.1,0.8,1.8c0,0.7-0.3,1.3-0.8,1.8c-0.5,0.5-1.1,0.8-1.8,0.8
		h-7.9v2c0,0.8,0.3,1.4,0.8,2c0.5,0.5,1.2,0.8,2,0.8h5.5c0.8,0,1.4,0.3,2,0.8c0.5,0.6,0.8,1.2,0.8,2S28.1,29.9,27.5,30.4z"/>
</g>
</svg>
