<?xml version="1.0" encoding="utf-8"?>
<!-- Generator: Adobe Illustrator 16.0.4, SVG Export Plug-In . SVG Version: 6.00 Build 0)  -->
<!DOCTYPE svg PUBLIC "-//W3C//DTD SVG 1.1//EN" "http://www.w3.org/Graphics/SVG/1.1/DTD/svg11.dtd">
<svg version="1.1" id="Layer_1" xmlns="http://www.w3.org/2000/svg" xmlns:xlink="http://www.w3.org/1999/xlink" x="0px" y="0px"
	 width="129px" height="129px" viewBox="0 0 129 129" style="enable-background:new 0 0 129 129;" xml:space="preserve">
<style type="text/css">
<![CDATA[
	.st0{fill:#FFFFFF;}
	.st1{fill-rule:evenodd;clip-rule:evenodd;fill:#F8B132;}
	.st2{fill-rule:evenodd;clip-rule:evenodd;fill:#FAAF3F;}
	.st3{fill-rule:evenodd;clip-rule:evenodd;fill:#FFFFFF;}
	.st4{fill-rule:evenodd;clip-rule:evenodd;fill:#6C6D70;}
]]>
</style>
<g>
	<g>
		<path class="st4" d="M0,64.5C0,100.1,28.9,129,64.5,129S129,100.1,129,64.5S100.1,0,64.5,0S0,28.9,0,64.5z M83.1,37.7
			c1.3-1.2,3.3-1.2,4.6-0.1l4.6,4.3c1.3,1.2,1.3,3.2,0,4.4L72.1,65.9l9.4,9.8c0.2,0.2,0.4,0.4,0.5,0.7l0.1-0.1l-1.3,4.4
			c3.1-1.2,8.1-2.3,9.3,2.4c1.8,7,2.7,8.2,3.9,9.2c1.1,1-14.6,3-15.5-9.2L75,84.7c-0.6-0.1-1.1-0.4-1.5-0.8l-9.7-10L50.2,87.1
			c-0.2,0.2-0.5,0.4-0.7,0.5l0.1,0.1l-14,5.3l4.9-13c0.1-0.6,0.4-1.2,0.9-1.7L55,65L35.9,45.4c-1.2-1.2-1.2-3.1,0-4.3l4.1-4.3
			c1.1-1.2,3-1.2,4.1,0l19.3,20L83.1,37.7z"/>
	</g>
</g>
</svg>
