<?xml version="1.0" encoding="utf-8"?>
<!-- Generator: Adobe Illustrator 16.0.4, SVG Export Plug-In . SVG Version: 6.00 Build 0)  -->
<!DOCTYPE svg PUBLIC "-//W3C//DTD SVG 1.1//EN" "http://www.w3.org/Graphics/SVG/1.1/DTD/svg11.dtd">
<svg version="1.1" id="Layer_1" xmlns="http://www.w3.org/2000/svg" xmlns:xlink="http://www.w3.org/1999/xlink" x="0px" y="0px"
	 width="129px" height="129px" viewBox="0 0 129 129" style="enable-background:new 0 0 129 129;" xml:space="preserve">
<style type="text/css">
<![CDATA[
	.st0{fill:#FFFFFF;}
	.st1{fill-rule:evenodd;clip-rule:evenodd;fill:#F8B132;}
	.st2{fill-rule:evenodd;clip-rule:evenodd;fill:#FAAF3F;}
	.st3{fill-rule:evenodd;clip-rule:evenodd;fill:#FFFFFF;}
	.st4{fill-rule:evenodd;clip-rule:evenodd;fill:#6C6D70;}
]]>
</style>
<g>
	<path class="st4" d="M0,64.5C0,100.1,28.9,129,64.5,129S129,100.1,129,64.5S100.1,0,64.5,0S0,28.9,0,64.5z M60.2,12.2
		c0-1.2,1-2.2,2.2-2.2h4.5c1.2,0,2.2,1,2.2,2.2v40.2c0,1.2-1,2.2-2.2,2.2h-4.5c-1.2,0-2.2-1-2.2-2.2V12.2z M52.4,67.2
		c1.1-0.6,2.5-0.3,3.1,0.8l2.2,3.5c0.6,1,0.3,2.4-0.8,3l-16.1,9c-1.1,0.6-2.4,0.2-3-0.8l-2.1-3.5c-0.6-1-0.2-2.3,0.8-2.9L52.4,67.2z
		 M57,64.5c0-4.4,3.4-8,7.5-8c4.1,0,7.5,3.6,7.5,8s-3.4,8-7.5,8C60.4,72.5,57,68.9,57,64.5z M61.5,104h6v16h-6V104z M119.5,62v6h-16
		v-6H119.5z M25.5,62v6h-16v-6H25.5z"/>
</g>
</svg>
