<?xml version="1.0" encoding="utf-8"?>
<!-- Generator: Adobe Illustrator 16.0.4, SVG Export Plug-In . SVG Version: 6.00 Build 0)  -->
<!DOCTYPE svg PUBLIC "-//W3C//DTD SVG 1.1//EN" "http://www.w3.org/Graphics/SVG/1.1/DTD/svg11.dtd">
<svg version="1.1" id="Layer_1" xmlns="http://www.w3.org/2000/svg" xmlns:xlink="http://www.w3.org/1999/xlink" x="0px" y="0px"
	 width="129px" height="129px" viewBox="0 0 129 129" style="enable-background:new 0 0 129 129;" xml:space="preserve">
<style type="text/css">
<![CDATA[
	.st0{fill:#FFFFFF;}
	.st1{fill-rule:evenodd;clip-rule:evenodd;fill:#F8B132;}
	.st2{fill-rule:evenodd;clip-rule:evenodd;fill:#FAAF3F;}
	.st3{fill-rule:evenodd;clip-rule:evenodd;fill:#FFFFFF;}
	.st4{fill-rule:evenodd;clip-rule:evenodd;fill:#6C6D70;}
]]>
</style>
<g>
	<circle class="st1" cx="64.5" cy="64.5" r="64.5"/>
	<g>
		<g>
			<path class="st3" d="M56.4,58.5c-0.3,1.1-0.7,2.2-1.3,3.2l4.2,4.2L55,70.1l-4.2-4.2c-1,0.6-2,1-3.1,1.3v6h-6v-6
				c-1.1-0.3-2.2-0.7-3.2-1.3l-4.2,4.2L30,65.9l4.2-4.2c-0.6-1-1-2-1.3-3.2H27v-6.1h5.9c0.3-1.1,0.7-2.2,1.3-3.2L30,45l4.2-4.3
				l4.2,4.2c1-0.6,2-1,3.2-1.3v-6h6v6c1.1,0.3,2.2,0.7,3.2,1.3l4.2-4.2l4.2,4.3L55,49.2c0.6,1,1,2,1.3,3.2h5.9v6.1H56.4z M51.2,55.3
				c0-3.5-2.9-6.4-6.4-6.4c-3.5,0-6.4,2.9-6.4,6.4c0,3.5,2.9,6.4,6.4,6.4C48.3,61.7,51.2,58.8,51.2,55.3z"/>
			<g>
				<path class="st3" d="M77.9,41.6c-0.2,0.8-0.5,1.5-0.9,2.2l3,3l-3,3l-3-3c-0.7,0.4-1.4,0.7-2.2,0.9v4.2h-4.3v-4.2
					c-0.8-0.2-1.5-0.5-2.2-0.9l-3,3l-3-3l3-3c-0.4-0.7-0.7-1.4-0.9-2.2h-4.2v-4.3h4.2c0.2-0.8,0.5-1.5,0.9-2.2l-3-3l3-3l3,3
					c0.7-0.4,1.4-0.7,2.2-0.9V27h4.3v4.2c0.8,0.2,1.5,0.5,2.2,0.9l3-3l3,3l-3,3c0.4,0.7,0.7,1.4,0.9,2.2h4.2v4.3H77.9z M74.3,39.4
					c0-2.5-2-4.5-4.5-4.5c-2.5,0-4.5,2-4.5,4.5c0,2.5,2,4.5,4.5,4.5C72.2,43.9,74.3,41.9,74.3,39.4z"/>
			</g>
		</g>
		<g>
			<polygon class="st3" points="85,59.3 76.1,59.3 75.9,77 58.9,77 58.6,86 75.9,86 75.7,102 85.1,102 85,86 102,86 101.8,77 85,77 
							"/>
		</g>
	</g>
</g>
</svg>
