<?xml version="1.0" encoding="utf-8"?>
<!-- Generator: Adobe Illustrator 16.0.4, SVG Export Plug-In . SVG Version: 6.00 Build 0)  -->
<!DOCTYPE svg PUBLIC "-//W3C//DTD SVG 1.1//EN" "http://www.w3.org/Graphics/SVG/1.1/DTD/svg11.dtd">
<svg version="1.1" id="Layer_1" xmlns="http://www.w3.org/2000/svg" xmlns:xlink="http://www.w3.org/1999/xlink" x="0px" y="0px"
	 width="129px" height="129px" viewBox="0 0 129 129" style="enable-background:new 0 0 129 129;" xml:space="preserve">
<style type="text/css">
<![CDATA[
	.st0{fill:#FFFFFF;}
	.st1{fill-rule:evenodd;clip-rule:evenodd;fill:#F8B132;}
	.st2{fill-rule:evenodd;clip-rule:evenodd;fill:#FAAF3F;}
	.st3{fill-rule:evenodd;clip-rule:evenodd;fill:#FFFFFF;}
	.st4{fill-rule:evenodd;clip-rule:evenodd;fill:#6C6D70;}
]]>
</style>
<g>
	<circle class="st1" cx="64.5" cy="64.5" r="64.5"/>
	<g>
		<polygon class="st3" points="87,62 79.4,62 79.3,77.3 64.7,77.3 64.5,85.1 79.2,85.1 79.1,99 87,99 87,85.1 101.5,85.1 
			101.3,77.3 87,77.3 		"/>
	</g>
	<g>
		<g>
			<path class="st3" d="M31.1,39.6v12.6h9.2v-0.5c0-2.7,3.3-3.9,5.7-3.9h12.9v-8.1H31.1z"/>
			<g>
				<path class="st3" d="M27.5,74H62V55.2h0.1v-4.7H45.4c-1.9,0-3.5,1.8-3.5,3.9v0.4H27.5V74z"/>
			</g>
		</g>
		<g>
			<path class="st3" d="M69.6,30v7.7h5.9v-0.3c0-1.6,2.1-2.4,3.7-2.4h8.3v-5H69.6z"/>
			<g>
				<path class="st3" d="M67.2,50.9h22.2V39.5h0.1v-2.9H78.8c-1.2,0-2.2,1.1-2.2,2.4v0.3h-9.3V50.9z"/>
			</g>
		</g>
	</g>
</g>
</svg>
