<?xml version="1.0" encoding="utf-8"?>
<!-- Generator: Adobe Illustrator 16.0.4, SVG Export Plug-In . SVG Version: 6.00 Build 0)  -->
<!DOCTYPE svg PUBLIC "-//W3C//DTD SVG 1.1//EN" "http://www.w3.org/Graphics/SVG/1.1/DTD/svg11.dtd">
<svg version="1.1" id="Layer_1" xmlns="http://www.w3.org/2000/svg" xmlns:xlink="http://www.w3.org/1999/xlink" x="0px" y="0px"
	 width="129px" height="129px" viewBox="0 0 129 129" style="enable-background:new 0 0 129 129;" xml:space="preserve">
<style type="text/css">
<![CDATA[
	.st0{fill:#FFFFFF;}
	.st1{fill-rule:evenodd;clip-rule:evenodd;fill:#F8B132;}
	.st2{fill-rule:evenodd;clip-rule:evenodd;fill:#FAAF3F;}
	.st3{fill-rule:evenodd;clip-rule:evenodd;fill:#FFFFFF;}
	.st4{fill-rule:evenodd;clip-rule:evenodd;fill:#6C6D70;}
]]>
</style>
<g>
	<circle class="st1" cx="64.5" cy="64.5" r="64.5"/>
	<g>
		<g>
			<path class="st3" d="M49.5,88c0,10,8,18,17.9,18s17.9-8.1,17.9-18c0-10-8-18.1-17.9-18.1S49.5,78,49.5,88z M56.1,91.3h22.5
				c-2.4,4.8-6.6,8-11.3,8C62.7,99.3,58.5,96.1,56.1,91.3z M56.5,83.3c0-1.5,1.2-2.7,2.6-2.7c1.5,0,2.6,1.2,2.6,2.7
				c0,1.5-1.2,2.7-2.6,2.7C57.6,85.9,56.5,84.7,56.5,83.3z M73,83.3c0-1.5,1.2-2.7,2.7-2.7c1.5,0,2.6,1.2,2.6,2.7
				c0,1.5-1.2,2.7-2.6,2.7C74.2,85.9,73,84.7,73,83.3z M56.6,54.3c0.8,1.1,1.8,2.1,2.9,2.9l-2.8,6.5l6.6,2.8L66,60
				c1.3,0.2,2.7,0.2,4.1,0.1l2.6,6.5l6.8-2.7l-2.6-6.5c1.1-0.8,2.1-1.8,2.9-2.8l6.6,2.8l2.9-6.5L82.7,48c0.2-1.3,0.2-2.7,0.1-4.1
				l6.7-2.7l-2.7-6.7l-6.7,2.7c-0.8-1.1-1.8-2.1-2.9-2.9l2.9-6.6L73.4,25l-2.9,6.6c-1.4-0.2-2.7-0.2-4.1,0L63.8,25l-6.8,2.7l2.6,6.5
				c-1.1,0.8-2.1,1.8-2.9,2.9l-6.6-2.8l-2.8,6.6l6.5,2.7c-0.2,1.3-0.2,2.7,0,4l-6.6,2.6L50,57L56.6,54.3z M60.9,48.6
				c-1.6-3.9,0.4-8.3,4.3-9.8s8.4,0.3,10,4.2c1.6,3.9-0.4,8.3-4.3,9.8C67,54.3,62.5,52.5,60.9,48.6z M30,73.3c0.6,0.8,1.2,1.4,2,2
				L30,79.8l4.6,1.9l1.9-4.5c0.9,0.2,1.9,0.2,2.9,0l1.9,4.5l4.7-1.9l-1.9-4.5c0.8-0.6,1.5-1.2,2-2l4.6,1.9l2-4.6l-4.6-1.9
				c0.1-0.9,0.2-1.9,0-2.8l4.6-1.9l-1.9-4.7l-4.6,1.9c-0.6-0.8-1.3-1.4-2-2l2-4.6l-4.6-1.9l-2,4.6c-0.9-0.1-1.9-0.2-2.9,0l-1.9-4.6
				l-4.7,1.9l1.9,4.6c-0.8,0.6-1.5,1.2-2,2l-4.6-1.9l-1.9,4.6l4.6,1.9c-0.1,0.9-0.1,1.9,0,2.8l-4.6,1.9l1.9,4.6L30,73.3z M33,69.2
				c-1.1-2.7,0.2-5.8,2.9-6.9c2.7-1.1,5.9,0.2,7,2.9c1.1,2.7-0.2,5.8-3,6.9C37.2,73.2,34.1,71.9,33,69.2z M85.6,71.8
				c0.4,0.5,0.9,1,1.4,1.4l-1.4,3.2l3.2,1.4l1.4-3.2c0.6,0.1,1.3,0.1,2,0l1.3,3.2l3.3-1.3l-1.3-3.2c0.5-0.4,1-0.9,1.4-1.4l3.2,1.3
				l1.4-3.2l-3.2-1.3c0.1-0.7,0.1-1.3,0-2l3.2-1.3l-1.3-3.3L97,63.4c-0.4-0.6-0.9-1-1.4-1.4l1.4-3.2l-3.2-1.4l-1.4,3.2
				c-0.6-0.1-1.3-0.1-2,0L89,57.4l-3.3,1.3l1.3,3.2c-0.5,0.4-1,0.9-1.4,1.4L82.5,62l-1.4,3.2l3.2,1.3c-0.1,0.6-0.1,1.3,0,2l-3.2,1.3
				l1.3,3.2L85.6,71.8z M87.7,69c-0.8-1.9,0.1-4.1,2.1-4.8c1.9-0.8,4.1,0.1,4.8,2c0.8,1.9-0.1,4.1-2.1,4.8S88.5,70.9,87.7,69z"/>
		</g>
	</g>
</g>
</svg>
