<?xml version="1.0" encoding="utf-8"?>
<!-- Generator: Adobe Illustrator 16.0.4, SVG Export Plug-In . SVG Version: 6.00 Build 0)  -->
<!DOCTYPE svg PUBLIC "-//W3C//DTD SVG 1.1//EN" "http://www.w3.org/Graphics/SVG/1.1/DTD/svg11.dtd">
<svg version="1.1" id="Layer_1" xmlns="http://www.w3.org/2000/svg" xmlns:xlink="http://www.w3.org/1999/xlink" x="0px" y="0px"
	 width="129px" height="129px" viewBox="0 0 129 129" style="enable-background:new 0 0 129 129;" xml:space="preserve">
<style type="text/css">
<![CDATA[
	.st0{fill:#FFFFFF;}
	.st1{fill-rule:evenodd;clip-rule:evenodd;fill:#F8B132;}
	.st2{fill-rule:evenodd;clip-rule:evenodd;fill:#FAAF3F;}
	.st3{fill-rule:evenodd;clip-rule:evenodd;fill:#FFFFFF;}
	.st4{fill-rule:evenodd;clip-rule:evenodd;fill:#6C6D70;}
]]>
</style>
<circle class="st1" cx="64.5" cy="64.5" r="64.5"/>
<g>
	<path class="st3" d="M54.7,64.5c0,5.4,4.4,9.8,9.8,9.8s9.8-4.4,9.8-9.8s-4.4-9.8-9.8-9.8S54.7,59.1,54.7,64.5z M36.2,64.5
		c0,15.6,12.7,28.3,28.3,28.3c15.6,0,28.3-12.7,28.3-28.3c0-15.6-12.7-28.3-28.3-28.3C48.9,36.2,36.2,48.9,36.2,64.5z M45.3,64.5
		c0-10.6,8.6-19.2,19.2-19.2c10.6,0,19.2,8.6,19.2,19.2c0,10.6-8.6,19.2-19.2,19.2C53.9,83.7,45.3,75.1,45.3,64.5z"/>
</g>
<path class="st3" d="M67.5,55.6l17.2-16.7l0.3-8.2l12-11.1l-0.2,8.2c0,0,2.6-0.2,3.9,1s1.1,3.9,1.1,3.9l8.9-0.3L99.2,44.7l-9-0.2
	L73.2,60.6"/>
</svg>
