<?xml version="1.0" encoding="utf-8"?>
<!-- Generator: Adobe Illustrator 16.0.4, SVG Export Plug-In . SVG Version: 6.00 Build 0)  -->
<!DOCTYPE svg PUBLIC "-//W3C//DTD SVG 1.1//EN" "http://www.w3.org/Graphics/SVG/1.1/DTD/svg11.dtd">
<svg version="1.1" id="Layer_1" xmlns="http://www.w3.org/2000/svg" xmlns:xlink="http://www.w3.org/1999/xlink" x="0px" y="0px"
	 width="129px" height="129px" viewBox="0 0 129 129" style="enable-background:new 0 0 129 129;" xml:space="preserve">
<style type="text/css">
<![CDATA[
	.st0{fill:#FFFFFF;}
	.st1{fill-rule:evenodd;clip-rule:evenodd;fill:#F8B132;}
	.st2{fill-rule:evenodd;clip-rule:evenodd;fill:#FAAF3F;}
	.st3{fill-rule:evenodd;clip-rule:evenodd;fill:#FFFFFF;}
	.st4{fill-rule:evenodd;clip-rule:evenodd;fill:#6C6D70;}
]]>
</style>
<g>
	<circle class="st1" cx="64.5" cy="64.5" r="64.5"/>
	<g>
		<path class="st3" d="M63.2,72.1l-3.9-3.9c-1.6,1.4-3.2,2.3-5.4,2.3c-3.6,0-6-2.7-6-6.1v-0.1c0-3.2,2.4-6,5.7-6
			c2.4,0,3.9,1,5.3,2.4l4.1-4.4c-2.2-2.7-5-4.3-9.4-4.3c-7.1,0-12,6-12,12.3v0.1c0,6.3,5,12.2,12,12.2C58.3,76.8,61,74.8,63.2,72.1z
			 M87.3,72.1l-3.9-3.9c-1.6,1.4-3.2,2.3-5.4,2.3c-3.6,0-6-2.7-6-6.1v-0.1c0-3.2,2.4-6,5.7-6c2.4,0,3.9,1,5.4,2.4l4.1-4.4
			c-2.2-2.7-4.9-4.3-9.4-4.3c-7.1,0-12,6-12,12.3v0.1c0,6.3,5,12.2,12,12.2C82.4,76.8,85,74.8,87.3,72.1z M25,64.5
			C25,86.3,42.7,104,64.5,104S104,86.3,104,64.5C104,42.7,86.3,25,64.5,25S25,42.7,25,64.5z M33.8,64.5c0-17,13.8-30.7,30.7-30.7
			s30.7,13.8,30.7,30.7S81.5,95.2,64.5,95.2S33.8,81.5,33.8,64.5z"/>
	</g>
</g>
</svg>
