<?xml version="1.0" encoding="utf-8"?>
<!-- Generator: Adobe Illustrator 16.0.4, SVG Export Plug-In . SVG Version: 6.00 Build 0)  -->
<!DOCTYPE svg PUBLIC "-//W3C//DTD SVG 1.1//EN" "http://www.w3.org/Graphics/SVG/1.1/DTD/svg11.dtd">
<svg version="1.1" id="Layer_1" xmlns="http://www.w3.org/2000/svg" xmlns:xlink="http://www.w3.org/1999/xlink" x="0px" y="0px"
	 width="129px" height="129px" viewBox="0 0 129 129" style="enable-background:new 0 0 129 129;" xml:space="preserve">
<style type="text/css">
<![CDATA[
	.st0{fill:#FFFFFF;}
	.st1{fill-rule:evenodd;clip-rule:evenodd;fill:#F8B132;}
	.st2{fill-rule:evenodd;clip-rule:evenodd;fill:#FAAF3F;}
	.st3{fill-rule:evenodd;clip-rule:evenodd;fill:#FFFFFF;}
	.st4{fill-rule:evenodd;clip-rule:evenodd;fill:#6C6D70;}
]]>
</style>
<g>
	<circle class="st1" cx="64.5" cy="64.5" r="64.5"/>
	<g>
		<g>
			<path class="st3" d="M40.6,51.9c0,2.4-1.9,4.2-5.1,4.2h-5.1v-8.5h4.9C38.6,47.6,40.6,49.1,40.6,51.9L40.6,51.9z M46.4,51.8
				L46.4,51.8c0-5.8-3.8-9.9-10.5-9.9H24.6V70h5.9v-8.2h4.9C41.7,61.8,46.4,58.4,46.4,51.8z"/>
			<path class="st3" d="M71.6,56.1c0,4.9-3.6,8.3-9,8.3h-5.1V47.6h5.1C67.9,47.6,71.6,51.1,71.6,56.1L71.6,56.1z M77.4,56L77.4,56
				c0-7.9-5.5-14.1-14.9-14.1h-11v28.1h11C71.9,70.1,77.4,63.8,77.4,56z"/>
			<polygon class="st3" points="103.6,47.6 103.6,41.9 82.6,41.9 82.6,70 88.4,70 88.4,58.8 101.8,58.8 101.8,53.2 88.4,53.2 
				88.4,47.6 			"/>
		</g>
		<g>
			<rect x="48" y="79" class="st3" width="33" height="4.4"/>
			<g>
				<polygon class="st3" points="55.1,92.3 64.4,102 73.9,92.3 67,92.3 67,85.2 62.1,85.2 62.1,92.3 				"/>
			</g>
		</g>
	</g>
</g>
</svg>
