<?xml version="1.0" encoding="utf-8"?>
<!-- Generator: Adobe Illustrator 16.0.4, SVG Export Plug-In . SVG Version: 6.00 Build 0)  -->
<!DOCTYPE svg PUBLIC "-//W3C//DTD SVG 1.1//EN" "http://www.w3.org/Graphics/SVG/1.1/DTD/svg11.dtd">
<svg version="1.1" id="Layer_1" xmlns="http://www.w3.org/2000/svg" xmlns:xlink="http://www.w3.org/1999/xlink" x="0px" y="0px"
	 width="129px" height="129px" viewBox="0 0 129 129" style="enable-background:new 0 0 129 129;" xml:space="preserve">
<style type="text/css">
<![CDATA[
	.st0{fill:#FFFFFF;}
	.st1{fill-rule:evenodd;clip-rule:evenodd;fill:#F8B132;}
	.st2{fill-rule:evenodd;clip-rule:evenodd;fill:#FAAF3F;}
	.st3{fill-rule:evenodd;clip-rule:evenodd;fill:#FFFFFF;}
	.st4{fill-rule:evenodd;clip-rule:evenodd;fill:#6C6D70;}
]]>
</style>
<g>
	<circle class="st1" cx="64.5" cy="64.5" r="64.5"/>
	<g>
		<g>
			<g>
				<polygon class="st3" points="49.6,69.1 49.6,63.4 34.4,63.4 34.4,57.8 47.6,57.8 47.6,52.2 34.4,52.2 34.4,46.6 49.4,46.6 
					49.4,40.9 28.6,40.9 28.6,69.1 				"/>
			</g>
			<g>
				<path class="st3" d="M63.2,56.8c0,1.6-1.1,2.9-3.1,2.9h-3.1v-5.8h3C62,53.8,63.2,54.8,63.2,56.8L63.2,56.8z M66.8,56.7
					L66.8,56.7c0-3.9-2.3-6.7-6.4-6.7h-6.9v19h3.6v-5.5H60C63.9,63.5,66.8,61.1,66.8,56.7z"/>
				<path class="st3" d="M84.3,60.5V50h-3.6v10.7c0,2.9-1.4,4.5-3.7,4.5s-3.7-1.6-3.7-4.6V50h-3.6v10.7c0,5.5,2.7,8.3,7.2,8.3
					C81.6,69,84.3,66.2,84.3,60.5z"/>
				<path class="st3" d="M98.9,63.2c0,1.6-1,2.4-2.7,2.4h-4.6v-4.8h4.5C98.1,60.8,98.9,61.7,98.9,63.2L98.9,63.2z M98.3,55.5
					c0,1.4-1.1,2.1-3,2.1h-3.8v-4.1h4C97.4,53.4,98.3,54.1,98.3,55.5L98.3,55.5z M102.5,63.8L102.5,63.8c0-3-1.2-4.2-3-5
					c1.5-0.7,2.4-1.9,2.4-4.1v-0.1c0-2.8-2-4.6-5.6-4.6H88v18.7h8.4C100.1,68.9,102.5,67.3,102.5,63.8z"/>
			</g>
		</g>
		<g>
			<rect x="49" y="78" class="st3" width="33" height="4.4"/>
			<g>
				<polygon class="st3" points="56.1,91.3 65.4,101 74.9,91.3 68,91.3 68,84.2 63.1,84.2 63.1,91.3 				"/>
			</g>
		</g>
	</g>
</g>
</svg>
