<?xml version="1.0" encoding="utf-8"?>
<!-- Generator: Adobe Illustrator 16.0.4, SVG Export Plug-In . SVG Version: 6.00 Build 0)  -->
<!DOCTYPE svg PUBLIC "-//W3C//DTD SVG 1.1//EN" "http://www.w3.org/Graphics/SVG/1.1/DTD/svg11.dtd">
<svg version="1.1" id="Layer_1" xmlns="http://www.w3.org/2000/svg" xmlns:xlink="http://www.w3.org/1999/xlink" x="0px" y="0px"
	 width="129px" height="129px" viewBox="0 0 129 129" style="enable-background:new 0 0 129 129;" xml:space="preserve">
<style type="text/css">
<![CDATA[
	.st0{fill:#FFFFFF;}
	.st1{fill-rule:evenodd;clip-rule:evenodd;fill:#F8B132;}
	.st2{fill-rule:evenodd;clip-rule:evenodd;fill:#FAAF3F;}
	.st3{fill-rule:evenodd;clip-rule:evenodd;fill:#FFFFFF;}
	.st4{fill-rule:evenodd;clip-rule:evenodd;fill:#6C6D70;}
]]>
</style>
<g>
	<circle class="st1" cx="64.5" cy="64.5" r="64.5"/>
	<g>
		<g>
			<path class="st3" d="M45.1,51.5c0,2.2-1.9,3.7-5.2,3.7h-6.9v-7.5h6.8C43,47.6,45.1,48.9,45.1,51.5L45.1,51.5z M51.8,70l-6.5-10.3
				c3.3-1.4,5.6-4.3,5.6-8.6v-0.1c0-5.6-3.7-9.1-10.7-9.1H27.1V70h5.9v-9.2h5.4l6.6,9.2H51.8z"/>
			<polygon class="st3" points="77.5,47.6 77.5,41.9 54.5,41.9 54.5,47.6 63.1,47.6 63.1,70 68.9,70 68.9,47.6 			"/>
			<polygon class="st3" points="103.1,47.6 103.1,41.9 82.1,41.9 82.1,70 87.9,70 87.9,58.8 101.3,58.8 101.3,53.2 87.9,53.2 
				87.9,47.6 			"/>
		</g>
		<g>
			<rect x="49" y="79" class="st3" width="33" height="4.4"/>
			<g>
				<polygon class="st3" points="56.1,92.3 65.4,102 74.9,92.3 68,92.3 68,85.2 63.1,85.2 63.1,92.3 				"/>
			</g>
		</g>
	</g>
</g>
</svg>
