<?xml version="1.0" encoding="utf-8"?>
<!-- Generator: Adobe Illustrator 22.1.0, SVG Export Plug-In . SVG Version: 6.00 Build 0)  -->
<svg version="1.1" id="Layer_1" xmlns="http://www.w3.org/2000/svg" xmlns:xlink="http://www.w3.org/1999/xlink" x="0px" y="0px"
	 viewBox="0 0 132.8 133.5" style="enable-background:new 0 0 132.8 133.5;" xml:space="preserve">
<style type="text/css">
	.st0{fill:#F8B132;}
	.st1{fill:#FFFFFF;}
</style>
<g>
	<circle class="st0" cx="67.6" cy="67.6" r="64.5"/>
	<path class="st1" d="M93.8,86.2V36.5H62.9v38.1c0,0.4-0.2,0.8-0.4,1c-0.1,0.1-0.2,0.1-0.3,0.1c-0.1,0-0.3-0.1-0.4-0.2l-5.5-6.8
		l-5.8,6.8c-0.2,0.3-0.5,0.3-0.7,0.1c-0.2-0.2-0.4-0.6-0.4-1V36.5h0c-4.4,0-7.9,3.6-7.9,7.9c0,0.1,0,0.1,0,0.2c0,4-0.1,41.1,0,45.9
		c0,0.1,0,0.2,0,0.3c0,4.2,3.3,7.6,7.4,7.9c0.1,0,0.2,0,0.2,0h43c0.9,0,1.6-0.7,1.6-1.6V90h-3.3v5.5H49.4c-2.5,0-4.5-2-4.6-4.4
		c0,0,0-0.1,0-0.1c0-0.1,0-0.2,0-0.3c0.1-2.4,2.2-4.4,4.6-4.4h22.2v0H93.8z"/>
</g>
</svg>
