<?xml version="1.0" encoding="utf-8"?>
<!-- Generator: Adobe Illustrator 16.0.4, SVG Export Plug-In . SVG Version: 6.00 Build 0)  -->
<!DOCTYPE svg PUBLIC "-//W3C//DTD SVG 1.1//EN" "http://www.w3.org/Graphics/SVG/1.1/DTD/svg11.dtd">
<svg version="1.1" id="Layer_1" xmlns="http://www.w3.org/2000/svg" xmlns:xlink="http://www.w3.org/1999/xlink" x="0px" y="0px"
	 width="129px" height="129px" viewBox="0 0 129 129" style="enable-background:new 0 0 129 129;" xml:space="preserve">
<style type="text/css">
<![CDATA[
	.st0{fill:#FFFFFF;}
	.st1{fill-rule:evenodd;clip-rule:evenodd;fill:#F8B132;}
	.st2{fill-rule:evenodd;clip-rule:evenodd;fill:#FAAF3F;}
	.st3{fill-rule:evenodd;clip-rule:evenodd;fill:#FFFFFF;}
	.st4{fill-rule:evenodd;clip-rule:evenodd;fill:#6C6D70;}
]]>
</style>
<g>
	<g>
		<circle class="st1" cx="64.5" cy="64.5" r="64.5"/>
	</g>
	<g>
		<path class="st3" d="M50.5,64.5c0,7.7,6.3,14,14,14s14-6.3,14-14s-6.3-14-14-14S50.5,56.8,50.5,64.5z M24,64.5
			C24,86.9,42.1,105,64.5,105S105,86.9,105,64.5S86.9,24,64.5,24S24,42.1,24,64.5z M37,64.5C37,49.3,49.3,37,64.5,37
			S92,49.3,92,64.5C92,79.7,79.7,92,64.5,92S37,79.7,37,64.5z"/>
	</g>
</g>
</svg>
