<?xml version="1.0" encoding="utf-8"?>
<!-- Generator: Adobe Illustrator 16.0.4, SVG Export Plug-In . SVG Version: 6.00 Build 0)  -->
<!DOCTYPE svg PUBLIC "-//W3C//DTD SVG 1.1//EN" "http://www.w3.org/Graphics/SVG/1.1/DTD/svg11.dtd">
<svg version="1.1" id="Layer_1" xmlns="http://www.w3.org/2000/svg" xmlns:xlink="http://www.w3.org/1999/xlink" x="0px" y="0px"
	 width="129px" height="129px" viewBox="0 0 129 129" style="enable-background:new 0 0 129 129;" xml:space="preserve">
<style type="text/css">
<![CDATA[
	.st0{fill:#FFFFFF;}
	.st1{fill-rule:evenodd;clip-rule:evenodd;fill:#F8B132;}
	.st2{fill-rule:evenodd;clip-rule:evenodd;fill:#FAAF3F;}
	.st3{fill-rule:evenodd;clip-rule:evenodd;fill:#FFFFFF;}
	.st4{fill-rule:evenodd;clip-rule:evenodd;fill:#6C6D70;}
]]>
</style>
<g>
	<circle class="st1" cx="64.5" cy="64.5" r="64.5"/>
	<g>
		<path class="st3" d="M61.8,76.7c0.4,1.7,1.1,3.2,2,4.7l-6.3,6.3l6.3,6.3l6.3-6.3c1.5,0.9,3,1.5,4.7,2v8.8h9v-8.8
			c1.7-0.4,3.2-1.1,4.7-2l6.3,6.3l6.3-6.3l-6.3-6.3c0.9-1.4,1.5-3,2-4.7h8.8v-9h-8.8c-0.4-1.7-1.1-3.2-2-4.7l6.3-6.3l-6.3-6.3
			l-6.3,6.3c-1.4-0.9-3-1.5-4.7-2v-8.8h-9v8.8c-1.7,0.4-3.2,1.1-4.7,2l-6.3-6.3l-6.3,6.3l6.3,6.3c-0.9,1.5-1.5,3-2,4.7H53v9H61.8z
			 M69.5,72c0-5.2,4.2-9.5,9.5-9.5s9.5,4.2,9.5,9.5s-4.2,9.5-9.5,9.5S69.5,77.2,69.5,72z"/>
		<g>
			<path class="st3" d="M29.7,51.7c0.3,1.2,0.8,2.3,1.4,3.3l-4.4,4.4l4.4,4.4l4.4-4.4c1,0.6,2.1,1.1,3.3,1.4V67h6.3v-6.2
				c1.2-0.3,2.3-0.8,3.3-1.4l4.4,4.4l4.4-4.4L52.9,55c0.6-1,1.1-2.1,1.4-3.3h6.2v-6.3h-6.2C54,44.1,53.5,43,52.9,42l4.4-4.4
				l-4.4-4.4l-4.4,4.4c-1-0.6-2.1-1.1-3.3-1.4V30h-6.3v6.2c-1.2,0.3-2.3,0.8-3.3,1.4l-4.4-4.4l-4.4,4.4l4.4,4.4
				c-0.6,1-1.1,2.1-1.4,3.3h-6.2v6.3H29.7z M35.1,48.4c0-3.7,3-6.7,6.7-6.7c3.7,0,6.7,3,6.7,6.7s-3,6.7-6.7,6.7
				C38.1,55,35.1,52.1,35.1,48.4z"/>
		</g>
	</g>
</g>
</svg>
