<?xml version="1.0" encoding="utf-8"?>
<!-- Generator: Adobe Illustrator 16.0.4, SVG Export Plug-In . SVG Version: 6.00 Build 0)  -->
<!DOCTYPE svg PUBLIC "-//W3C//DTD SVG 1.1//EN" "http://www.w3.org/Graphics/SVG/1.1/DTD/svg11.dtd">
<svg version="1.1" id="Layer_1" xmlns="http://www.w3.org/2000/svg" xmlns:xlink="http://www.w3.org/1999/xlink" x="0px" y="0px"
	 width="129px" height="129px" viewBox="0 0 129 129" style="enable-background:new 0 0 129 129;" xml:space="preserve">
<style type="text/css">
<![CDATA[
	.st0{fill:#FFFFFF;}
	.st1{fill-rule:evenodd;clip-rule:evenodd;fill:#F8B132;}
	.st2{fill-rule:evenodd;clip-rule:evenodd;fill:#FAAF3F;}
	.st3{fill-rule:evenodd;clip-rule:evenodd;fill:#FFFFFF;}
	.st4{fill-rule:evenodd;clip-rule:evenodd;fill:#6C6D70;}
]]>
</style>
<g>
	<circle class="st1" cx="64.5" cy="64.5" r="64.5"/>
	<path class="st3" d="M40.5,36.1v56.8c0,2.7,0.4,3.1,3,3.1h41.9c2.6,0,3-0.4,3-3.1V36.1c0-2.7-0.4-3.1-3-3.1H43.5
		C40.9,33,40.5,33.4,40.5,36.1z M46.3,40h9.2v9.5h-9.2V40z M46.3,65.2h9.2v9.5h-9.2V65.2z M46.3,52.5h9.2v9.5h-9.2V52.5z M46.3,77.6
		h9.2v9.5h-9.2V77.6z M61.6,42.5h21.9v4.6H61.6V42.5z M61.6,54.9h21.9v4.6H61.6V54.9z M61.6,67.6h21.9v4.6H61.6V67.6z M61.6,80h21.9
		v4.6H61.6V80z"/>
</g>
</svg>
