<?xml version="1.0" encoding="utf-8"?>
<!-- Generator: Adobe Illustrator 16.0.4, SVG Export Plug-In . SVG Version: 6.00 Build 0)  -->
<!DOCTYPE svg PUBLIC "-//W3C//DTD SVG 1.1//EN" "http://www.w3.org/Graphics/SVG/1.1/DTD/svg11.dtd">
<svg version="1.1" id="Layer_1" xmlns="http://www.w3.org/2000/svg" xmlns:xlink="http://www.w3.org/1999/xlink" x="0px" y="0px"
	 width="129px" height="129px" viewBox="0 0 129 129" style="enable-background:new 0 0 129 129;" xml:space="preserve">
<style type="text/css">
<![CDATA[
	.st0{fill:#FFFFFF;}
	.st1{fill-rule:evenodd;clip-rule:evenodd;fill:#F8B132;}
	.st2{fill-rule:evenodd;clip-rule:evenodd;fill:#FAAF3F;}
	.st3{fill-rule:evenodd;clip-rule:evenodd;fill:#FFFFFF;}
	.st4{fill-rule:evenodd;clip-rule:evenodd;fill:#6C6D70;}
]]>
</style>
<g>
	<circle class="st1" cx="64.5" cy="64.5" r="64.5"/>
	<path class="st3" d="M35,37.2v22.9c0,1.9,0.3,2.2,2.2,2.2h22.6c1.9,0,2.2-0.3,2.2-2.2V37.2c0-1.9-0.3-2.2-2.2-2.2H37.2
		C35.3,35,35,35.3,35,37.2z M43.3,40.6l5.2,5.3l5.2-5.3l2.8,2.8l-5.2,5.3l5.2,5.3l-2.8,2.8l-5.2-5.3l-5.2,5.3l-2.8-2.8l5.2-5.3
		l-5.2-5.3L43.3,40.6z M35,68.9v22.9c0,1.9,0.3,2.2,2.2,2.2h22.6c1.9,0,2.2-0.3,2.2-2.2V68.9c0-1.9-0.3-2.2-2.2-2.2H37.2
		C35.3,66.7,35,67,35,68.9z M43.3,72.2l5.2,5.3l5.2-5.3l2.8,2.8l-5.2,5.3l5.3,5.3l-2.8,2.8l-5.3-5.3l-5.2,5.3l-2.8-2.8l5.2-5.3
		l-5.2-5.3L43.3,72.2z M67,37.2v22.9c0,1.9,0.3,2.2,2.2,2.2h22.6c1.9,0,2.2-0.3,2.2-2.2V37.2c0-1.9-0.3-2.2-2.2-2.2H69.2
		C67.3,35,67,35.3,67,37.2z M75.3,40.6l5.2,5.3l5.2-5.3l2.8,2.8l-5.2,5.3l5.2,5.3l-2.8,2.8l-5.2-5.3l-5.2,5.3l-2.8-2.8l5.2-5.3
		l-5.2-5.3L75.3,40.6z M67,68.9v22.9c0,1.9,0.3,2.2,2.2,2.2h22.6c1.9,0,2.2-0.3,2.2-2.2V68.9c0-1.9-0.3-2.2-2.2-2.2H69.2
		C67.3,66.7,67,67,67,68.9z"/>
</g>
</svg>
