<?xml version="1.0" encoding="utf-8"?>
<!-- Generator: Adobe Illustrator 22.1.0, SVG Export Plug-In . SVG Version: 6.00 Build 0)  -->
<svg version="1.1" id="Layer_1" xmlns="http://www.w3.org/2000/svg" xmlns:xlink="http://www.w3.org/1999/xlink" x="0px" y="0px"
	 viewBox="0 0 132.8 133.5" style="enable-background:new 0 0 132.8 133.5;" xml:space="preserve">
<style type="text/css">
	.st0{fill:#F8B132;}
	.st1{fill:#FFFFFF;}
</style>
<circle class="st0" cx="66.6" cy="67.6" r="64.5"/>
<path class="st1" d="M36.9,51.4v38.1c0,2.6,0.4,3.1,3,3.1h41.9c2.6,0,3-0.4,3-3.1V33.6c0-2.6-0.4-3.1-3-3.1H57.5L36.9,51.4z
	 M59.4,51c0,1.7-0.3,2-2,2h-18l20-20V51z"/>
<path class="st0" d="M86.6,74v-6.1h-11V74c-0.3,0.1-0.7,0.3-1,0.4l-4.5-4.5l-7.8,7.8l4.5,4.5c-0.1,0.3-0.3,0.6-0.4,0.9h-6.1v11h6.1
	c2.2,5.9,7.9,10.2,14.7,10.2c8.6,0,15.7-7,15.7-15.7C96.8,82,92.6,76.2,86.6,74z"/>
<g>
	<path class="st1" d="M68.8,91.9c0.3,1.2,0.8,2.3,1.4,3.3l-4.4,4.4l4.4,4.4l4.4-4.4c1,0.6,2.1,1.1,3.3,1.4v6.2h6.3V101
		c1.2-0.3,2.3-0.8,3.3-1.4l4.4,4.4l4.4-4.4L92,95.2c0.6-1,1.1-2.1,1.4-3.3h6.2v-6.3h-6.2c-0.3-1.3-0.8-2.4-1.4-3.4l4.4-4.4L92,73.4
		l-4.4,4.4c-1-0.6-2.1-1.1-3.3-1.4v-6.2H78v6.2c-1.2,0.3-2.3,0.8-3.3,1.4l-4.4-4.4l-4.4,4.4l4.4,4.4c-0.6,1-1.1,2.1-1.4,3.3h-6.2
		v6.3L68.8,91.9L68.8,91.9z M74.2,88.6c0-3.7,3-6.7,6.7-6.7c3.7,0,6.7,3,6.7,6.7c0,3.7-3,6.7-6.7,6.7C77.2,95.2,74.2,92.3,74.2,88.6
		z"/>
</g>
</svg>
