<?xml version="1.0" encoding="utf-8"?>
<!-- Generator: Adobe Illustrator 16.0.4, SVG Export Plug-In . SVG Version: 6.00 Build 0)  -->
<!DOCTYPE svg PUBLIC "-//W3C//DTD SVG 1.1//EN" "http://www.w3.org/Graphics/SVG/1.1/DTD/svg11.dtd">
<svg version="1.1" id="Layer_1" xmlns="http://www.w3.org/2000/svg" xmlns:xlink="http://www.w3.org/1999/xlink" x="0px" y="0px"
	 width="129px" height="129px" viewBox="0 0 129 129" style="enable-background:new 0 0 129 129;" xml:space="preserve">
<style type="text/css">
<![CDATA[
	.st0{fill:#FFFFFF;}
	.st1{fill-rule:evenodd;clip-rule:evenodd;fill:#F8B132;}
	.st2{fill-rule:evenodd;clip-rule:evenodd;fill:#FAAF3F;}
	.st3{fill-rule:evenodd;clip-rule:evenodd;fill:#FFFFFF;}
	.st4{fill-rule:evenodd;clip-rule:evenodd;fill:#6C6D70;}
]]>
</style>
<g>
	<g>
		<circle class="st1" cx="64.5" cy="64.5" r="64.5"/>
	</g>
	<path class="st3" d="M83.1,37.7L63.4,56.9l-19.3-20c-1.1-1.2-3-1.2-4.1,0l-4.1,4.3c-1.1,1.2-1.1,3.1,0,4.3L55,65L41.4,78.3
		c-0.5,0.5-0.8,1.1-0.9,1.7l-4.9,13l14-5.3l-0.1-0.1c0.3-0.1,0.5-0.3,0.7-0.5L63.7,74l9.7,10c0.4,0.4,1,0.7,1.5,0.8l3.5-1.7
		c0.9,12.2,16.6,10.2,15.5,9.2c-1.1-1-2.1-2.2-3.9-9.2c-1.2-4.7-6.2-3.6-9.3-2.4l1.3-4.4L82,76.3c-0.1-0.2-0.3-0.4-0.5-0.6l-9.4-9.8
		l20.1-19.5c1.3-1.2,1.3-3.2,0-4.4l-4.6-4.3C86.4,36.4,84.4,36.4,83.1,37.7z"/>
</g>
</svg>
