<?xml version="1.0" encoding="utf-8"?>
<!-- Generator: Adobe Illustrator 16.0.4, SVG Export Plug-In . SVG Version: 6.00 Build 0)  -->
<!DOCTYPE svg PUBLIC "-//W3C//DTD SVG 1.1//EN" "http://www.w3.org/Graphics/SVG/1.1/DTD/svg11.dtd">
<svg version="1.1" xmlns="http://www.w3.org/2000/svg" xmlns:xlink="http://www.w3.org/1999/xlink" x="0px" y="0px" width="40px"
	 height="40px" viewBox="0 0 40 40" style="enable-background:new 0 0 40 40;" xml:space="preserve">
<style type="text/css">
<![CDATA[
	.st0{fill:#F6AF2F;}
	
		.st1{fill-rule:evenodd;clip-rule:evenodd;fill:#6E6E70;stroke:#F5F5F5;stroke-width:5;stroke-linecap:round;stroke-linejoin:round;stroke-miterlimit:10;}
	.st2{fill-rule:evenodd;clip-rule:evenodd;fill:#F5F5F5;}
	.st3{fill-rule:evenodd;clip-rule:evenodd;fill:#F6AF2F;}
	.st4{fill-rule:evenodd;clip-rule:evenodd;fill:#FAAE40;}
	.st5{fill-rule:evenodd;clip-rule:evenodd;fill:#6C6D70;}
]]>
</style>
<g id="Layer_1">
</g>
<g id="Layer_2">
	<g>
		<path class="st3" d="M19.5,14.7c-0.3-2.1-1.6-3.8-3.2-3.8c-1.6,0-2.6,1.5-2.4,3.6c0.3,2.1,1.8,3.5,3.4,3.6
			C18.9,18.2,19.8,16.8,19.5,14.7z"/>
		<path class="st3" d="M20,0C9,0,0,9,0,20s9,20,20,20c11,0,20-9,20-20S31,0,20,0z M16.7,30c-3.4,0-6.3-1.5-6.3-4
			c0-1.9,1.2-4.4,6.9-4.4c-0.8-0.7-1-1.6-0.5-2.7c-3.3,0-5-1.9-5-4.4c0-2.4,1.8-4.6,5.5-4.6h5.9l-1.3,1.3h-1.5
			c1.1,0.7,1.7,1.9,1.7,3.3c0,1.3-0.7,2.4-1.7,3.2c-1.8,1.4-1.4,2.2,0.5,3.6c1.9,1.4,2.5,2.5,2.5,4.1C23.2,27.5,21.3,30,16.7,30z
			 M29.6,19.7h-2.3V22h-1.4v-2.3h-2.2v-1.4h2.2V16h1.4v2.2h2.3V19.7z"/>
		<path class="st3" d="M17,22.4c-2.4,0-4.4,1.5-4.4,3.3c0,1.8,1.7,3.3,4.1,3.3c3,0,4.5-1.4,4.5-3.2C21.2,24,19.6,22.4,17,22.4z"/>
	</g>
</g>
</svg>
