<?xml version="1.0" encoding="utf-8"?>
<!-- Generator: Adobe Illustrator 22.1.0, SVG Export Plug-In . SVG Version: 6.00 Build 0)  -->
<svg version="1.1" id="Layer_1" xmlns="http://www.w3.org/2000/svg" xmlns:xlink="http://www.w3.org/1999/xlink" x="0px" y="0px"
	 viewBox="0 0 132.8 133.5" style="enable-background:new 0 0 132.8 133.5;" xml:space="preserve">
<style type="text/css">
	.st0{fill:#F8B132;}
	.st1{fill:#FFFFFF;}
	.st2{fill:#6C6D70;}
	.st3{fill:none;stroke:#FFFFFF;stroke-width:5;stroke-miterlimit:10;}
</style>
<circle class="st0" cx="66.4" cy="66.9" r="64.9"/>
<g>
	<path class="st1" d="M102.3,37.4H30.5c-0.7,0-1.3,0.6-1.3,1.3v56.4c0,0.7,0.6,1.3,1.3,1.3h71.8c0.7,0,1.3-0.6,1.3-1.3V38.7
		C103.6,37.9,103,37.4,102.3,37.4L102.3,37.4z M42,93.8H31.8V82.3H42V93.8z M42,79.7H31.8V68.2H42V79.7z M42,65.6H31.8V54H42V65.6z
		 M42,51.5H31.8V39.9H42V51.5z M76.1,68l-14.1,9c-0.2,0.1-0.5,0.2-0.7,0.2c-0.2,0-0.4-0.1-0.6-0.2c-0.4-0.2-0.7-0.7-0.7-1.1v-18
		c0-0.5,0.3-0.9,0.7-1.1c0.4-0.2,0.9-0.2,1.3,0l14.1,9c0.4,0.2,0.6,0.6,0.6,1.1C76.7,67.3,76.4,67.7,76.1,68L76.1,68z M101,93.8
		H90.8V82.3H101V93.8z M101,79.7H90.8V68.2H101V79.7z M101,65.6H90.8V54H101V65.6z M101,51.5H90.8V39.9H101V51.5z M101,51.5"/>
</g>
</svg>
