<svg xmlns="http://www.w3.org/2000/svg" viewBox="0 0 332.66788 70.304998"><path d="M4.265 32.298h20.568c.44-4.89-3.698-9.844-9.845-9.908-5.205-.064-9.844 3.763-10.723 9.908m-.127 2.825C4.39 42.08 8.528 47.16 15.366 47.16c4.2 0 7.273-1.755 9.343-3.637.375-.313.815-.503 1.128-.503 1.063 0 1.88 1.006 1.88 1.946 0 .692-.375 1.318-.817 1.694-2.442 2.32-6.705 4.326-11.786 4.326C6.02 50.986 0 44.088 0 34.93c0-9.34 6.524-16.367 14.988-16.367 8.216 0 13.985 6.212 13.985 13.11 0 2.005-.438 3.45-2.632 3.45H4.14zM57.252 21.2c0-1.13.944-2.007 2.135-2.007 1.19 0 2.07.876 2.07 2.006v17.245c0 7.212-4.33 12.542-12.295 12.542-7.962 0-12.226-5.33-12.226-12.542V21.2c0-1.13.876-2.007 2.07-2.007 1.13 0 2.07.876 2.07 2.006v17.37c0 5.017 2.884 8.592 8.086 8.592 5.205 0 8.09-3.575 8.09-8.593V21.2zM70.86 21.075c0-1.007.753-1.883 2.006-1.883 1.316 0 2.007.753 2.007 1.883v4.45c2.07-4.202 5.142-6.963 10.725-6.963 1.504 0 2.256.755 2.256 1.82 0 1.13-.69 2.01-2.07 2.01-6.334 0-10.724 4.2-10.724 11.35v14.61c0 1.19-.937 2.008-2.07 2.008-1.25 0-2.13-.817-2.13-2.008V21.075zM171.93 35.374c4.117 0 6.22-2.336 6.22-5.935 0-3.833-2.244-5.938-6.313-5.938h-5.562v11.872h5.656zm.187-17.107c7.435 0 12.062 4.348 12.062 11.172 0 6.964-4.815 11.17-12.25 11.17h-5.655v6.964c0 1.73-1.216 2.946-2.948 2.946-1.728 0-2.943-1.217-2.943-2.946V21.212c0-1.73 1.215-2.945 2.943-2.945h8.79zM192.55 50.52c-1.917 0-2.995-1.218-2.995-2.946V21.212c0-1.73 1.216-2.945 2.948-2.945 1.728 0 2.943 1.216 2.943 2.945V45.33h12.574c1.684 0 2.896.982 2.896 2.57 0 1.637-1.212 2.62-2.896 2.62h-15.47zM223.303 38.413h9.534l-4.77-12.06-4.764 12.06zm11.45 4.86h-13.366l-2.15 5.422c-.563 1.355-1.405 1.826-2.71 1.826-1.73 0-2.9-1.03-2.9-2.573 0-.7.137-1.167.512-2.056l10.656-25.053c.657-1.635 1.686-2.57 3.366-2.57 1.684 0 2.76.935 3.412 2.57l10.658 25.054c.326.75.47 1.31.47 1.776 0 1.73-1.356 2.855-3.088 2.855-1.448 0-2.29-.7-2.898-2.245l-1.963-5.003zM267.236 21.165c0-1.778 1.263-2.898 2.944-2.898 1.636 0 2.945 1.12 2.945 2.898v26.5c0 1.59-1.026 2.855-2.802 2.855-1.124 0-1.918-.375-2.713-1.358l-13.882-18.788v17.292c0 1.778-1.262 2.854-2.944 2.854-1.685 0-2.945-1.076-2.945-2.854V21.54c0-1.73.793-3.273 2.898-3.273.933 0 1.822.373 2.52 1.358l13.978 19.677V21.165zM300.232 45.33c1.682 0 2.71.98 2.71 2.57 0 1.636-1.028 2.62-2.71 2.62h-17.06c-1.87 0-2.944-1.217-2.944-2.946V21.21c0-1.727 1.073-2.942 2.99-2.942h16.968c1.685 0 2.756.98 2.756 2.616 0 1.59-1.07 2.617-2.756 2.617h-14.07v8.04h8.976c1.68 0 2.896.985 2.896 2.57 0 1.638-1.216 2.62-2.896 2.62h-8.976v8.6h14.116zM329.772 18.267c1.68 0 2.896.98 2.896 2.618 0 1.588-1.215 2.616-2.896 2.616h-7.667v24.073c0 1.73-1.213 2.948-2.942 2.948-1.778 0-2.948-1.218-2.948-2.947V23.5h-7.712c-1.68 0-2.85-1.027-2.85-2.615 0-1.637 1.17-2.618 2.85-2.618h21.27zM124.204 27.378c-4.79 0-8.686 3.894-8.686 8.68 0 4.787 3.895 8.68 8.686 8.68 4.784 0 8.678-3.893 8.678-8.68 0-4.786-3.894-8.68-8.678-8.68" fill="#4c4e56"/><path d="M124.2 18.733c-9.552 0-17.322 7.772-17.322 17.324 0 9.55 7.77 17.323 17.32 17.323v-1.703c-8.61 0-15.62-7.006-15.62-15.62 0-8.612 7.01-15.622 15.62-15.622 8.616 0 15.62 7.01 15.62 15.622 0 4.004-1.5 7.764-4.183 10.638-.352-.174-.742-.28-1.162-.28-1.468 0-2.658 1.19-2.658 2.657 0 1.47 1.19 2.656 2.658 2.656 1.467 0 2.656-1.186 2.656-2.656 0-.424-.11-.822-.288-1.176 2.998-3.19 4.68-7.378 4.68-11.84 0-9.55-7.77-17.323-17.323-17.323" fill="#4c4e56"/><path d="M91.654 36.058c0-13.35 8-25.203 20.38-30.195 3.056-1.237 6.26-1.98 9.548-2.242.386.993 1.343 1.695 2.47 1.695 1.468 0 2.657-1.19 2.657-2.66 0-1.464-1.19-2.655-2.657-2.655-1.21 0-2.22.816-2.54 1.92-3.484.268-6.88 1.054-10.118 2.362C98.368 9.536 89.953 22.01 89.953 36.058c0 18.883 15.364 34.247 34.246 34.247v-1.7c-17.945 0-32.546-14.6-32.546-32.547" fill="#4c4e56"/><path d="M149.712 33.51c-1.28-12.945-12.234-23.095-25.513-23.095-14.137 0-25.64 11.505-25.64 25.642 0 14.14 11.503 25.643 25.64 25.643v-1.705c-13.2 0-23.937-10.736-23.937-23.938 0-13.2 10.738-23.937 23.936-23.937 12.367 0 22.572 9.426 23.81 21.47-.98.39-1.68 1.345-1.68 2.465 0 1.47 1.19 2.66 2.66 2.66 1.467 0 2.656-1.19 2.656-2.66 0-1.214-.82-2.226-1.934-2.544" fill="#4c4e56"/></svg>