<?xml version="1.0" encoding="utf-8"?>
<!-- Generator: Adobe Illustrator 16.0.0, SVG Export Plug-In . SVG Version: 6.00 Build 0)  -->
<!DOCTYPE svg PUBLIC "-//W3C//DTD SVG 1.1//EN" "http://www.w3.org/Graphics/SVG/1.1/DTD/svg11.dtd">
<svg version="1.1" id="Layer_1" xmlns="http://www.w3.org/2000/svg" xmlns:xlink="http://www.w3.org/1999/xlink" x="0px" y="0px"
	 width="1024px" height="480px" viewBox="0 0 1024 480" enable-background="new 0 0 1024 480" xml:space="preserve">
<path fill="#D0D0D1" d="M13.128,231.213h63.311c1.354-15.052-11.383-30.301-30.304-30.498
	C30.113,200.518,15.834,212.298,13.128,231.213 M12.737,239.909c0.776,21.414,13.513,37.052,34.562,37.052
	c12.928,0,22.387-5.402,28.759-11.195c1.154-0.964,2.508-1.549,3.472-1.549c3.272,0,5.787,3.098,5.787,5.99
	c0,2.13-1.154,4.057-2.515,5.215c-7.517,7.141-20.639,13.314-36.279,13.314C18.53,288.738,0,267.505,0,239.315
	c0-28.749,20.082-50.38,46.135-50.38c25.29,0,43.048,19.122,43.048,40.354c0,6.172-1.348,10.62-8.102,10.62H12.744H12.737z
	 M176.23,197.052c0-3.479,2.906-6.178,6.572-6.178c3.663,0,6.372,2.696,6.372,6.175v53.083c0,22.199-13.328,38.605-37.846,38.605
	c-24.508,0-37.633-16.406-37.633-38.605v-53.08c0-3.479,2.696-6.178,6.372-6.178c3.479,0,6.372,2.696,6.372,6.175v53.469
	c0,15.441,8.877,26.446,24.89,26.446c16.022,0,24.902-11.005,24.902-26.45L176.23,197.052L176.23,197.052z M218.117,196.667
	c0-3.1,2.318-5.796,6.175-5.796c4.051,0,6.178,2.317,6.178,5.796v13.698c6.372-12.935,15.828-21.434,33.013-21.434
	c4.63,0,6.944,2.324,6.944,5.603c0,3.479-2.124,6.187-6.372,6.187c-19.497,0-33.01,12.929-33.01,34.938v44.972
	c0,3.663-2.884,6.182-6.372,6.182c-3.848,0-6.557-2.516-6.557-6.182L218.117,196.667L218.117,196.667z M529.226,240.682
	c12.674,0,19.146-7.189,19.146-18.269c0-11.799-6.907-18.278-19.432-18.278h-17.121v36.545h17.41L529.226,240.682z M529.801,188.024
	c22.888,0,37.129,13.384,37.129,34.39c0,21.436-14.82,34.383-37.707,34.383h-17.406v21.436c0,5.326-3.743,9.068-9.074,9.068
	c-5.319,0-9.061-3.746-9.061-9.068V197.09c0-5.325,3.74-9.065,9.061-9.065h27.057L529.801,188.024L529.801,188.024z
	 M592.697,287.303c-5.901,0-9.22-3.748-9.22-9.066V197.09c0-5.325,3.742-9.065,9.073-9.065c5.319,0,9.061,3.743,9.061,9.065v74.238
	h38.704c5.184,0,8.914,3.023,8.914,7.911c0,5.039-3.73,8.063-8.914,8.063H592.697L592.697,287.303z M687.359,250.036h29.347
	l-14.683-37.122L687.359,250.036L687.359,250.036z M722.604,264.996h-41.144l-6.617,16.689c-1.732,4.17-4.325,5.621-8.342,5.621
	c-5.325,0-8.927-3.172-8.927-7.922c0-2.154,0.421-3.592,1.575-6.328l32.801-77.117c2.021-5.032,5.189-7.91,10.361-7.91
	c5.184,0,8.495,2.878,10.503,7.91l32.807,77.121c1.004,2.309,1.447,4.031,1.447,5.467c0,5.324-4.175,8.787-9.506,8.787
	c-4.457,0-7.05-2.153-8.92-6.909l-6.043-15.4L722.604,264.996z M822.591,196.945c0-5.473,3.889-8.921,9.063-8.921
	c5.036,0,9.064,3.448,9.064,8.921v81.571c0,4.895-3.158,8.787-8.625,8.787c-3.46,0-5.903-1.154-8.352-4.18l-42.73-57.832v53.229
	c0,5.473-3.885,8.783-9.063,8.783c-5.188,0-9.064-3.312-9.064-8.783v-80.42c0-5.325,2.44-10.075,8.92-10.075
	c2.872,0,5.608,1.148,7.757,4.181l43.026,60.568v-55.829H822.591z M924.157,271.327c5.178,0,8.342,3.017,8.342,7.911
	c0,5.035-3.164,8.063-8.342,8.063h-52.514c-5.756,0-9.063-3.745-9.063-9.067v-81.151c0-5.316,3.303-9.057,9.204-9.057h52.229
	c5.188,0,8.483,3.017,8.483,8.053c0,4.895-3.293,8.056-8.483,8.056h-43.31v24.748h27.63c5.171,0,8.914,3.032,8.914,7.911
	c0,5.042-3.743,8.063-8.914,8.063h-27.63v26.474h43.451v-0.004H924.157z M1015.086,188.024c5.172,0,8.914,3.017,8.914,8.059
	c0,4.889-3.739,8.053-8.914,8.053h-23.6v74.101c0,5.326-3.734,9.074-9.058,9.074c-5.473,0-9.074-3.748-9.074-9.07v-74.106h-23.737
	c-5.172,0-8.773-3.161-8.773-8.05c0-5.039,3.603-8.059,8.773-8.059h65.472L1015.086,188.024L1015.086,188.024z M382.318,216.069
	c-14.744,0-26.737,11.986-26.737,26.719c0,14.735,11.989,26.718,26.737,26.718c14.726,0,26.712-11.982,26.712-26.718
	C409.03,228.055,397.044,216.069,382.318,216.069"/>
<path fill="#D0D0D1" d="M382.306,189.458c-29.401,0-53.319,23.924-53.319,53.326c0,29.396,23.917,53.321,53.313,53.321v-5.241
	c-26.502,0-48.081-21.565-48.081-48.08c0-26.509,21.578-48.087,48.081-48.087c26.521,0,48.081,21.578,48.081,48.087
	c0,12.323-4.617,23.897-12.875,32.745c-1.083-0.536-2.284-0.862-3.577-0.862c-4.519,0-8.182,3.663-8.182,8.179
	c0,4.525,3.663,8.176,8.182,8.176c4.517,0,8.175-3.649,8.175-8.176c0-1.305-0.338-2.529-0.886-3.619
	c9.229-9.818,14.405-22.711,14.405-36.444c0-29.396-23.917-53.323-53.323-53.323"/>
<path fill="#D0D0D1" d="M282.125,242.787c0-41.094,24.625-77.578,62.732-92.944c9.406-3.808,19.269-6.095,29.39-6.901
	c1.188,3.057,4.134,5.217,7.603,5.217c4.52,0,8.18-3.662,8.18-8.188c0-4.506-3.663-8.173-8.18-8.173
	c-3.725,0-6.833,2.513-7.817,5.91c-10.726,0.825-21.178,3.245-31.146,7.271c-40.096,16.17-65.999,54.566-65.999,97.809
	c0,58.124,47.292,105.417,105.415,105.417v-5.232c-55.236,0-100.182-44.94-100.182-100.185"/>
<path fill="#D0D0D1" d="M460.835,234.945c-3.939-39.847-37.657-71.09-78.532-71.09c-43.516,0-78.924,35.414-78.924,78.93
	c0,43.523,35.408,78.933,78.924,78.933v-5.247c-40.632,0-73.682-33.048-73.682-73.686c0-40.632,33.053-73.682,73.678-73.682
	c38.068,0,69.48,29.015,73.291,66.088c-3.017,1.2-5.171,4.14-5.171,7.586c0,4.525,3.663,8.188,8.188,8.188
	c4.517,0,8.177-3.663,8.177-8.188c0-3.735-2.524-6.852-5.953-7.829"/>
</svg>
